<svg id="_图层_1" data-name=" 图层 1" xmlns="http://www.w3.org/2000/svg" xmlns:xlink="http://www.w3.org/1999/xlink" viewBox="0 0 721 1335.46"><defs><style>.cls-1{fill:none;}.cls-2{fill:#fff;}.cls-3{clip-path:url(#clip-path);}.cls-4{fill:#eee950;}.cls-5{fill:#d8473d;}.cls-6{fill:#3d55a0;}.cls-7{fill:#c765a3;}.cls-8{fill:#e2974f;}.cls-9{fill:#834127;}.cls-10{fill:#fcbcd7;}.cls-11{fill:#4aa45b;}.cls-12{clip-path:url(#clip-path-21);}.cls-13{fill:#b8b4a1;}.cls-14{fill:#437579;}.cls-15{clip-path:url(#clip-path-39);}.cls-16{fill:#9ac9db;}.cls-17{fill:#f0768b;}.cls-18,.cls-19,.cls-20{isolation:isolate;}.cls-19,.cls-20{font-size:24px;}.cls-19{font-family:ArialMT, Arial;}.cls-20{font-family:Arial-ItalicMT, Arial;font-style:italic;}</style><clipPath id="clip-path" transform="translate(0 0)"><rect class="cls-1" x="91" y="53.4" width="558" height="342.62"/></clipPath><clipPath id="clip-path-21" transform="translate(0 0)"><rect class="cls-1" x="90" y="498.36" width="558" height="342.62"/></clipPath><clipPath id="clip-path-39" transform="translate(0 0)"><rect class="cls-1" x="91" y="943.9" width="558" height="342.62"/></clipPath></defs><title>Arabidopsis_arenosa.karyotype</title><g id="figure_1" data-name="figure 1"><g id="patch_1" data-name="patch 1"><path class="cls-2" d="M1,445H721V0H1Z" transform="translate(0 0)"/></g><g id="axes_1" data-name="axes 1"><g id="patch_2" data-name="patch 2"><path class="cls-2" d="M91,396H649V53.4H91V396Z" transform="translate(0 0)"/></g><g id="patch_3" data-name="patch 3"><g class="cls-3"><path class="cls-1" d="M116.36,396h52v-.73h-52Z" transform="translate(0 0)"/></g></g><g id="patch_4" data-name="patch 4"><g class="cls-3"><path class="cls-1" d="M181.4,396h52v-.73h-52Z" transform="translate(0 0)"/></g></g><g id="patch_5" data-name="patch 5"><g class="cls-3"><path class="cls-1" d="M246.43,396h52v-.73h-52Z" transform="translate(0 0)"/></g></g><g id="patch_6" data-name="patch 6"><g class="cls-3"><path class="cls-1" d="M311.47,396h52v-.73h-52Z" transform="translate(0 0)"/></g></g><g id="patch_7" data-name="patch 7"><g class="cls-3"><path class="cls-1" d="M376.5,396h52v-.73h-52Z" transform="translate(0 0)"/></g></g><g id="patch_8" data-name="patch 8"><g class="cls-3"><path class="cls-1" d="M441.54,396h52v-.73h-52Z" transform="translate(0 0)"/></g></g><g id="patch_9" data-name="patch 9"><g class="cls-3"><path class="cls-1" d="M506.57,396h52v-.73h-52V396Z" transform="translate(0 0)"/></g></g><g id="patch_10" data-name="patch 10"><g class="cls-3"><path class="cls-1" d="M571.61,396h52v-.73h-52Z" transform="translate(0 0)"/></g></g><g id="patch_11" data-name="patch 11"><g class="cls-3"><path class="cls-4" d="M126.12,395.94h32.52V69.71H126.12Z" transform="translate(0 0)"/></g></g><g id="patch_12" data-name="patch 12"><g class="cls-3"><path class="cls-5" d="M191.15,395.94h32.52V201.68H191.15Z" transform="translate(0 0)"/></g></g><g id="patch_13" data-name="patch 13"><g class="cls-3"><path class="cls-6" d="M256.19,395.94h32.52V133.75H256.19Z" transform="translate(0 0)"/></g></g><g id="patch_14" data-name="patch 14"><g class="cls-3"><path class="cls-7" d="M321.22,395.94h32.52V172.52H321.22Z" transform="translate(0 0)"/></g></g><g id="patch_15" data-name="patch 15"><g class="cls-3"><path class="cls-8" d="M386.26,395.94h32.52V191.2H386.26Z" transform="translate(0 0)"/></g></g><g id="patch_16" data-name="patch 16"><g class="cls-3"><path class="cls-9" d="M451.29,395.94h32.52V245.06H451.29Z" transform="translate(0 0)"/></g></g><g id="patch_17" data-name="patch 17"><g class="cls-3"><path class="cls-10" d="M451.29,245h32.52V203.81H451.29V245Z" transform="translate(0 0)"/></g></g><g id="patch_18" data-name="patch 18"><g class="cls-3"><path class="cls-9" d="M451.29,203.73h32.52V131.92H451.29Z" transform="translate(0 0)"/></g></g><g id="patch_19" data-name="patch 19"><g class="cls-3"><path class="cls-11" d="M516.33,395.94h32.52V126.65H516.33Z" transform="translate(0 0)"/></g></g><g id="patch_20" data-name="patch 20"><g class="cls-3"><path class="cls-10" d="M581.36,395.94h32.52V328.09H581.36Z" transform="translate(0 0)"/></g></g><g id="patch_21" data-name="patch 21"><g class="cls-3"><path class="cls-9" d="M581.36,328h32.52V224H581.36Z" transform="translate(0 0)"/></g></g><g id="patch_22" data-name="patch 22"><g class="cls-3"><path class="cls-10" d="M581.36,223.89h32.52V188.64H581.36Z" transform="translate(0 0)"/></g></g></g></g><g id="figure_1-2" data-name="figure 1-2"><g id="patch_1-2" data-name="patch 1-2"><path class="cls-2" d="M0,889.92H720V445H0Z" transform="translate(0 0)"/></g><g id="axes_1-2" data-name="axes 1-2"><g id="patch_2-2" data-name="patch 2-2"><path class="cls-2" d="M90,841H648V498.35H90Z" transform="translate(0 0)"/></g><g id="patch_3-2" data-name="patch 3-2"><g class="cls-12"><path class="cls-1" d="M115.36,841h52v-.73h-52Z" transform="translate(0 0)"/></g></g><g id="patch_4-2" data-name="patch 4-2"><g class="cls-12"><path class="cls-1" d="M180.4,841h52v-.73h-52Z" transform="translate(0 0)"/></g></g><g id="patch_5-2" data-name="patch 5-2"><g class="cls-12"><path class="cls-1" d="M245.43,841h52v-.73h-52Z" transform="translate(0 0)"/></g></g><g id="patch_6-2" data-name="patch 6-2"><g class="cls-12"><path class="cls-1" d="M310.47,841h52v-.73h-52Z" transform="translate(0 0)"/></g></g><g id="patch_7-2" data-name="patch 7-2"><g class="cls-12"><path class="cls-1" d="M375.5,841h52v-.73h-52Z" transform="translate(0 0)"/></g></g><g id="patch_8-2" data-name="patch 8-2"><g class="cls-12"><path class="cls-1" d="M440.54,841h52v-.73h-52Z" transform="translate(0 0)"/></g></g><g id="patch_9-2" data-name="patch 9-2"><g class="cls-12"><path class="cls-1" d="M505.57,841h52v-.73h-52V841Z" transform="translate(0 0)"/></g></g><g id="patch_10-2" data-name="patch 10-2"><g class="cls-12"><path class="cls-1" d="M570.61,841h52v-.73h-52Z" transform="translate(0 0)"/></g></g><g id="patch_11-2" data-name="patch 11-2"><g class="cls-12"><path class="cls-4" d="M125.12,840.9h32.52V514.67H125.12Z" transform="translate(0 0)"/></g></g><g id="patch_12-2" data-name="patch 12-2"><g class="cls-12"><path class="cls-5" d="M190.15,840.9h32.52V646.64H190.15Z" transform="translate(0 0)"/></g></g><g id="patch_13-2" data-name="patch 13-2"><g class="cls-12"><path class="cls-6" d="M255.19,840.9h32.52V578.71H255.19V840.9Z" transform="translate(0 0)"/></g></g><g id="patch_14-2" data-name="patch 14-2"><g class="cls-12"><path class="cls-7" d="M320.22,840.9h32.52V617.48H320.22Z" transform="translate(0 0)"/></g></g><g id="patch_15-2" data-name="patch 15-2"><g class="cls-12"><path class="cls-8" d="M385.26,840.9h32.52V636.16H385.26Z" transform="translate(0 0)"/></g></g><g id="patch_16-2" data-name="patch 16-2"><g class="cls-12"><path class="cls-13" d="M450.29,840.9h32.52V650.45H450.29Z" transform="translate(0 0)"/></g></g><g id="patch_17-2" data-name="patch 17-2"><g class="cls-12"><path class="cls-14" d="M450.29,650.38h32.52v-73.5H450.29Z" transform="translate(0 0)"/></g></g><g id="patch_18-2" data-name="patch 18-2"><g class="cls-12"><path class="cls-11" d="M515.33,840.9h32.52V571.61H515.33Z" transform="translate(0 0)"/></g></g><g id="patch_19-2" data-name="patch 19-2"><g class="cls-12"><path class="cls-13" d="M580.36,840.9h32.52V773.05H580.36Z" transform="translate(0 0)"/></g></g><g id="patch_20-2" data-name="patch 20-2"><g class="cls-12"><path class="cls-14" d="M580.36,773h32.52V633.6H580.36Z" transform="translate(0 0)"/></g></g></g></g><g id="figure_1-3" data-name="figure 1-3"><g id="patch_1-3" data-name="patch 1-3"><path class="cls-2" d="M1,1335.46H721v-445H1Z" transform="translate(0 0)"/></g><g id="axes_1-3" data-name="axes 1-3"><g id="patch_2-3" data-name="patch 2-3"><path class="cls-2" d="M91,1286.52H649V943.9H91Z" transform="translate(0 0)"/></g><g id="patch_3-3" data-name="patch 3-3"><g class="cls-15"><path class="cls-1" d="M116.36,1286.52h52v-.73h-52Z" transform="translate(0 0)"/></g></g><g id="patch_4-3" data-name="patch 4-3"><g class="cls-15"><path class="cls-1" d="M181.4,1286.52h52v-.73h-52Z" transform="translate(0 0)"/></g></g><g id="patch_5-3" data-name="patch 5-3"><g class="cls-15"><path class="cls-1" d="M246.43,1286.52h52v-.73h-52Z" transform="translate(0 0)"/></g></g><g id="patch_6-3" data-name="patch 6-3"><g class="cls-15"><path class="cls-1" d="M311.47,1286.52h52v-.73h-52Z" transform="translate(0 0)"/></g></g><g id="patch_7-3" data-name="patch 7-3"><g class="cls-15"><path class="cls-1" d="M376.5,1286.52h52v-.73h-52Z" transform="translate(0 0)"/></g></g><g id="patch_8-3" data-name="patch 8-3"><g class="cls-15"><path class="cls-1" d="M441.54,1286.52h52v-.73h-52Z" transform="translate(0 0)"/></g></g><g id="patch_9-3" data-name="patch 9-3"><g class="cls-15"><path class="cls-1" d="M506.57,1286.52h52v-.73h-52v.73Z" transform="translate(0 0)"/></g></g><g id="patch_10-3" data-name="patch 10-3"><g class="cls-15"><path class="cls-1" d="M571.61,1286.52h52v-.73h-52Z" transform="translate(0 0)"/></g></g><g id="patch_11-3" data-name="patch 11-3"><g class="cls-15"><path class="cls-4" d="M126.12,1286.44h32.52V960.21H126.12Z" transform="translate(0 0)"/></g></g><g id="patch_12-3" data-name="patch 12-3"><g class="cls-15"><path class="cls-5" d="M191.15,1286.44h32.52V1092.18H191.15Z" transform="translate(0 0)"/></g></g><g id="patch_13-3" data-name="patch 13-3"><g class="cls-15"><path class="cls-6" d="M256.19,1286.44h32.52V1024.25H256.19Z" transform="translate(0 0)"/></g></g><g id="patch_14-3" data-name="patch 14-3"><g class="cls-15"><path class="cls-7" d="M321.22,1286.44h32.52V1063H321.22Z" transform="translate(0 0)"/></g></g><g id="patch_15-3" data-name="patch 15-3"><g class="cls-15"><path class="cls-8" d="M386.26,1286.44h32.52V1081.7H386.26Z" transform="translate(0 0)"/></g></g><g id="patch_16-3" data-name="patch 16-3"><g class="cls-15"><path class="cls-16" d="M451.29,1286.44h32.52v-264H451.29Z" transform="translate(0 0)"/></g></g><g id="patch_17-3" data-name="patch 17-3"><g class="cls-15"><path class="cls-11" d="M516.33,1286.44h32.52V1017.15H516.33Z" transform="translate(0 0)"/></g></g><g id="patch_18-3" data-name="patch 18-3"><g class="cls-15"><path class="cls-17" d="M581.36,1286.44h32.52v-207.3H581.36Z" transform="translate(0 0)"/></g></g></g></g><g class="cls-18"><text class="cls-19" transform="translate(166.61 433.57)">ACBK mapped to </text><text class="cls-20" transform="translate(358.72 433.57)">Arabidopsis arenosa</text></g><g class="cls-18"><text class="cls-19" transform="translate(166.58 879.42)">AKI mapped to </text><text class="cls-20" transform="translate(332.01 879.42)">Arabidopsis arenosa</text></g><g class="cls-18"><text class="cls-19" transform="translate(166.58 1325.79)">tAKI mapped to </text><text class="cls-20" transform="translate(338.68 1325.79)">Arabidopsis arenosa</text></g></svg>