<svg id="_图层_1" data-name=" 图层 1" xmlns="http://www.w3.org/2000/svg" xmlns:xlink="http://www.w3.org/1999/xlink" viewBox="0 0 720 1334.98"><defs><style>.cls-1{fill:none;}.cls-2{fill:#fff;}.cls-3{clip-path:url(#clip-path);}.cls-4{fill:#834127;}.cls-5{fill:#fcbcd7;}.cls-6{fill:#eee950;}.cls-7{fill:#3d55a0;}.cls-8{fill:#d8473d;}.cls-9{fill:#4aa45b;}.cls-10{fill:#c765a3;}.cls-11{fill:#e2974f;}.cls-12{clip-path:url(#clip-path-25);}.cls-13{fill:#437579;}.cls-14{fill:#b8b4a1;}.cls-15{clip-path:url(#clip-path-49);}.cls-16{fill:#9ac9db;}.cls-17{fill:#f0768b;}.cls-18,.cls-19,.cls-20{isolation:isolate;}.cls-19,.cls-20{font-size:24px;}.cls-19{font-family:ArialMT, Arial;}.cls-20{font-family:Arial-ItalicMT, Arial;font-style:italic;}</style><clipPath id="clip-path" transform="translate(0 0)"><rect class="cls-1" x="90" y="53.4" width="558" height="342.62"/></clipPath><clipPath id="clip-path-25" transform="translate(0 0)"><rect class="cls-1" x="90" y="498.42" width="558" height="342.62"/></clipPath><clipPath id="clip-path-49" transform="translate(0 0)"><rect class="cls-1" x="90" y="943.42" width="558" height="342.62"/></clipPath></defs><title>Crucihimalaya_lasiocarpa.karyotype</title><g id="figure_1" data-name="figure 1"><g id="patch_1" data-name="patch 1"><path class="cls-2" d="M0,445H720V0H0Z" transform="translate(0 0)"/></g><g id="axes_1" data-name="axes 1"><g id="patch_2" data-name="patch 2"><path class="cls-2" d="M90,396H648V53.4H90V396Z" transform="translate(0 0)"/></g><g id="patch_3" data-name="patch 3"><g class="cls-3"><path class="cls-1" d="M115.36,396h52v-.89h-52Z" transform="translate(0 0)"/></g></g><g id="patch_4" data-name="patch 4"><g class="cls-3"><path class="cls-1" d="M180.4,396h52v-.89h-52Z" transform="translate(0 0)"/></g></g><g id="patch_5" data-name="patch 5"><g class="cls-3"><path class="cls-1" d="M245.43,396h52v-.89h-52Z" transform="translate(0 0)"/></g></g><g id="patch_6" data-name="patch 6"><g class="cls-3"><path class="cls-1" d="M310.47,396h52v-.89h-52Z" transform="translate(0 0)"/></g></g><g id="patch_7" data-name="patch 7"><g class="cls-3"><path class="cls-1" d="M375.5,396h52v-.89h-52Z" transform="translate(0 0)"/></g></g><g id="patch_8" data-name="patch 8"><g class="cls-3"><path class="cls-1" d="M440.54,396h52v-.89h-52Z" transform="translate(0 0)"/></g></g><g id="patch_9" data-name="patch 9"><g class="cls-3"><path class="cls-1" d="M505.57,396h52v-.89h-52V396Z" transform="translate(0 0)"/></g></g><g id="patch_10" data-name="patch 10"><g class="cls-3"><path class="cls-1" d="M570.61,396h52v-.89h-52Z" transform="translate(0 0)"/></g></g><g id="patch_11" data-name="patch 11"><g class="cls-3"><path class="cls-4" d="M125.12,395.93h32.52V310.51H125.12Z" transform="translate(0 0)"/></g></g><g id="patch_12" data-name="patch 12"><g class="cls-3"><path class="cls-5" d="M125.12,310.42h32.52V272.71H125.12Z" transform="translate(0 0)"/></g></g><g id="patch_13" data-name="patch 13"><g class="cls-3"><path class="cls-4" d="M125.12,272.62h32.52v-2.5H125.12Z" transform="translate(0 0)"/></g></g><g id="patch_14" data-name="patch 14"><g class="cls-3"><path class="cls-5" d="M125.12,270h32.52V260.2H125.12Z" transform="translate(0 0)"/></g></g><g id="patch_15" data-name="patch 15"><g class="cls-3"><path class="cls-4" d="M125.12,260.11h32.52V113.22H125.12Z" transform="translate(0 0)"/></g></g><g id="patch_16" data-name="patch 16"><g class="cls-3"><path class="cls-5" d="M190.15,395.93h32.52v-34.4H190.15Z" transform="translate(0 0)"/></g></g><g id="patch_17" data-name="patch 17"><g class="cls-3"><path class="cls-6" d="M190.15,361.44h32.52V163.71H190.15Z" transform="translate(0 0)"/></g></g><g id="patch_18" data-name="patch 18"><g class="cls-3"><path class="cls-7" d="M255.19,395.93h32.52V129H255.19v267Z" transform="translate(0 0)"/></g></g><g id="patch_19" data-name="patch 19"><g class="cls-3"><path class="cls-5" d="M320.22,395.93h32.52V341.34H320.22Z" transform="translate(0 0)"/></g></g><g id="patch_20" data-name="patch 20"><g class="cls-3"><path class="cls-4" d="M320.22,341.24h32.52V254.57H320.22Z" transform="translate(0 0)"/></g></g><g id="patch_21" data-name="patch 21"><g class="cls-3"><path class="cls-5" d="M320.22,254.48h32.52V207.93H320.22Z" transform="translate(0 0)"/></g></g><g id="patch_22" data-name="patch 22"><g class="cls-3"><path class="cls-6" d="M320.22,207.84h32.52V69.71H320.22Z" transform="translate(0 0)"/></g></g><g id="patch_23" data-name="patch 23"><g class="cls-3"><path class="cls-8" d="M385.26,395.93h32.52V186.05H385.26Z" transform="translate(0 0)"/></g></g><g id="patch_24" data-name="patch 24"><g class="cls-3"><path class="cls-9" d="M450.29,395.93h32.52V111.7H450.29V395.92Z" transform="translate(0 0)"/></g></g><g id="patch_25" data-name="patch 25"><g class="cls-3"><path class="cls-10" d="M515.33,395.93h32.52V160.23H515.33Z" transform="translate(0 0)"/></g></g><g id="patch_26" data-name="patch 26"><g class="cls-3"><path class="cls-11" d="M580.36,395.93h32.52V177.56H580.36Z" transform="translate(0 0)"/></g></g></g></g><g id="figure_1-2" data-name="figure 1-2"><g id="patch_1-2" data-name="patch 1-2"><path class="cls-2" d="M0,890H720V445H0Z" transform="translate(0 0)"/></g><g id="axes_1-2" data-name="axes 1-2"><g id="patch_2-2" data-name="patch 2-2"><path class="cls-2" d="M90,841H648V498.41H90Z" transform="translate(0 0)"/></g><g id="patch_3-2" data-name="patch 3-2"><g class="cls-12"><path class="cls-1" d="M115.36,841h52v-.89h-52Z" transform="translate(0 0)"/></g></g><g id="patch_4-2" data-name="patch 4-2"><g class="cls-12"><path class="cls-1" d="M180.4,841h52v-.89h-52Z" transform="translate(0 0)"/></g></g><g id="patch_5-2" data-name="patch 5-2"><g class="cls-12"><path class="cls-1" d="M245.43,841h52v-.89h-52Z" transform="translate(0 0)"/></g></g><g id="patch_6-2" data-name="patch 6-2"><g class="cls-12"><path class="cls-1" d="M310.47,841h52v-.89h-52Z" transform="translate(0 0)"/></g></g><g id="patch_7-2" data-name="patch 7-2"><g class="cls-12"><path class="cls-1" d="M375.5,841h52v-.89h-52Z" transform="translate(0 0)"/></g></g><g id="patch_8-2" data-name="patch 8-2"><g class="cls-12"><path class="cls-1" d="M440.54,841h52v-.89h-52Z" transform="translate(0 0)"/></g></g><g id="patch_9-2" data-name="patch 9-2"><g class="cls-12"><path class="cls-1" d="M505.57,841h52v-.89h-52V841Z" transform="translate(0 0)"/></g></g><g id="patch_10-2" data-name="patch 10-2"><g class="cls-12"><path class="cls-1" d="M570.61,841h52v-.89h-52Z" transform="translate(0 0)"/></g></g><g id="patch_11-2" data-name="patch 11-2"><g class="cls-12"><path class="cls-13" d="M125.12,841h32.52V825.76H125.12Z" transform="translate(0 0)"/></g></g><g id="patch_12-2" data-name="patch 12-2"><g class="cls-12"><path class="cls-14" d="M125.12,825.67h32.52V717.74H125.12Z" transform="translate(0 0)"/></g></g><g id="patch_13-2" data-name="patch 13-2"><g class="cls-12"><path class="cls-13" d="M125.12,717.64h32.52v-2.5H125.12Z" transform="translate(0 0)"/></g></g><g id="patch_14-2" data-name="patch 14-2"><g class="cls-12"><path class="cls-14" d="M125.12,715.05h32.52V704.77H125.12Z" transform="translate(0 0)"/></g></g><g id="patch_15-2" data-name="patch 15-2"><g class="cls-12"><path class="cls-13" d="M125.12,704.69h32.52V645.45H125.12Z" transform="translate(0 0)"/></g></g><g id="patch_16-2" data-name="patch 16-2"><g class="cls-12"><path class="cls-14" d="M125.12,645.36h32.52V558.24H125.12Z" transform="translate(0 0)"/></g></g><g id="patch_17-2" data-name="patch 17-2"><g class="cls-12"><path class="cls-14" d="M190.15,841h32.52v-34.4H190.15Z" transform="translate(0 0)"/></g></g><g id="patch_18-2" data-name="patch 18-2"><g class="cls-12"><path class="cls-6" d="M190.15,806.46h32.52V608.73H190.15Z" transform="translate(0 0)"/></g></g><g id="patch_19-2" data-name="patch 19-2"><g class="cls-12"><path class="cls-7" d="M255.19,841h32.52V574H255.19V841Z" transform="translate(0 0)"/></g></g><g id="patch_20-2" data-name="patch 20-2"><g class="cls-12"><path class="cls-13" d="M320.22,841h32.52V699.6H320.22V841Z" transform="translate(0 0)"/></g></g><g id="patch_21-2" data-name="patch 21-2"><g class="cls-12"><path class="cls-14" d="M320.22,699.5h32.52V653H320.22Z" transform="translate(0 0)"/></g></g><g id="patch_22-2" data-name="patch 22-2"><g class="cls-12"><path class="cls-6" d="M320.22,653h32.52V514.73H320.22V653Z" transform="translate(0 0)"/></g></g><g id="patch_23-2" data-name="patch 23-2"><g class="cls-12"><path class="cls-8" d="M385.26,841h32.52V631.07H385.26Z" transform="translate(0 0)"/></g></g><g id="patch_24-2" data-name="patch 24-2"><g class="cls-12"><path class="cls-9" d="M450.29,841h32.52V556.73H450.29V841Z" transform="translate(0 0)"/></g></g><g id="patch_25-2" data-name="patch 25-2"><g class="cls-12"><path class="cls-10" d="M515.33,841h32.52V605.25H515.33Z" transform="translate(0 0)"/></g></g><g id="patch_26-2" data-name="patch 26-2"><g class="cls-12"><path class="cls-11" d="M580.36,841h32.52V622.58H580.36Z" transform="translate(0 0)"/></g></g></g></g><g id="figure_1-3" data-name="figure 1-3"><g id="patch_1-3" data-name="patch 1-3"><path class="cls-2" d="M0,1335H720V890H0Z" transform="translate(0 0)"/></g><g id="axes_1-3" data-name="axes 1-3"><g id="patch_2-3" data-name="patch 2-3"><path class="cls-2" d="M90,1286H648V943.41H90Z" transform="translate(0 0)"/></g><g id="patch_3-3" data-name="patch 3-3"><g class="cls-15"><path class="cls-1" d="M115.36,1286h52v-.89h-52Z" transform="translate(0 0)"/></g></g><g id="patch_4-3" data-name="patch 4-3"><g class="cls-15"><path class="cls-1" d="M180.4,1286h52v-.89h-52Z" transform="translate(0 0)"/></g></g><g id="patch_5-3" data-name="patch 5-3"><g class="cls-15"><path class="cls-1" d="M245.43,1286h52v-.89h-52Z" transform="translate(0 0)"/></g></g><g id="patch_6-3" data-name="patch 6-3"><g class="cls-15"><path class="cls-1" d="M310.47,1286h52v-.89h-52Z" transform="translate(0 0)"/></g></g><g id="patch_7-3" data-name="patch 7-3"><g class="cls-15"><path class="cls-1" d="M375.5,1286h52v-.89h-52Z" transform="translate(0 0)"/></g></g><g id="patch_8-3" data-name="patch 8-3"><g class="cls-15"><path class="cls-1" d="M440.54,1286h52v-.89h-52Z" transform="translate(0 0)"/></g></g><g id="patch_9-3" data-name="patch 9-3"><g class="cls-15"><path class="cls-1" d="M505.57,1286h52v-.89h-52v.89Z" transform="translate(0 0)"/></g></g><g id="patch_10-3" data-name="patch 10-3"><g class="cls-15"><path class="cls-1" d="M570.61,1286h52v-.89h-52Z" transform="translate(0 0)"/></g></g><g id="patch_11-3" data-name="patch 11-3"><g class="cls-15"><path class="cls-16" d="M125.12,1286h32.52v-282.7H125.12Z" transform="translate(0 0)"/></g></g><g id="patch_12-3" data-name="patch 12-3"><g class="cls-15"><path class="cls-17" d="M190.15,1286h32.52v-34.4H190.15Z" transform="translate(0 0)"/></g></g><g id="patch_13-3" data-name="patch 13-3"><g class="cls-15"><path class="cls-6" d="M190.15,1251.46h32.52V1053.73H190.15Z" transform="translate(0 0)"/></g></g><g id="patch_14-3" data-name="patch 14-3"><g class="cls-15"><path class="cls-7" d="M255.19,1286h32.52V1019H255.19v267Z" transform="translate(0 0)"/></g></g><g id="patch_15-3" data-name="patch 15-3"><g class="cls-15"><path class="cls-17" d="M320.22,1286h32.52v-187.9H320.22Z" transform="translate(0 0)"/></g></g><g id="patch_16-3" data-name="patch 16-3"><g class="cls-15"><path class="cls-6" d="M320.22,1098h32.52V959.73H320.22Z" transform="translate(0 0)"/></g></g><g id="patch_17-3" data-name="patch 17-3"><g class="cls-15"><path class="cls-8" d="M385.26,1286h32.52V1076.07H385.26Z" transform="translate(0 0)"/></g></g><g id="patch_18-3" data-name="patch 18-3"><g class="cls-15"><path class="cls-9" d="M450.29,1286h32.52V1001.73H450.29Z" transform="translate(0 0)"/></g></g><g id="patch_19-3" data-name="patch 19-3"><g class="cls-15"><path class="cls-10" d="M515.33,1286h32.52v-235.7H515.33Z" transform="translate(0 0)"/></g></g><g id="patch_20-3" data-name="patch 20-3"><g class="cls-15"><path class="cls-11" d="M580.36,1286h32.52V1067.58H580.36Z" transform="translate(0 0)"/></g></g></g></g><g class="cls-18"><text class="cls-19" transform="translate(152.06 873.84)">AKI mapped to</text></g><g class="cls-18"><text class="cls-20" transform="translate(317.49 873.84)">Crucihimalaya lasiocarpa</text></g><g class="cls-18"><text class="cls-19" transform="translate(152.1 1315.32)">tAKI mapped to</text></g><g class="cls-18"><text class="cls-20" transform="translate(324.2 1315.32)">Crucihimalaya lasiocarpa</text></g><g class="cls-18"><text class="cls-19" transform="translate(138.57 424.29)">ACBK mapped to</text></g><g class="cls-18"><text class="cls-20" transform="translate(330.68 424.29)">Crucihimalaya lasiocarpa</text></g></svg>