<svg id="_图层_1" data-name=" 图层 1" xmlns="http://www.w3.org/2000/svg" xmlns:xlink="http://www.w3.org/1999/xlink" viewBox="0 0 720.5 1334.98"><defs><style>.cls-1{fill:none;}.cls-2{fill:#fff;}.cls-3{clip-path:url(#clip-path);}.cls-4{fill:#eee950;}.cls-5{fill:#d8473d;}.cls-6{fill:#3d55a0;}.cls-7{fill:#fcbcd7;}.cls-8{fill:#834127;}.cls-9{fill:#c765a3;}.cls-10{fill:#e2974f;}.cls-11{fill:#4aa45b;}.cls-12{clip-path:url(#clip-path-24);}.cls-13{fill:#b8b4a1;}.cls-14{fill:#437579;}.cls-15{clip-path:url(#clip-path-45);}.cls-16{fill:#f0768b;}.cls-17{fill:#9ac9db;}.cls-18,.cls-19,.cls-20{isolation:isolate;}.cls-19,.cls-20{font-size:24px;}.cls-19{font-family:ArialMT, Arial;}.cls-20{font-family:Arial-ItalicMT, Arial;font-style:italic;}</style><clipPath id="clip-path" transform="translate(0 0)"><rect class="cls-1" x="90" y="53.4" width="558" height="342.62"/></clipPath><clipPath id="clip-path-24" transform="translate(0 0)"><rect class="cls-1" x="90.5" y="498.42" width="558" height="342.62"/></clipPath><clipPath id="clip-path-45" transform="translate(0 0)"><rect class="cls-1" x="90.5" y="943.42" width="558" height="342.62"/></clipPath></defs><title>Boechera_stricta.karyotype</title><g id="figure_1" data-name="figure 1"><g id="patch_1" data-name="patch 1"><path class="cls-2" d="M0,445H720V0H0Z" transform="translate(0 0)"/></g><g id="axes_1" data-name="axes 1"><g id="patch_2" data-name="patch 2"><path class="cls-2" d="M90,396H648V53.4H90V396Z" transform="translate(0 0)"/></g><g id="patch_3" data-name="patch 3"><g class="cls-3"><path class="cls-1" d="M115.36,396H175v-.69H115.36Z" transform="translate(0 0)"/></g></g><g id="patch_4" data-name="patch 4"><g class="cls-3"><path class="cls-1" d="M190,396h59.68v-.69H190V396Z" transform="translate(0 0)"/></g></g><g id="patch_5" data-name="patch 5"><g class="cls-3"><path class="cls-1" d="M264.56,396h59.68v-.69H264.56Z" transform="translate(0 0)"/></g></g><g id="patch_6" data-name="patch 6"><g class="cls-3"><path class="cls-1" d="M339.16,396h59.68v-.69H339.16Z" transform="translate(0 0)"/></g></g><g id="patch_7" data-name="patch 7"><g class="cls-3"><path class="cls-1" d="M413.76,396h59.68v-.69H413.76Z" transform="translate(0 0)"/></g></g><g id="patch_8" data-name="patch 8"><g class="cls-3"><path class="cls-1" d="M488.36,396H548v-.69H488.36Z" transform="translate(0 0)"/></g></g><g id="patch_9" data-name="patch 9"><g class="cls-3"><path class="cls-1" d="M563,396h59.68v-.69H563Z" transform="translate(0 0)"/></g></g><g id="patch_10" data-name="patch 10"><g class="cls-3"><path class="cls-4" d="M126.55,396h37.3V242.87h-37.3Z" transform="translate(0 0)"/></g></g><g id="patch_11" data-name="patch 11"><g class="cls-3"><path class="cls-5" d="M126.55,242.79h37.3V176h-37.3v66.82Z" transform="translate(0 0)"/></g></g><g id="patch_12" data-name="patch 12"><g class="cls-3"><path class="cls-4" d="M201.15,396h37.3V258.24h-37.3Z" transform="translate(0 0)"/></g></g><g id="patch_13" data-name="patch 13"><g class="cls-3"><path class="cls-5" d="M201.15,258.17h37.3V146.32h-37.3Z" transform="translate(0 0)"/></g></g><g id="patch_14" data-name="patch 14"><g class="cls-3"><path class="cls-6" d="M275.75,396h37.3V207.15h-37.3Z" transform="translate(0 0)"/></g></g><g id="patch_15" data-name="patch 15"><g class="cls-3"><path class="cls-7" d="M275.75,207.07h37.3V195h-37.3Z" transform="translate(0 0)"/></g></g><g id="patch_16" data-name="patch 16"><g class="cls-3"><path class="cls-8" d="M275.75,194.94h37.3V117.16h-37.3Z" transform="translate(0 0)"/></g></g><g id="patch_17" data-name="patch 17"><g class="cls-3"><path class="cls-7" d="M275.75,117.08h37.3V69.71h-37.3Z" transform="translate(0 0)"/></g></g><g id="patch_18" data-name="patch 18"><g class="cls-3"><path class="cls-9" d="M350.35,396h37.3V194.73h-37.3Z" transform="translate(0 0)"/></g></g><g id="patch_19" data-name="patch 19"><g class="cls-3"><path class="cls-7" d="M425,396h37.3V346.09H425Z" transform="translate(0 0)"/></g></g><g id="patch_20" data-name="patch 20"><g class="cls-3"><path class="cls-6" d="M425,346h37.3V301.27H425Z" transform="translate(0 0)"/></g></g><g id="patch_21" data-name="patch 21"><g class="cls-3"><path class="cls-10" d="M425,301.2h37.3V122.53H425Z" transform="translate(0 0)"/></g></g><g id="patch_22" data-name="patch 22"><g class="cls-3"><path class="cls-8" d="M499.55,396h37.3V326h-37.3Z" transform="translate(0 0)"/></g></g><g id="patch_23" data-name="patch 23"><g class="cls-3"><path class="cls-7" d="M499.55,326h37.3V290.09h-37.3Z" transform="translate(0 0)"/></g></g><g id="patch_24" data-name="patch 24"><g class="cls-3"><path class="cls-8" d="M499.55,290h37.3V151.43h-37.3Z" transform="translate(0 0)"/></g></g><g id="patch_25" data-name="patch 25"><g class="cls-3"><path class="cls-11" d="M574.15,396h37.3V145.08h-37.3Z" transform="translate(0 0)"/></g></g></g></g><g id="figure_1-2" data-name="figure 1-2"><g id="patch_1-2" data-name="patch 1-2"><path class="cls-2" d="M.5,890h720V445H.5Z" transform="translate(0 0)"/></g><g id="axes_1-2" data-name="axes 1-2"><g id="patch_2-2" data-name="patch 2-2"><path class="cls-2" d="M90.5,841h558V498.41H90.5Z" transform="translate(0 0)"/></g><g id="patch_3-2" data-name="patch 3-2"><g class="cls-12"><path class="cls-1" d="M115.86,841h59.68v-.69H115.86Z" transform="translate(0 0)"/></g></g><g id="patch_4-2" data-name="patch 4-2"><g class="cls-12"><path class="cls-1" d="M190.46,841h59.68v-.69H190.46V841Z" transform="translate(0 0)"/></g></g><g id="patch_5-2" data-name="patch 5-2"><g class="cls-12"><path class="cls-1" d="M265.06,841h59.68v-.69H265.06Z" transform="translate(0 0)"/></g></g><g id="patch_6-2" data-name="patch 6-2"><g class="cls-12"><path class="cls-1" d="M339.66,841h59.68v-.69H339.66Z" transform="translate(0 0)"/></g></g><g id="patch_7-2" data-name="patch 7-2"><g class="cls-12"><path class="cls-1" d="M414.26,841h59.68v-.69H414.26Z" transform="translate(0 0)"/></g></g><g id="patch_8-2" data-name="patch 8-2"><g class="cls-12"><path class="cls-1" d="M488.86,841h59.68v-.69H488.86Z" transform="translate(0 0)"/></g></g><g id="patch_9-2" data-name="patch 9-2"><g class="cls-12"><path class="cls-1" d="M563.46,841h59.68v-.69H563.46Z" transform="translate(0 0)"/></g></g><g id="patch_10-2" data-name="patch 10-2"><g class="cls-12"><path class="cls-4" d="M127.05,841h37.3V687.89h-37.3Z" transform="translate(0 0)"/></g></g><g id="patch_11-2" data-name="patch 11-2"><g class="cls-12"><path class="cls-5" d="M127.05,687.81h37.3V621h-37.3Z" transform="translate(0 0)"/></g></g><g id="patch_12-2" data-name="patch 12-2"><g class="cls-12"><path class="cls-4" d="M201.65,841H239V703.26h-37.3Z" transform="translate(0 0)"/></g></g><g id="patch_13-2" data-name="patch 13-2"><g class="cls-12"><path class="cls-5" d="M201.65,703.19H239V591.34h-37.3Z" transform="translate(0 0)"/></g></g><g id="patch_14-2" data-name="patch 14-2"><g class="cls-12"><path class="cls-6" d="M276.25,841h37.3V651.41h-37.3Z" transform="translate(0 0)"/></g></g><g id="patch_15-2" data-name="patch 15-2"><g class="cls-12"><path class="cls-13" d="M276.25,651.33h37.3V640h-37.3Z" transform="translate(0 0)"/></g></g><g id="patch_16-2" data-name="patch 16-2"><g class="cls-12"><path class="cls-14" d="M276.25,640h37.3V514.73h-37.3Z" transform="translate(0 0)"/></g></g><g id="patch_17-2" data-name="patch 17-2"><g class="cls-12"><path class="cls-9" d="M350.85,841h37.3V639.75h-37.3Z" transform="translate(0 0)"/></g></g><g id="patch_18-2" data-name="patch 18-2"><g class="cls-12"><path class="cls-13" d="M425.45,841h37.3V791.11h-37.3Z" transform="translate(0 0)"/></g></g><g id="patch_19-2" data-name="patch 19-2"><g class="cls-12"><path class="cls-6" d="M425.45,791h37.3V746.22h-37.3Z" transform="translate(0 0)"/></g></g><g id="patch_20-2" data-name="patch 20-2"><g class="cls-12"><path class="cls-10" d="M425.45,746.15h37.3V567.55h-37.3Z" transform="translate(0 0)"/></g></g><g id="patch_21-2" data-name="patch 21-2"><g class="cls-12"><path class="cls-14" d="M500.05,841h37.3V771.12h-37.3Z" transform="translate(0 0)"/></g></g><g id="patch_22-2" data-name="patch 22-2"><g class="cls-12"><path class="cls-13" d="M500.05,771h37.3V596.44h-37.3V771Z" transform="translate(0 0)"/></g></g><g id="patch_23-2" data-name="patch 23-2"><g class="cls-12"><path class="cls-11" d="M574.65,841H612V590.1h-37.3Z" transform="translate(0 0)"/></g></g></g></g><g id="figure_1-3" data-name="figure 1-3"><g id="patch_1-3" data-name="patch 1-3"><path class="cls-2" d="M.5,1335h720V890H.5Z" transform="translate(0 0)"/></g><g id="axes_1-3" data-name="axes 1-3"><g id="patch_2-3" data-name="patch 2-3"><path class="cls-2" d="M90.5,1286h558V943.41H90.5Z" transform="translate(0 0)"/></g><g id="patch_3-3" data-name="patch 3-3"><g class="cls-15"><path class="cls-1" d="M115.86,1286h59.68v-.69H115.86Z" transform="translate(0 0)"/></g></g><g id="patch_4-3" data-name="patch 4-3"><g class="cls-15"><path class="cls-1" d="M190.46,1286h59.68v-.69H190.46v.69Z" transform="translate(0 0)"/></g></g><g id="patch_5-3" data-name="patch 5-3"><g class="cls-15"><path class="cls-1" d="M265.06,1286h59.68v-.69H265.06Z" transform="translate(0 0)"/></g></g><g id="patch_6-3" data-name="patch 6-3"><g class="cls-15"><path class="cls-1" d="M339.66,1286h59.68v-.69H339.66Z" transform="translate(0 0)"/></g></g><g id="patch_7-3" data-name="patch 7-3"><g class="cls-15"><path class="cls-1" d="M414.26,1286h59.68v-.69H414.26Z" transform="translate(0 0)"/></g></g><g id="patch_8-3" data-name="patch 8-3"><g class="cls-15"><path class="cls-1" d="M488.86,1286h59.68v-.69H488.86Z" transform="translate(0 0)"/></g></g><g id="patch_9-3" data-name="patch 9-3"><g class="cls-15"><path class="cls-1" d="M563.46,1286h59.68v-.69H563.46Z" transform="translate(0 0)"/></g></g><g id="patch_10-3" data-name="patch 10-3"><g class="cls-15"><path class="cls-4" d="M127.05,1286h37.3V1132.89h-37.3Z" transform="translate(0 0)"/></g></g><g id="patch_11-3" data-name="patch 11-3"><g class="cls-15"><path class="cls-5" d="M127.05,1132.81h37.3V1066h-37.3Z" transform="translate(0 0)"/></g></g><g id="patch_12-3" data-name="patch 12-3"><g class="cls-15"><path class="cls-4" d="M201.65,1286H239V1148.26h-37.3Z" transform="translate(0 0)"/></g></g><g id="patch_13-3" data-name="patch 13-3"><g class="cls-15"><path class="cls-5" d="M201.65,1148.19H239V1036.34h-37.3Z" transform="translate(0 0)"/></g></g><g id="patch_14-3" data-name="patch 14-3"><g class="cls-15"><path class="cls-6" d="M276.25,1286h37.3V1096.41h-37.3Z" transform="translate(0 0)"/></g></g><g id="patch_15-3" data-name="patch 15-3"><g class="cls-15"><path class="cls-16" d="M276.25,1096.33h37.3V959.73h-37.3Z" transform="translate(0 0)"/></g></g><g id="patch_16-3" data-name="patch 16-3"><g class="cls-15"><path class="cls-9" d="M350.85,1286h37.3V1084.75h-37.3Z" transform="translate(0 0)"/></g></g><g id="patch_17-3" data-name="patch 17-3"><g class="cls-15"><path class="cls-16" d="M425.45,1286h37.3v-49.86h-37.3Z" transform="translate(0 0)"/></g></g><g id="patch_18-3" data-name="patch 18-3"><g class="cls-15"><path class="cls-6" d="M425.45,1236h37.3v-44.75h-37.3Z" transform="translate(0 0)"/></g></g><g id="patch_19-3" data-name="patch 19-3"><g class="cls-15"><path class="cls-10" d="M425.45,1191.22h37.3V1012.55h-37.3Z" transform="translate(0 0)"/></g></g><g id="patch_20-3" data-name="patch 20-3"><g class="cls-15"><path class="cls-17" d="M500.05,1286h37.3V1041.45h-37.3Z" transform="translate(0 0)"/></g></g><g id="patch_21-3" data-name="patch 21-3"><g class="cls-15"><path class="cls-11" d="M574.65,1286H612V1035.1h-37.3Z" transform="translate(0 0)"/></g></g></g></g><g class="cls-18"><text class="cls-19" transform="translate(177.42 869.52)">AKI mapped to</text></g><g class="cls-18"><text class="cls-20" transform="translate(342.85 869.52)">Boechera stricta</text></g><g class="cls-18"><text class="cls-19" transform="translate(185.44 1311)">tAKI mapped to</text></g><g class="cls-18"><text class="cls-20" transform="translate(357.54 1311)">Boechera stricta</text></g><g class="cls-18"><text class="cls-19" transform="translate(177.39 419.97)">ACBK mapped to</text></g><g class="cls-18"><text class="cls-20" transform="translate(369.5 419.97)">Boechera stricta</text></g></svg>