<?xml version="1.0" encoding="UTF-8"?>
<svg id="_图层_1" data-name="图层 1" xmlns="http://www.w3.org/2000/svg" xmlns:xlink="http://www.w3.org/1999/xlink" viewBox="0 0 720 888.98">
  <defs>
    <style>
      .cls-1 {
        font-family: ArialMT, Arial;
      }

      .cls-1, .cls-2, .cls-3 {
        isolation: isolate;
      }

      .cls-1, .cls-3 {
        font-size: 24px;
      }

      .cls-4 {
        clip-path: url(#clippath-20);
      }

      .cls-5 {
        clip-path: url(#clippath-11);
      }

      .cls-6 {
        clip-path: url(#clippath-16);
      }

      .cls-7 {
        fill: #fff;
      }

      .cls-8 {
        fill: #fcbcd7;
      }

      .cls-9 {
        clip-path: url(#clippath-2);
      }

      .cls-10 {
        clip-path: url(#clippath-13);
      }

      .cls-11 {
        clip-path: url(#clippath-25);
      }

      .cls-12 {
        fill: #c765a3;
      }

      .cls-13 {
        clip-path: url(#clippath-15);
      }

      .cls-14 {
        clip-path: url(#clippath-6);
      }

      .cls-15 {
        clip-path: url(#clippath-26);
      }

      .cls-16 {
        clip-path: url(#clippath-7);
      }

      .cls-17 {
        clip-path: url(#clippath-21);
      }

      .cls-18 {
        clip-path: url(#clippath-1);
      }

      .cls-19 {
        clip-path: url(#clippath-4);
      }

      .cls-20 {
        clip-path: url(#clippath-27);
      }

      .cls-21 {
        clip-path: url(#clippath-12);
      }

      .cls-22 {
        clip-path: url(#clippath-24);
      }

      .cls-23 {
        fill: #eee950;
      }

      .cls-24 {
        clip-path: url(#clippath-22);
      }

      .cls-25 {
        fill: #4aa45b;
      }

      .cls-26 {
        fill: #834127;
      }

      .cls-27 {
        clip-path: url(#clippath-9);
      }

      .cls-28 {
        clip-path: url(#clippath);
      }

      .cls-3 {
        font-family: Arial-ItalicMT, Arial;
        font-style: italic;
      }

      .cls-29 {
        fill: none;
      }

      .cls-30 {
        clip-path: url(#clippath-19);
      }

      .cls-31 {
        clip-path: url(#clippath-3);
      }

      .cls-32 {
        clip-path: url(#clippath-8);
      }

      .cls-33 {
        fill: #d8473d;
      }

      .cls-34 {
        fill: #3d55a0;
      }

      .cls-35 {
        clip-path: url(#clippath-18);
      }

      .cls-36 {
        clip-path: url(#clippath-14);
      }

      .cls-37 {
        clip-path: url(#clippath-17);
      }

      .cls-38 {
        clip-path: url(#clippath-5);
      }

      .cls-39 {
        fill: #e2974f;
      }

      .cls-40 {
        clip-path: url(#clippath-10);
      }

      .cls-41 {
        clip-path: url(#clippath-23);
      }

      .cls-42 {
        fill: #ffbe7a;
      }
    </style>
    <clipPath id="clippath">
      <rect class="cls-29" x="90" y="53.4" width="558" height="342.62"/>
    </clipPath>
    <clipPath id="clippath-1">
      <rect class="cls-29" x="90" y="53.4" width="558" height="342.62"/>
    </clipPath>
    <clipPath id="clippath-2">
      <rect class="cls-29" x="90" y="53.4" width="558" height="342.62"/>
    </clipPath>
    <clipPath id="clippath-3">
      <rect class="cls-29" x="90" y="53.4" width="558" height="342.62"/>
    </clipPath>
    <clipPath id="clippath-4">
      <rect class="cls-29" x="90" y="53.4" width="558" height="342.62"/>
    </clipPath>
    <clipPath id="clippath-5">
      <rect class="cls-29" x="90" y="53.4" width="558" height="342.62"/>
    </clipPath>
    <clipPath id="clippath-6">
      <rect class="cls-29" x="90" y="53.4" width="558" height="342.62"/>
    </clipPath>
    <clipPath id="clippath-7">
      <rect class="cls-29" x="90" y="53.4" width="558" height="342.62"/>
    </clipPath>
    <clipPath id="clippath-8">
      <rect class="cls-29" x="90" y="53.4" width="558" height="342.62"/>
    </clipPath>
    <clipPath id="clippath-9">
      <rect class="cls-29" x="90" y="53.4" width="558" height="342.62"/>
    </clipPath>
    <clipPath id="clippath-10">
      <rect class="cls-29" x="90" y="53.4" width="558" height="342.62"/>
    </clipPath>
    <clipPath id="clippath-11">
      <rect class="cls-29" x="90" y="53.4" width="558" height="342.62"/>
    </clipPath>
    <clipPath id="clippath-12">
      <rect class="cls-29" x="90" y="53.4" width="558" height="342.62"/>
    </clipPath>
    <clipPath id="clippath-13">
      <rect class="cls-29" x="90" y="53.4" width="558" height="342.62"/>
    </clipPath>
    <clipPath id="clippath-14">
      <rect class="cls-29" x="90" y="53.4" width="558" height="342.62"/>
    </clipPath>
    <clipPath id="clippath-15">
      <rect class="cls-29" x="90" y="497.42" width="558" height="342.62"/>
    </clipPath>
    <clipPath id="clippath-16">
      <rect class="cls-29" x="90" y="497.42" width="558" height="342.62"/>
    </clipPath>
    <clipPath id="clippath-17">
      <rect class="cls-29" x="90" y="497.42" width="558" height="342.62"/>
    </clipPath>
    <clipPath id="clippath-18">
      <rect class="cls-29" x="90" y="497.42" width="558" height="342.62"/>
    </clipPath>
    <clipPath id="clippath-19">
      <rect class="cls-29" x="90" y="497.42" width="558" height="342.62"/>
    </clipPath>
    <clipPath id="clippath-20">
      <rect class="cls-29" x="90" y="497.42" width="558" height="342.62"/>
    </clipPath>
    <clipPath id="clippath-21">
      <rect class="cls-29" x="90" y="497.42" width="558" height="342.62"/>
    </clipPath>
    <clipPath id="clippath-22">
      <rect class="cls-29" x="90" y="497.42" width="558" height="342.62"/>
    </clipPath>
    <clipPath id="clippath-23">
      <rect class="cls-29" x="90" y="497.42" width="558" height="342.62"/>
    </clipPath>
    <clipPath id="clippath-24">
      <rect class="cls-29" x="90" y="497.42" width="558" height="342.62"/>
    </clipPath>
    <clipPath id="clippath-25">
      <rect class="cls-29" x="90" y="497.42" width="558" height="342.62"/>
    </clipPath>
    <clipPath id="clippath-26">
      <rect class="cls-29" x="90" y="497.42" width="558" height="342.62"/>
    </clipPath>
    <clipPath id="clippath-27">
      <rect class="cls-29" x="90" y="497.42" width="558" height="342.62"/>
    </clipPath>
  </defs>
  <g id="figure_1" data-name="figure 1">
    <g id="patch_1" data-name="patch 1">
      <path class="cls-7" d="m0,444.96h720V0H0v444.96Z"/>
    </g>
    <g id="axes_1" data-name="axes 1">
      <g id="patch_2" data-name="patch 2">
        <path class="cls-7" d="m90,396.01h558V53.4H90v342.62Z"/>
      </g>
      <g id="patch_3" data-name="patch 3">
        <g class="cls-28">
          <path class="cls-29" d="m115.36,396.01h69.97v-.62h-69.97v.62Z"/>
        </g>
      </g>
      <g id="patch_4" data-name="patch 4">
        <g class="cls-18">
          <path class="cls-29" d="m202.82,396.01h69.97v-.62h-69.97v.62Z"/>
        </g>
      </g>
      <g id="patch_5" data-name="patch 5">
        <g class="cls-9">
          <path class="cls-29" d="m290.29,396.01h69.97v-.62h-69.97v.62Z"/>
        </g>
      </g>
      <g id="patch_6" data-name="patch 6">
        <g class="cls-31">
          <path class="cls-29" d="m377.75,396.01h69.97v-.62h-69.97v.62Z"/>
        </g>
      </g>
      <g id="patch_7" data-name="patch 7">
        <g class="cls-19">
          <path class="cls-29" d="m465.21,396.01h69.97v-.62h-69.97v.62Z"/>
        </g>
      </g>
      <g id="patch_8" data-name="patch 8">
        <g class="cls-38">
          <path class="cls-29" d="m552.67,396.01h69.97v-.62h-69.97v.62Z"/>
        </g>
      </g>
      <g id="patch_9" data-name="patch 9">
        <g class="cls-14">
          <path class="cls-23" d="m128.48,395.95h43.73v-250.56h-43.73v250.56Z"/>
        </g>
      </g>
      <g id="patch_10" data-name="patch 10">
        <g class="cls-16">
          <path class="cls-12" d="m215.94,395.95h43.73v-174.32h-43.73v174.32Z"/>
        </g>
      </g>
      <g id="patch_11" data-name="patch 11">
        <g class="cls-32">
          <path class="cls-25" d="m303.4,395.95h43.73v-217.62h-43.73v217.62Z"/>
        </g>
      </g>
      <g id="patch_12" data-name="patch 12">
        <g class="cls-27">
          <path class="cls-26" d="m390.87,395.95h43.73v-244.07h-43.73v244.07Z"/>
        </g>
      </g>
      <g id="patch_13" data-name="patch 13">
        <g class="cls-40">
          <path class="cls-39" d="m478.33,395.95h43.73v-34.69h-43.73v34.69Z"/>
        </g>
      </g>
      <g id="patch_14" data-name="patch 14">
        <g class="cls-5">
          <path class="cls-8" d="m478.33,361.2h43.73v-126.34h-43.73v126.34Z"/>
        </g>
      </g>
      <g id="patch_15" data-name="patch 15">
        <g class="cls-21">
          <path class="cls-39" d="m478.33,234.8h43.73v-116.48h-43.73v116.48Z"/>
        </g>
      </g>
      <g id="patch_16" data-name="patch 16">
        <g class="cls-10">
          <path class="cls-33" d="m565.79,395.95h43.73v-128.77h-43.73v128.77Z"/>
        </g>
      </g>
      <g id="patch_17" data-name="patch 17">
        <g class="cls-36">
          <path class="cls-34" d="m565.79,267.11h43.73V69.71h-43.73v197.4Z"/>
        </g>
      </g>
    </g>
  </g>
  <g id="figure_1-2" data-name="figure 1">
    <g id="patch_1-2" data-name="patch 1">
      <path class="cls-7" d="m0,888.98h720v-444.96H0v444.96Z"/>
    </g>
    <g id="axes_1-2" data-name="axes 1">
      <g id="patch_2-2" data-name="patch 2">
        <path class="cls-7" d="m90,840.03h558v-342.62H90v342.62Z"/>
      </g>
      <g id="patch_3-2" data-name="patch 3">
        <g class="cls-13">
          <path class="cls-29" d="m115.36,840.03h69.97v-.62h-69.97v.62Z"/>
        </g>
      </g>
      <g id="patch_4-2" data-name="patch 4">
        <g class="cls-6">
          <path class="cls-29" d="m202.82,840.03h69.97v-.62h-69.97v.62Z"/>
        </g>
      </g>
      <g id="patch_5-2" data-name="patch 5">
        <g class="cls-37">
          <path class="cls-29" d="m290.29,840.03h69.97v-.62h-69.97v.62Z"/>
        </g>
      </g>
      <g id="patch_6-2" data-name="patch 6">
        <g class="cls-35">
          <path class="cls-29" d="m377.75,840.03h69.97v-.62h-69.97v.62Z"/>
        </g>
      </g>
      <g id="patch_7-2" data-name="patch 7">
        <g class="cls-30">
          <path class="cls-29" d="m465.21,840.03h69.97v-.62h-69.97v.62Z"/>
        </g>
      </g>
      <g id="patch_8-2" data-name="patch 8">
        <g class="cls-4">
          <path class="cls-29" d="m552.67,840.03h69.97v-.62h-69.97v.62Z"/>
        </g>
      </g>
      <g id="patch_9-2" data-name="patch 9">
        <g class="cls-17">
          <path class="cls-23" d="m128.48,839.97h43.73v-250.56h-43.73v250.56Z"/>
        </g>
      </g>
      <g id="patch_10-2" data-name="patch 10">
        <g class="cls-24">
          <path class="cls-12" d="m215.94,839.97h43.73v-174.32h-43.73v174.32Z"/>
        </g>
      </g>
      <g id="patch_11-2" data-name="patch 11">
        <g class="cls-41">
          <path class="cls-25" d="m303.4,839.97h43.73v-217.62h-43.73v217.62Z"/>
        </g>
      </g>
      <g id="patch_12-2" data-name="patch 12">
        <g class="cls-22">
          <path class="cls-26" d="m390.87,839.97h43.73v-244.07h-43.73v244.07Z"/>
        </g>
      </g>
      <g id="patch_13-2" data-name="patch 13">
        <g class="cls-11">
          <path class="cls-42" d="m478.33,839.97h43.73v-277.64h-43.73v277.64Z"/>
        </g>
      </g>
      <g id="patch_14-2" data-name="patch 14">
        <g class="cls-15">
          <path class="cls-33" d="m565.79,839.97h43.73v-128.77h-43.73v128.77Z"/>
        </g>
      </g>
      <g id="patch_15-2" data-name="patch 15">
        <g class="cls-20">
          <path class="cls-34" d="m565.79,711.13h43.73v-197.4h-43.73v197.4Z"/>
        </g>
      </g>
    </g>
  </g>
  <g class="cls-2">
    <text class="cls-1" transform="translate(176.92 875.64)"><tspan x="0" y="0">AKII mapped to </tspan></text>
    <text class="cls-3" transform="translate(342.35 875.64)"><tspan x="0" y="0" xml:space="preserve"> Megadenia pygmaea</tspan></text>
  </g>
  <g>
    <g class="cls-2">
      <text class="cls-1" transform="translate(176.89 426.09)"><tspan x="0" y="0">ACBK mapped to</tspan></text>
    </g>
    <g class="cls-2">
      <text class="cls-3" transform="translate(369 426.09)"><tspan x="0" y="0">Megadenia pygmaea</tspan></text>
    </g>
  </g>
</svg>