<svg id="_图层_1" data-name=" 图层 1" xmlns="http://www.w3.org/2000/svg" xmlns:xlink="http://www.w3.org/1999/xlink" viewBox="0 0 720.5 1332.98"><defs><style>.cls-1{fill:none;}.cls-2{fill:#fff;}.cls-3{clip-path:url(#clip-path);}.cls-4{fill:#eee950;}.cls-5{fill:#4aa45b;}.cls-6{fill:#834127;}.cls-7{fill:#fcbcd7;}.cls-8{fill:#d8473d;}.cls-9{fill:#3d55a0;}.cls-10{fill:#c765a3;}.cls-11{fill:#e2974f;}.cls-12{clip-path:url(#clip-path-24);}.cls-13{fill:#b8b4a1;}.cls-14{fill:#437579;}.cls-15{clip-path:url(#clip-path-46);}.cls-16{fill:#9ac9db;}.cls-17{fill:#f0768b;}.cls-18,.cls-19,.cls-20{isolation:isolate;}.cls-19,.cls-20{font-size:24px;}.cls-19{font-family:ArialMT, Arial;}.cls-20{font-family:Arial-ItalicMT, Arial;font-style:italic;}</style><clipPath id="clip-path" transform="translate(0 0)"><rect class="cls-1" x="90" y="53.4" width="558" height="342.62"/></clipPath><clipPath id="clip-path-24" transform="translate(0 0)"><rect class="cls-1" x="90.5" y="498.42" width="558" height="342.62"/></clipPath><clipPath id="clip-path-46" transform="translate(0 0)"><rect class="cls-1" x="90.5" y="941.42" width="558" height="342.62"/></clipPath></defs><title>Erysimum_cheiranthoides.karyotype</title><g id="figure_1" data-name="figure 1"><g id="patch_1" data-name="patch 1"><path class="cls-2" d="M0,445H720V0H0Z" transform="translate(0 0)"/></g><g id="axes_1" data-name="axes 1"><g id="patch_2" data-name="patch 2"><path class="cls-2" d="M90,396H648V53.4H90V396Z" transform="translate(0 0)"/></g><g id="patch_3" data-name="patch 3"><g class="cls-3"><path class="cls-1" d="M115.36,396h52v-.92h-52Z" transform="translate(0 0)"/></g></g><g id="patch_4" data-name="patch 4"><g class="cls-3"><path class="cls-1" d="M180.4,396h52v-.92h-52Z" transform="translate(0 0)"/></g></g><g id="patch_5" data-name="patch 5"><g class="cls-3"><path class="cls-1" d="M245.43,396h52v-.92h-52Z" transform="translate(0 0)"/></g></g><g id="patch_6" data-name="patch 6"><g class="cls-3"><path class="cls-1" d="M310.47,396h52v-.92h-52Z" transform="translate(0 0)"/></g></g><g id="patch_7" data-name="patch 7"><g class="cls-3"><path class="cls-1" d="M375.5,396h52v-.92h-52Z" transform="translate(0 0)"/></g></g><g id="patch_8" data-name="patch 8"><g class="cls-3"><path class="cls-1" d="M440.54,396h52v-.92h-52Z" transform="translate(0 0)"/></g></g><g id="patch_9" data-name="patch 9"><g class="cls-3"><path class="cls-1" d="M505.57,396h52v-.92h-52V396Z" transform="translate(0 0)"/></g></g><g id="patch_10" data-name="patch 10"><g class="cls-3"><path class="cls-1" d="M570.61,396h52v-.92h-52Z" transform="translate(0 0)"/></g></g><g id="patch_11" data-name="patch 11"><g class="cls-3"><path class="cls-4" d="M125.12,395.92h32.52V69.71H125.12V395.92Z" transform="translate(0 0)"/></g></g><g id="patch_12" data-name="patch 12"><g class="cls-3"><path class="cls-5" d="M190.15,395.92h32.52V346.35H190.15Z" transform="translate(0 0)"/></g></g><g id="patch_13" data-name="patch 13"><g class="cls-3"><path class="cls-4" d="M190.15,346.26h32.52v-7.48H190.15Z" transform="translate(0 0)"/></g></g><g id="patch_14" data-name="patch 14"><g class="cls-3"><path class="cls-5" d="M190.15,338.69h32.52V124.17H190.15Z" transform="translate(0 0)"/></g></g><g id="patch_15" data-name="patch 15"><g class="cls-3"><path class="cls-6" d="M255.19,395.92h32.52V237H255.19v159Z" transform="translate(0 0)"/></g></g><g id="patch_16" data-name="patch 16"><g class="cls-3"><path class="cls-7" d="M255.19,236.88h32.52V193.77H255.19v43.11Z" transform="translate(0 0)"/></g></g><g id="patch_17" data-name="patch 17"><g class="cls-3"><path class="cls-6" d="M255.19,193.68h32.52V123.07H255.19v70.61Z" transform="translate(0 0)"/></g></g><g id="patch_18" data-name="patch 18"><g class="cls-3"><path class="cls-8" d="M320.22,395.92h32.52v-194H320.22Z" transform="translate(0 0)"/></g></g><g id="patch_19" data-name="patch 19"><g class="cls-3"><path class="cls-9" d="M385.26,395.92h32.52V140.32H385.26Z" transform="translate(0 0)"/></g></g><g id="patch_20" data-name="patch 20"><g class="cls-3"><path class="cls-6" d="M450.29,395.92h32.52v-74H450.29Z" transform="translate(0 0)"/></g></g><g id="patch_21" data-name="patch 21"><g class="cls-3"><path class="cls-7" d="M450.29,321.8h32.52V220.72H450.29Z" transform="translate(0 0)"/></g></g><g id="patch_22" data-name="patch 22"><g class="cls-3"><path class="cls-6" d="M450.29,220.63h32.52V197H450.29Z" transform="translate(0 0)"/></g></g><g id="patch_23" data-name="patch 23"><g class="cls-3"><path class="cls-7" d="M450.29,196.91h32.52V179.65H450.29Z" transform="translate(0 0)"/></g></g><g id="patch_24" data-name="patch 24"><g class="cls-3"><path class="cls-10" d="M515.33,395.92h32.52V163.49H515.33Z" transform="translate(0 0)"/></g></g><g id="patch_25" data-name="patch 25"><g class="cls-3"><path class="cls-11" d="M580.36,395.92h32.52V188.6H580.36Z" transform="translate(0 0)"/></g></g></g></g><g id="figure_1-2" data-name="figure 1-2"><g id="patch_1-2" data-name="patch 1-2"><path class="cls-2" d="M.5,890h720V445H.5Z" transform="translate(0 0)"/></g><g id="axes_1-2" data-name="axes 1-2"><g id="patch_2-2" data-name="patch 2-2"><path class="cls-2" d="M90.5,841h558V498.41H90.5Z" transform="translate(0 0)"/></g><g id="patch_3-2" data-name="patch 3-2"><g class="cls-12"><path class="cls-1" d="M115.86,841h52v-.92h-52Z" transform="translate(0 0)"/></g></g><g id="patch_4-2" data-name="patch 4-2"><g class="cls-12"><path class="cls-1" d="M180.9,841h52v-.92h-52Z" transform="translate(0 0)"/></g></g><g id="patch_5-2" data-name="patch 5-2"><g class="cls-12"><path class="cls-1" d="M245.93,841h52v-.92h-52Z" transform="translate(0 0)"/></g></g><g id="patch_6-2" data-name="patch 6-2"><g class="cls-12"><path class="cls-1" d="M311,841h52v-.92H311Z" transform="translate(0 0)"/></g></g><g id="patch_7-2" data-name="patch 7-2"><g class="cls-12"><path class="cls-1" d="M376,841h52v-.92H376Z" transform="translate(0 0)"/></g></g><g id="patch_8-2" data-name="patch 8-2"><g class="cls-12"><path class="cls-1" d="M441,841h52v-.92H441Z" transform="translate(0 0)"/></g></g><g id="patch_9-2" data-name="patch 9-2"><g class="cls-12"><path class="cls-1" d="M506.07,841h52v-.92h-52V841Z" transform="translate(0 0)"/></g></g><g id="patch_10-2" data-name="patch 10-2"><g class="cls-12"><path class="cls-1" d="M571.11,841h52v-.92h-52Z" transform="translate(0 0)"/></g></g><g id="patch_11-2" data-name="patch 11-2"><g class="cls-12"><path class="cls-4" d="M125.62,840.94h32.52V514.73H125.62V840.94Z" transform="translate(0 0)"/></g></g><g id="patch_12-2" data-name="patch 12-2"><g class="cls-12"><path class="cls-5" d="M190.65,840.94h32.52V792.11H190.65Z" transform="translate(0 0)"/></g></g><g id="patch_13-2" data-name="patch 13-2"><g class="cls-12"><path class="cls-4" d="M190.65,792h32.52V783.8H190.65Z" transform="translate(0 0)"/></g></g><g id="patch_14-2" data-name="patch 14-2"><g class="cls-12"><path class="cls-5" d="M190.65,783.71h32.52V569.19H190.65Z" transform="translate(0 0)"/></g></g><g id="patch_15-2" data-name="patch 15-2"><g class="cls-12"><path class="cls-13" d="M255.69,840.94h32.52V639.71H255.69V840.94Z" transform="translate(0 0)"/></g></g><g id="patch_16-2" data-name="patch 16-2"><g class="cls-12"><path class="cls-14" d="M255.69,639.62h32.52V568.08H255.69v71.54Z" transform="translate(0 0)"/></g></g><g id="patch_17-2" data-name="patch 17-2"><g class="cls-12"><path class="cls-8" d="M320.72,840.94h32.52v-194H320.72v194Z" transform="translate(0 0)"/></g></g><g id="patch_18-2" data-name="patch 18-2"><g class="cls-12"><path class="cls-9" d="M385.76,840.94h32.52V585.34H385.76v255.6Z" transform="translate(0 0)"/></g></g><g id="patch_19-2" data-name="patch 19-2"><g class="cls-12"><path class="cls-14" d="M450.79,840.94h32.52V722.79H450.79Z" transform="translate(0 0)"/></g></g><g id="patch_20-2" data-name="patch 20-2"><g class="cls-12"><path class="cls-13" d="M450.79,722.7h32.52v-57H450.79Z" transform="translate(0 0)"/></g></g><g id="patch_21-2" data-name="patch 21-2"><g class="cls-12"><path class="cls-14" d="M450.79,665.65h32.52V642.3H450.79Z" transform="translate(0 0)"/></g></g><g id="patch_22-2" data-name="patch 22-2"><g class="cls-12"><path class="cls-13" d="M450.79,642.21h32.52V624.67H450.79Z" transform="translate(0 0)"/></g></g><g id="patch_23-2" data-name="patch 23-2"><g class="cls-12"><path class="cls-10" d="M515.83,840.94h32.52V608.51H515.83Z" transform="translate(0 0)"/></g></g><g id="patch_24-2" data-name="patch 24-2"><g class="cls-12"><path class="cls-11" d="M580.86,840.94h32.52V633.62H580.86Z" transform="translate(0 0)"/></g></g></g></g><g id="figure_1-3" data-name="figure 1-3"><g id="patch_1-3" data-name="patch 1-3"><path class="cls-2" d="M.5,1333h720V888H.5Z" transform="translate(0 0)"/></g><g id="axes_1-3" data-name="axes 1-3"><g id="patch_2-3" data-name="patch 2-3"><path class="cls-2" d="M90.5,1284h558V941.41H90.5Z" transform="translate(0 0)"/></g><g id="patch_3-3" data-name="patch 3-3"><g class="cls-15"><path class="cls-1" d="M115.86,1284h52v-.92h-52Z" transform="translate(0 0)"/></g></g><g id="patch_4-3" data-name="patch 4-3"><g class="cls-15"><path class="cls-1" d="M180.9,1284h52v-.92h-52Z" transform="translate(0 0)"/></g></g><g id="patch_5-3" data-name="patch 5-3"><g class="cls-15"><path class="cls-1" d="M245.93,1284h52v-.92h-52Z" transform="translate(0 0)"/></g></g><g id="patch_6-3" data-name="patch 6-3"><g class="cls-15"><path class="cls-1" d="M311,1284h52v-.92H311Z" transform="translate(0 0)"/></g></g><g id="patch_7-3" data-name="patch 7-3"><g class="cls-15"><path class="cls-1" d="M376,1284h52v-.92H376Z" transform="translate(0 0)"/></g></g><g id="patch_8-3" data-name="patch 8-3"><g class="cls-15"><path class="cls-1" d="M441,1284h52v-.92H441Z" transform="translate(0 0)"/></g></g><g id="patch_9-3" data-name="patch 9-3"><g class="cls-15"><path class="cls-1" d="M506.07,1284h52v-.92h-52v.92Z" transform="translate(0 0)"/></g></g><g id="patch_10-3" data-name="patch 10-3"><g class="cls-15"><path class="cls-1" d="M571.11,1284h52v-.92h-52Z" transform="translate(0 0)"/></g></g><g id="patch_11-3" data-name="patch 11-3"><g class="cls-15"><path class="cls-4" d="M125.62,1283.94h32.52V957.73H125.62Z" transform="translate(0 0)"/></g></g><g id="patch_12-3" data-name="patch 12-3"><g class="cls-15"><path class="cls-5" d="M190.65,1283.94h32.52v-48.83H190.65Z" transform="translate(0 0)"/></g></g><g id="patch_13-3" data-name="patch 13-3"><g class="cls-15"><path class="cls-4" d="M190.65,1235h32.52v-8.22H190.65Z" transform="translate(0 0)"/></g></g><g id="patch_14-3" data-name="patch 14-3"><g class="cls-15"><path class="cls-5" d="M190.65,1226.71h32.52V1012.19H190.65Z" transform="translate(0 0)"/></g></g><g id="patch_15-3" data-name="patch 15-3"><g class="cls-15"><path class="cls-16" d="M255.69,1283.94h32.52V1011.08H255.69v272.86Z" transform="translate(0 0)"/></g></g><g id="patch_16-3" data-name="patch 16-3"><g class="cls-15"><path class="cls-8" d="M320.72,1283.94h32.52v-194H320.72Z" transform="translate(0 0)"/></g></g><g id="patch_17-3" data-name="patch 17-3"><g class="cls-15"><path class="cls-9" d="M385.76,1283.94h32.52v-255.6H385.76Z" transform="translate(0 0)"/></g></g><g id="patch_18-3" data-name="patch 18-3"><g class="cls-15"><path class="cls-17" d="M450.79,1283.94h32.52V1067.67H450.79Z" transform="translate(0 0)"/></g></g><g id="patch_19-3" data-name="patch 19-3"><g class="cls-15"><path class="cls-10" d="M515.83,1283.94h32.52V1051.51H515.83Z" transform="translate(0 0)"/></g></g><g id="patch_20-3" data-name="patch 20-3"><g class="cls-15"><path class="cls-11" d="M580.86,1283.94h32.52V1076.62H580.86Z" transform="translate(0 0)"/></g></g></g></g><g class="cls-18"><text class="cls-19" transform="translate(152.38 873.35)">AKI mapped to</text></g><g class="cls-18"><text class="cls-20" transform="translate(317.81 873.35)">Erysimum cheiranthoides</text></g><g class="cls-18"><text class="cls-19" transform="translate(144.68 1309.02)">tAKI mapped to</text></g><g class="cls-18"><text class="cls-20" transform="translate(316.78 1309.02)">Erysimum cheiranthoides</text></g><g class="cls-18"><text class="cls-19" transform="translate(144.68 423.8)">ACBK mapped to</text></g><g class="cls-18"><text class="cls-20" transform="translate(336.79 423.8)">Erysimum cheiranthoides</text></g></svg>