<svg id="_图层_1" data-name=" 图层 1" xmlns="http://www.w3.org/2000/svg" xmlns:xlink="http://www.w3.org/1999/xlink" viewBox="0 0 720.5 1335.98"><defs><style>.cls-1{fill:none;}.cls-2{fill:#fff;}.cls-3{clip-path:url(#clip-path);}.cls-4{fill:#eee950;}.cls-5{fill:#d8473d;}.cls-6{fill:#fcbcd7;}.cls-7{fill:#834127;}.cls-8{fill:#3d55a0;}.cls-9{fill:#c765a3;}.cls-10{fill:#e2974f;}.cls-11{fill:#4aa45b;}.cls-12{clip-path:url(#clip-path-28);}.cls-13{fill:#b8b4a1;}.cls-14{fill:#437579;}.cls-15{clip-path:url(#clip-path-53);}.cls-16{fill:#f0768b;}.cls-17{fill:#9ac9db;}.cls-18,.cls-19,.cls-20{isolation:isolate;}.cls-19,.cls-20{font-size:24px;}.cls-19{font-family:ArialMT, Arial;}.cls-20{font-family:Arial-ItalicMT, Arial;font-style:italic;}</style><clipPath id="clip-path" transform="translate(0 0)"><rect class="cls-1" x="90" y="53.4" width="558" height="342.62"/></clipPath><clipPath id="clip-path-28" transform="translate(0 0)"><rect class="cls-1" x="90" y="498.42" width="558" height="342.62"/></clipPath><clipPath id="clip-path-53" transform="translate(0 0)"><rect class="cls-1" x="90.5" y="944.42" width="558" height="342.62"/></clipPath></defs><title>Boechera_divaricarpa.karyotype</title><g id="figure_1" data-name="figure 1"><g id="patch_1" data-name="patch 1"><path class="cls-2" d="M0,445H720V0H0Z" transform="translate(0 0)"/></g><g id="axes_1" data-name="axes 1"><g id="patch_2" data-name="patch 2"><path class="cls-2" d="M90,396H648V53.4H90V396Z" transform="translate(0 0)"/></g><g id="patch_3" data-name="patch 3"><g class="cls-3"><path class="cls-1" d="M115.36,396H175v-.67H115.36Z" transform="translate(0 0)"/></g></g><g id="patch_4" data-name="patch 4"><g class="cls-3"><path class="cls-1" d="M190,396h59.68v-.67H190V396Z" transform="translate(0 0)"/></g></g><g id="patch_5" data-name="patch 5"><g class="cls-3"><path class="cls-1" d="M264.56,396h59.68v-.67H264.56Z" transform="translate(0 0)"/></g></g><g id="patch_6" data-name="patch 6"><g class="cls-3"><path class="cls-1" d="M339.16,396h59.68v-.67H339.16Z" transform="translate(0 0)"/></g></g><g id="patch_7" data-name="patch 7"><g class="cls-3"><path class="cls-1" d="M413.76,396h59.68v-.67H413.76Z" transform="translate(0 0)"/></g></g><g id="patch_8" data-name="patch 8"><g class="cls-3"><path class="cls-1" d="M488.36,396H548v-.67H488.36Z" transform="translate(0 0)"/></g></g><g id="patch_9" data-name="patch 9"><g class="cls-3"><path class="cls-1" d="M563,396h59.68v-.67H563Z" transform="translate(0 0)"/></g></g><g id="patch_10" data-name="patch 10"><g class="cls-3"><path class="cls-4" d="M126.55,396h37.3V366.16h-37.3Z" transform="translate(0 0)"/></g></g><g id="patch_11" data-name="patch 11"><g class="cls-3"><path class="cls-5" d="M126.55,366.09h37.3V304.78h-37.3Z" transform="translate(0 0)"/></g></g><g id="patch_12" data-name="patch 12"><g class="cls-3"><path class="cls-4" d="M126.55,304.72h37.3V279.49h-37.3Z" transform="translate(0 0)"/></g></g><g id="patch_13" data-name="patch 13"><g class="cls-3"><path class="cls-5" d="M126.55,279.42h37.3V261.21h-37.3Z" transform="translate(0 0)"/></g></g><g id="patch_14" data-name="patch 14"><g class="cls-3"><path class="cls-4" d="M126.55,261.14h37.3V158.26h-37.3Z" transform="translate(0 0)"/></g></g><g id="patch_15" data-name="patch 15"><g class="cls-3"><path class="cls-5" d="M201.15,396h37.3V275.33h-37.3Z" transform="translate(0 0)"/></g></g><g id="patch_16" data-name="patch 16"><g class="cls-3"><path class="cls-4" d="M201.15,275.27h37.3V166.44h-37.3Z" transform="translate(0 0)"/></g></g><g id="patch_17" data-name="patch 17"><g class="cls-3"><path class="cls-6" d="M275.75,396h37.3V381.49h-37.3Z" transform="translate(0 0)"/></g></g><g id="patch_18" data-name="patch 18"><g class="cls-3"><path class="cls-7" d="M275.75,381.42h37.3V345.54h-37.3Z" transform="translate(0 0)"/></g></g><g id="patch_19" data-name="patch 19"><g class="cls-3"><path class="cls-6" d="M275.75,345.48h37.3V296.75h-37.3Z" transform="translate(0 0)"/></g></g><g id="patch_20" data-name="patch 20"><g class="cls-3"><path class="cls-8" d="M275.75,296.68h37.3V113.42h-37.3V296.69Z" transform="translate(0 0)"/></g></g><g id="patch_21" data-name="patch 21"><g class="cls-3"><path class="cls-7" d="M275.75,113.35h37.3V69.71h-37.3Z" transform="translate(0 0)"/></g></g><g id="patch_22" data-name="patch 22"><g class="cls-3"><path class="cls-9" d="M350.35,396h37.3V191.73h-37.3Z" transform="translate(0 0)"/></g></g><g id="patch_23" data-name="patch 23"><g class="cls-3"><path class="cls-6" d="M425,396h37.3V340.26H425Z" transform="translate(0 0)"/></g></g><g id="patch_24" data-name="patch 24"><g class="cls-3"><path class="cls-8" d="M425,340.19h37.3V295.34H425Z" transform="translate(0 0)"/></g></g><g id="patch_25" data-name="patch 25"><g class="cls-3"><path class="cls-10" d="M425,295.28h37.3V116.7H425Z" transform="translate(0 0)"/></g></g><g id="patch_26" data-name="patch 26"><g class="cls-3"><path class="cls-7" d="M499.55,396h37.3V317.1h-37.3Z" transform="translate(0 0)"/></g></g><g id="patch_27" data-name="patch 27"><g class="cls-3"><path class="cls-6" d="M499.55,317h37.3v-39h-37.3Z" transform="translate(0 0)"/></g></g><g id="patch_28" data-name="patch 28"><g class="cls-3"><path class="cls-7" d="M499.55,278h37.3V146h-37.3Z" transform="translate(0 0)"/></g></g><g id="patch_29" data-name="patch 29"><g class="cls-3"><path class="cls-11" d="M574.15,396h37.3V136.78h-37.3Z" transform="translate(0 0)"/></g></g></g></g><g id="figure_1-2" data-name="figure 1-2"><g id="patch_1-2" data-name="patch 1-2"><path class="cls-2" d="M0,890H720V445H0Z" transform="translate(0 0)"/></g><g id="axes_1-2" data-name="axes 1-2"><g id="patch_2-2" data-name="patch 2-2"><path class="cls-2" d="M90,841H648V498.41H90Z" transform="translate(0 0)"/></g><g id="patch_3-2" data-name="patch 3-2"><g class="cls-12"><path class="cls-1" d="M115.36,841H175v-.67H115.36Z" transform="translate(0 0)"/></g></g><g id="patch_4-2" data-name="patch 4-2"><g class="cls-12"><path class="cls-1" d="M190,841h59.68v-.67H190V841Z" transform="translate(0 0)"/></g></g><g id="patch_5-2" data-name="patch 5-2"><g class="cls-12"><path class="cls-1" d="M264.56,841h59.68v-.67H264.56Z" transform="translate(0 0)"/></g></g><g id="patch_6-2" data-name="patch 6-2"><g class="cls-12"><path class="cls-1" d="M339.16,841h59.68v-.67H339.16Z" transform="translate(0 0)"/></g></g><g id="patch_7-2" data-name="patch 7-2"><g class="cls-12"><path class="cls-1" d="M413.76,841h59.68v-.67H413.76Z" transform="translate(0 0)"/></g></g><g id="patch_8-2" data-name="patch 8-2"><g class="cls-12"><path class="cls-1" d="M488.36,841H548v-.67H488.36Z" transform="translate(0 0)"/></g></g><g id="patch_9-2" data-name="patch 9-2"><g class="cls-12"><path class="cls-1" d="M563,841h59.68v-.67H563Z" transform="translate(0 0)"/></g></g><g id="patch_10-2" data-name="patch 10-2"><g class="cls-12"><path class="cls-4" d="M126.55,841h37.3V811.18h-37.3Z" transform="translate(0 0)"/></g></g><g id="patch_11-2" data-name="patch 11-2"><g class="cls-12"><path class="cls-5" d="M126.55,811.11h37.3V749.8h-37.3Z" transform="translate(0 0)"/></g></g><g id="patch_12-2" data-name="patch 12-2"><g class="cls-12"><path class="cls-4" d="M126.55,749.74h37.3V724.51h-37.3Z" transform="translate(0 0)"/></g></g><g id="patch_13-2" data-name="patch 13-2"><g class="cls-12"><path class="cls-5" d="M126.55,724.44h37.3V705.5h-37.3Z" transform="translate(0 0)"/></g></g><g id="patch_14-2" data-name="patch 14-2"><g class="cls-12"><path class="cls-4" d="M126.55,705.43h37.3V603.29h-37.3Z" transform="translate(0 0)"/></g></g><g id="patch_15-2" data-name="patch 15-2"><g class="cls-12"><path class="cls-5" d="M201.15,841h37.3V720.35h-37.3Z" transform="translate(0 0)"/></g></g><g id="patch_16-2" data-name="patch 16-2"><g class="cls-12"><path class="cls-4" d="M201.15,720.29h37.3V611.46h-37.3Z" transform="translate(0 0)"/></g></g><g id="patch_17-2" data-name="patch 17-2"><g class="cls-12"><path class="cls-13" d="M275.75,841h37.3V823.83h-37.3Z" transform="translate(0 0)"/></g></g><g id="patch_18-2" data-name="patch 18-2"><g class="cls-12"><path class="cls-14" d="M275.75,823.77h37.3V741.84h-37.3Z" transform="translate(0 0)"/></g></g><g id="patch_19-2" data-name="patch 19-2"><g class="cls-12"><path class="cls-8" d="M275.75,741.77h37.3V556h-37.3Z" transform="translate(0 0)"/></g></g><g id="patch_20-2" data-name="patch 20-2"><g class="cls-12"><path class="cls-14" d="M275.75,555.89h37.3V514.73h-37.3Z" transform="translate(0 0)"/></g></g><g id="patch_21-2" data-name="patch 21-2"><g class="cls-12"><path class="cls-9" d="M350.35,841h37.3V636.75h-37.3Z" transform="translate(0 0)"/></g></g><g id="patch_22-2" data-name="patch 22-2"><g class="cls-12"><path class="cls-13" d="M425,841h37.3V785.28H425Z" transform="translate(0 0)"/></g></g><g id="patch_23-2" data-name="patch 23-2"><g class="cls-12"><path class="cls-8" d="M425,785.21h37.3V740.3H425Z" transform="translate(0 0)"/></g></g><g id="patch_24-2" data-name="patch 24-2"><g class="cls-12"><path class="cls-10" d="M425,740.23h37.3V561.72H425Z" transform="translate(0 0)"/></g></g><g id="patch_25-2" data-name="patch 25-2"><g class="cls-12"><path class="cls-14" d="M499.55,841h37.3V762.12h-37.3Z" transform="translate(0 0)"/></g></g><g id="patch_26-2" data-name="patch 26-2"><g class="cls-12"><path class="cls-13" d="M499.55,762.05h37.3V591h-37.3Z" transform="translate(0 0)"/></g></g><g id="patch_27-2" data-name="patch 27-2"><g class="cls-12"><path class="cls-11" d="M574.15,841h37.3V581.8h-37.3Z" transform="translate(0 0)"/></g></g></g></g><g id="figure_1-3" data-name="figure 1-3"><g id="patch_1-3" data-name="patch 1-3"><path class="cls-2" d="M.5,1336h720V891H.5Z" transform="translate(0 0)"/></g><g id="axes_1-3" data-name="axes 1-3"><g id="patch_2-3" data-name="patch 2-3"><path class="cls-2" d="M90.5,1287h558V944.41H90.5Z" transform="translate(0 0)"/></g><g id="patch_3-3" data-name="patch 3-3"><g class="cls-15"><path class="cls-1" d="M115.86,1287h59.68v-.67H115.86Z" transform="translate(0 0)"/></g></g><g id="patch_4-3" data-name="patch 4-3"><g class="cls-15"><path class="cls-1" d="M190.46,1287h59.68v-.67H190.46v.67Z" transform="translate(0 0)"/></g></g><g id="patch_5-3" data-name="patch 5-3"><g class="cls-15"><path class="cls-1" d="M265.06,1287h59.68v-.67H265.06Z" transform="translate(0 0)"/></g></g><g id="patch_6-3" data-name="patch 6-3"><g class="cls-15"><path class="cls-1" d="M339.66,1287h59.68v-.67H339.66Z" transform="translate(0 0)"/></g></g><g id="patch_7-3" data-name="patch 7-3"><g class="cls-15"><path class="cls-1" d="M414.26,1287h59.68v-.67H414.26Z" transform="translate(0 0)"/></g></g><g id="patch_8-3" data-name="patch 8-3"><g class="cls-15"><path class="cls-1" d="M488.86,1287h59.68v-.67H488.86Z" transform="translate(0 0)"/></g></g><g id="patch_9-3" data-name="patch 9-3"><g class="cls-15"><path class="cls-1" d="M563.46,1287h59.68v-.67H563.46Z" transform="translate(0 0)"/></g></g><g id="patch_10-3" data-name="patch 10-3"><g class="cls-15"><path class="cls-4" d="M127.05,1287h37.3v-29.79h-37.3Z" transform="translate(0 0)"/></g></g><g id="patch_11-3" data-name="patch 11-3"><g class="cls-15"><path class="cls-5" d="M127.05,1257.11h37.3V1195.8h-37.3Z" transform="translate(0 0)"/></g></g><g id="patch_12-3" data-name="patch 12-3"><g class="cls-15"><path class="cls-4" d="M127.05,1195.74h37.3v-25.23h-37.3Z" transform="translate(0 0)"/></g></g><g id="patch_13-3" data-name="patch 13-3"><g class="cls-15"><path class="cls-5" d="M127.05,1170.44h37.3v-22.62h-37.3Z" transform="translate(0 0)"/></g></g><g id="patch_14-3" data-name="patch 14-3"><g class="cls-15"><path class="cls-4" d="M127.05,1147.74h37.3v-98.46h-37.3Z" transform="translate(0 0)"/></g></g><g id="patch_15-3" data-name="patch 15-3"><g class="cls-15"><path class="cls-5" d="M201.65,1287H239V1165.22h-37.3Z" transform="translate(0 0)"/></g></g><g id="patch_16-3" data-name="patch 16-3"><g class="cls-15"><path class="cls-4" d="M201.65,1165.15H239v-107.7h-37.3Z" transform="translate(0 0)"/></g></g><g id="patch_17-3" data-name="patch 17-3"><g class="cls-15"><path class="cls-16" d="M276.25,1287h37.3v-99.2h-37.3Z" transform="translate(0 0)"/></g></g><g id="patch_18-3" data-name="patch 18-3"><g class="cls-15"><path class="cls-8" d="M276.25,1187.7h37.3V1002h-37.3Z" transform="translate(0 0)"/></g></g><g id="patch_19-3" data-name="patch 19-3"><g class="cls-15"><path class="cls-16" d="M276.25,1001.89h37.3V960.73h-37.3Z" transform="translate(0 0)"/></g></g><g id="patch_20-3" data-name="patch 20-3"><g class="cls-15"><path class="cls-9" d="M350.85,1287h37.3V1082.75h-37.3Z" transform="translate(0 0)"/></g></g><g id="patch_21-3" data-name="patch 21-3"><g class="cls-15"><path class="cls-16" d="M425.45,1287h37.3v-55.69h-37.3Z" transform="translate(0 0)"/></g></g><g id="patch_22-3" data-name="patch 22-3"><g class="cls-15"><path class="cls-8" d="M425.45,1231.21h37.3v-44.85h-37.3Z" transform="translate(0 0)"/></g></g><g id="patch_23-3" data-name="patch 23-3"><g class="cls-15"><path class="cls-10" d="M425.45,1186.3h37.3V1007.72h-37.3Z" transform="translate(0 0)"/></g></g><g id="patch_24-3" data-name="patch 24-3"><g class="cls-15"><path class="cls-17" d="M500.05,1287h37.3V1037h-37.3Z" transform="translate(0 0)"/></g></g><g id="patch_25-3" data-name="patch 25-3"><g class="cls-15"><path class="cls-11" d="M574.65,1287H612V1027.8h-37.3Z" transform="translate(0 0)"/></g></g></g></g><g class="cls-18"><text class="cls-19" transform="translate(171.44 875.18)">AKI mapped to</text></g><g class="cls-18"><text class="cls-20" transform="translate(336.87 875.18)">Boechera divaricarpa</text></g><g class="cls-18"><text class="cls-19" transform="translate(179.46 1316.66)">tAKI mapped to</text></g><g class="cls-18"><text class="cls-20" transform="translate(351.56 1316.66)">Boechera divaricarpa</text></g><g class="cls-18"><text class="cls-19" transform="translate(171.41 425.63)">ACBK mapped to</text></g><g class="cls-18"><text class="cls-20" transform="translate(363.52 425.63)">Boechera divaricarpa</text></g></svg>