<svg id="_图层_1" data-name=" 图层 1" xmlns="http://www.w3.org/2000/svg" xmlns:xlink="http://www.w3.org/1999/xlink" viewBox="0 0 720.5 1334.98"><defs><style>.cls-1{fill:none;}.cls-2{fill:#fff;}.cls-3{clip-path:url(#clip-path);}.cls-4{fill:#eee950;}.cls-5{fill:#d8473d;}.cls-6{fill:#e2974f;}.cls-7{fill:#3d55a0;}.cls-8{fill:#c765a3;}.cls-9{fill:#834127;}.cls-10{fill:#4aa45b;}.cls-11{fill:#fcbcd7;}.cls-12{clip-path:url(#clip-path-43);}.cls-13{fill:#437579;}.cls-14{fill:#b8b4a1;}.cls-15{clip-path:url(#clip-path-81);}.cls-16{fill:#9ac9db;}.cls-17{fill:#f0768b;}.cls-18,.cls-19,.cls-20{isolation:isolate;}.cls-19,.cls-20{font-size:24px;}.cls-19{font-family:ArialMT, Arial;}.cls-20{font-family:Arial-ItalicMT, Arial;font-style:italic;}</style><clipPath id="clip-path" transform="translate(0 0)"><rect class="cls-1" x="90" y="53.4" width="558" height="342.62"/></clipPath><clipPath id="clip-path-43" transform="translate(0 0)"><rect class="cls-1" x="90.5" y="498.42" width="558" height="342.62"/></clipPath><clipPath id="clip-path-81" transform="translate(0 0)"><rect class="cls-1" x="90.5" y="943.42" width="558" height="342.62"/></clipPath></defs><title>Arabidopsis_suecica.karyotype</title><g id="figure_1" data-name="figure 1"><g id="patch_1" data-name="patch 1"><path class="cls-2" d="M0,445H720V0H0Z" transform="translate(0 0)"/></g><g id="axes_1" data-name="axes 1"><g id="patch_2" data-name="patch 2"><path class="cls-2" d="M90,396H648V53.4H90V396Z" transform="translate(0 0)"/></g><g id="patch_3" data-name="patch 3"><g class="cls-3"><path class="cls-1" d="M115.36,396h31.7v-.49h-31.7Z" transform="translate(0 0)"/></g></g><g id="patch_4" data-name="patch 4"><g class="cls-3"><path class="cls-1" d="M155,396h31.7v-.49H155Z" transform="translate(0 0)"/></g></g><g id="patch_5" data-name="patch 5"><g class="cls-3"><path class="cls-1" d="M194.62,396h31.7v-.49h-31.7Z" transform="translate(0 0)"/></g></g><g id="patch_6" data-name="patch 6"><g class="cls-3"><path class="cls-1" d="M234.26,396H266v-.49h-31.7Z" transform="translate(0 0)"/></g></g><g id="patch_7" data-name="patch 7"><g class="cls-3"><path class="cls-1" d="M273.89,396h31.7v-.49h-31.7Z" transform="translate(0 0)"/></g></g><g id="patch_8" data-name="patch 8"><g class="cls-3"><path class="cls-1" d="M313.52,396h31.7v-.49h-31.7Z" transform="translate(0 0)"/></g></g><g id="patch_9" data-name="patch 9"><g class="cls-3"><path class="cls-1" d="M353.15,396h31.7v-.49h-31.7Z" transform="translate(0 0)"/></g></g><g id="patch_10" data-name="patch 10"><g class="cls-3"><path class="cls-1" d="M392.78,396h31.7v-.49h-31.7Z" transform="translate(0 0)"/></g></g><g id="patch_11" data-name="patch 11"><g class="cls-3"><path class="cls-1" d="M432.41,396h31.7v-.49h-31.7Z" transform="translate(0 0)"/></g></g><g id="patch_12" data-name="patch 12"><g class="cls-3"><path class="cls-1" d="M472,396h31.7v-.49H472Z" transform="translate(0 0)"/></g></g><g id="patch_13" data-name="patch 13"><g class="cls-3"><path class="cls-1" d="M511.67,396h31.7v-.49h-31.7V396Z" transform="translate(0 0)"/></g></g><g id="patch_14" data-name="patch 14"><g class="cls-3"><path class="cls-1" d="M551.3,396H583v-.49H551.3Z" transform="translate(0 0)"/></g></g><g id="patch_15" data-name="patch 15"><g class="cls-3"><path class="cls-1" d="M590.93,396h31.7v-.49h-31.7Z" transform="translate(0 0)"/></g></g><g id="patch_16" data-name="patch 16"><g class="cls-3"><path class="cls-4" d="M121.31,396h19.82v-207H121.31Z" transform="translate(0 0)"/></g></g><g id="patch_17" data-name="patch 17"><g class="cls-3"><path class="cls-5" d="M121.31,188.88h19.82v-3H121.31Z" transform="translate(0 0)"/></g></g><g id="patch_18" data-name="patch 18"><g class="cls-3"><path class="cls-4" d="M121.31,185.82h19.82v-5.69H121.31Z" transform="translate(0 0)"/></g></g><g id="patch_19" data-name="patch 19"><g class="cls-3"><path class="cls-5" d="M121.31,180.08h19.82V69.71H121.31Z" transform="translate(0 0)"/></g></g><g id="patch_20" data-name="patch 20"><g class="cls-3"><path class="cls-6" d="M160.94,396h19.82V382.06H160.94Z" transform="translate(0 0)"/></g></g><g id="patch_21" data-name="patch 21"><g class="cls-3"><path class="cls-7" d="M160.94,382h19.82V337.23H160.94Z" transform="translate(0 0)"/></g></g><g id="patch_22" data-name="patch 22"><g class="cls-3"><path class="cls-8" d="M160.94,337.18h19.82V204.73H160.94Z" transform="translate(0 0)"/></g></g><g id="patch_23" data-name="patch 23"><g class="cls-3"><path class="cls-7" d="M200.57,396h19.82V269.31H200.57Z" transform="translate(0 0)"/></g></g><g id="patch_24" data-name="patch 24"><g class="cls-3"><path class="cls-6" d="M200.57,269.26h19.82V143.57H200.57Z" transform="translate(0 0)"/></g></g><g id="patch_25" data-name="patch 25"><g class="cls-3"><path class="cls-9" d="M240.2,396H260v-50H240.2v50Z" transform="translate(0 0)"/></g></g><g id="patch_26" data-name="patch 26"><g class="cls-3"><path class="cls-10" d="M240.2,345.88H260V204.58H240.2v141.3Z" transform="translate(0 0)"/></g></g><g id="patch_27" data-name="patch 27"><g class="cls-3"><path class="cls-9" d="M279.83,396h19.82V294.45H279.83Z" transform="translate(0 0)"/></g></g><g id="patch_28" data-name="patch 28"><g class="cls-3"><path class="cls-11" d="M279.83,294.39h19.82V266.63H279.83Z" transform="translate(0 0)"/></g></g><g id="patch_29" data-name="patch 29"><g class="cls-3"><path class="cls-10" d="M279.83,266.58h19.82v-34H279.83Z" transform="translate(0 0)"/></g></g><g id="patch_30" data-name="patch 30"><g class="cls-3"><path class="cls-11" d="M279.83,232.5h19.82V194H279.83Z" transform="translate(0 0)"/></g></g><g id="patch_31" data-name="patch 31"><g class="cls-3"><path class="cls-9" d="M279.83,193.94h19.82V138.17H279.83Z" transform="translate(0 0)"/></g></g><g id="patch_32" data-name="patch 32"><g class="cls-3"><path class="cls-11" d="M279.83,138.12h19.82V102.87H279.83Z" transform="translate(0 0)"/></g></g><g id="patch_33" data-name="patch 33"><g class="cls-3"><path class="cls-4" d="M319.46,396h19.82V169.24H319.46Z" transform="translate(0 0)"/></g></g><g id="patch_34" data-name="patch 34"><g class="cls-3"><path class="cls-5" d="M359.09,396h19.82V255.31H359.09Z" transform="translate(0 0)"/></g></g><g id="patch_35" data-name="patch 35"><g class="cls-3"><path class="cls-7" d="M398.72,396h19.82V206.39H398.72Z" transform="translate(0 0)"/></g></g><g id="patch_36" data-name="patch 36"><g class="cls-3"><path class="cls-8" d="M438.35,396h19.82V238.29H438.35Z" transform="translate(0 0)"/></g></g><g id="patch_37" data-name="patch 37"><g class="cls-3"><path class="cls-6" d="M478,396H497.8V239.21H478Z" transform="translate(0 0)"/></g></g><g id="patch_38" data-name="patch 38"><g class="cls-3"><path class="cls-9" d="M517.62,396h19.82V290H517.62Z" transform="translate(0 0)"/></g></g><g id="patch_39" data-name="patch 39"><g class="cls-3"><path class="cls-11" d="M517.62,289.92h19.82V254.28H517.62Z" transform="translate(0 0)"/></g></g><g id="patch_40" data-name="patch 40"><g class="cls-3"><path class="cls-9" d="M517.62,254.23h19.82v-50H517.62Z" transform="translate(0 0)"/></g></g><g id="patch_41" data-name="patch 41"><g class="cls-3"><path class="cls-10" d="M557.25,396h19.82V204.79H557.25Z" transform="translate(0 0)"/></g></g><g id="patch_42" data-name="patch 42"><g class="cls-3"><path class="cls-11" d="M596.88,396H616.7V341.9H596.88Z" transform="translate(0 0)"/></g></g><g id="patch_43" data-name="patch 43"><g class="cls-3"><path class="cls-9" d="M596.88,341.85H616.7V282.29H596.88Z" transform="translate(0 0)"/></g></g><g id="patch_44" data-name="patch 44"><g class="cls-3"><path class="cls-11" d="M596.88,282.24H616.7V245.43H596.88Z" transform="translate(0 0)"/></g></g></g></g><g id="figure_1-2" data-name="figure 1-2"><g id="patch_1-2" data-name="patch 1-2"><path class="cls-2" d="M.5,890h720V445H.5Z" transform="translate(0 0)"/></g><g id="axes_1-2" data-name="axes 1-2"><g id="patch_2-2" data-name="patch 2-2"><path class="cls-2" d="M90.5,841h558V498.41H90.5Z" transform="translate(0 0)"/></g><g id="patch_3-2" data-name="patch 3-2"><g class="cls-12"><path class="cls-1" d="M115.86,841h31.7v-.49h-31.7Z" transform="translate(0 0)"/></g></g><g id="patch_4-2" data-name="patch 4-2"><g class="cls-12"><path class="cls-1" d="M155.49,841h31.7v-.49h-31.7Z" transform="translate(0 0)"/></g></g><g id="patch_5-2" data-name="patch 5-2"><g class="cls-12"><path class="cls-1" d="M195.12,841h31.7v-.49h-31.7Z" transform="translate(0 0)"/></g></g><g id="patch_6-2" data-name="patch 6-2"><g class="cls-12"><path class="cls-1" d="M234.76,841h31.7v-.49h-31.7Z" transform="translate(0 0)"/></g></g><g id="patch_7-2" data-name="patch 7-2"><g class="cls-12"><path class="cls-1" d="M274.39,841h31.7v-.49h-31.7Z" transform="translate(0 0)"/></g></g><g id="patch_8-2" data-name="patch 8-2"><g class="cls-12"><path class="cls-1" d="M314,841h31.7v-.49H314Z" transform="translate(0 0)"/></g></g><g id="patch_9-2" data-name="patch 9-2"><g class="cls-12"><path class="cls-1" d="M353.65,841h31.7v-.49h-31.7Z" transform="translate(0 0)"/></g></g><g id="patch_10-2" data-name="patch 10-2"><g class="cls-12"><path class="cls-1" d="M393.28,841H425v-.49h-31.7Z" transform="translate(0 0)"/></g></g><g id="patch_11-2" data-name="patch 11-2"><g class="cls-12"><path class="cls-1" d="M432.91,841h31.7v-.49h-31.7Z" transform="translate(0 0)"/></g></g><g id="patch_12-2" data-name="patch 12-2"><g class="cls-12"><path class="cls-1" d="M472.54,841h31.7v-.49h-31.7Z" transform="translate(0 0)"/></g></g><g id="patch_13-2" data-name="patch 13-2"><g class="cls-12"><path class="cls-1" d="M512.17,841h31.7v-.49h-31.7Z" transform="translate(0 0)"/></g></g><g id="patch_14-2" data-name="patch 14-2"><g class="cls-12"><path class="cls-1" d="M551.8,841h31.7v-.49H551.8Z" transform="translate(0 0)"/></g></g><g id="patch_15-2" data-name="patch 15-2"><g class="cls-12"><path class="cls-1" d="M591.43,841h31.7v-.49h-31.7Z" transform="translate(0 0)"/></g></g><g id="patch_16-2" data-name="patch 16-2"><g class="cls-12"><path class="cls-4" d="M121.81,841h19.82V634H121.81Z" transform="translate(0 0)"/></g></g><g id="patch_17-2" data-name="patch 17-2"><g class="cls-12"><path class="cls-5" d="M121.81,633.9h19.82v-3H121.81Z" transform="translate(0 0)"/></g></g><g id="patch_18-2" data-name="patch 18-2"><g class="cls-12"><path class="cls-4" d="M121.81,630.84h19.82v-5.69H121.81Z" transform="translate(0 0)"/></g></g><g id="patch_19-2" data-name="patch 19-2"><g class="cls-12"><path class="cls-5" d="M121.81,625.1h19.82V514.73H121.81Z" transform="translate(0 0)"/></g></g><g id="patch_20-2" data-name="patch 20-2"><g class="cls-12"><path class="cls-6" d="M161.44,841h19.82V827.08H161.44Z" transform="translate(0 0)"/></g></g><g id="patch_21-2" data-name="patch 21-2"><g class="cls-12"><path class="cls-7" d="M161.44,827h19.82V782.25H161.44Z" transform="translate(0 0)"/></g></g><g id="patch_22-2" data-name="patch 22-2"><g class="cls-12"><path class="cls-8" d="M161.44,782.2h19.82V649.75H161.44Z" transform="translate(0 0)"/></g></g><g id="patch_23-2" data-name="patch 23-2"><g class="cls-12"><path class="cls-7" d="M201.07,841h19.82V714.33H201.07Z" transform="translate(0 0)"/></g></g><g id="patch_24-2" data-name="patch 24-2"><g class="cls-12"><path class="cls-6" d="M201.07,714.28h19.82V588.59H201.07Z" transform="translate(0 0)"/></g></g><g id="patch_25-2" data-name="patch 25-2"><g class="cls-12"><path class="cls-13" d="M240.7,841h19.82V791H240.7v50Z" transform="translate(0 0)"/></g></g><g id="patch_26-2" data-name="patch 26-2"><g class="cls-12"><path class="cls-10" d="M240.7,790.9h19.82V649.6H240.7V790.9Z" transform="translate(0 0)"/></g></g><g id="patch_27-2" data-name="patch 27-2"><g class="cls-12"><path class="cls-14" d="M280.33,841h19.82V712H280.33Z" transform="translate(0 0)"/></g></g><g id="patch_28-2" data-name="patch 28-2"><g class="cls-12"><path class="cls-10" d="M280.33,711.89h19.82V677.32H280.33Z" transform="translate(0 0)"/></g></g><g id="patch_29-2" data-name="patch 29-2"><g class="cls-12"><path class="cls-14" d="M280.33,677.27h19.82V639H280.33Z" transform="translate(0 0)"/></g></g><g id="patch_30-2" data-name="patch 30-2"><g class="cls-12"><path class="cls-13" d="M280.33,639h19.82V547.89H280.33Z" transform="translate(0 0)"/></g></g><g id="patch_31-2" data-name="patch 31-2"><g class="cls-12"><path class="cls-4" d="M320,841h19.82V614.26H320Z" transform="translate(0 0)"/></g></g><g id="patch_32-2" data-name="patch 32-2"><g class="cls-12"><path class="cls-5" d="M359.59,841h19.82V700.33H359.59Z" transform="translate(0 0)"/></g></g><g id="patch_33-2" data-name="patch 33-2"><g class="cls-12"><path class="cls-7" d="M399.22,841H419V651.41H399.22Z" transform="translate(0 0)"/></g></g><g id="patch_34-2" data-name="patch 34-2"><g class="cls-12"><path class="cls-8" d="M438.85,841h19.82V683.31H438.85Z" transform="translate(0 0)"/></g></g><g id="patch_35-2" data-name="patch 35-2"><g class="cls-12"><path class="cls-6" d="M478.48,841H498.3V684.23H478.48Z" transform="translate(0 0)"/></g></g><g id="patch_36-2" data-name="patch 36-2"><g class="cls-12"><path class="cls-14" d="M518.12,841h19.82V706.21H518.12Z" transform="translate(0 0)"/></g></g><g id="patch_37-2" data-name="patch 37-2"><g class="cls-12"><path class="cls-13" d="M518.12,706.16h19.82V649.22H518.12Z" transform="translate(0 0)"/></g></g><g id="patch_38-2" data-name="patch 38-2"><g class="cls-12"><path class="cls-10" d="M557.75,841h19.82V649.81H557.75Z" transform="translate(0 0)"/></g></g><g id="patch_39-2" data-name="patch 39-2"><g class="cls-12"><path class="cls-14" d="M597.38,841H617.2V786.92H597.38Z" transform="translate(0 0)"/></g></g><g id="patch_40-2" data-name="patch 40-2"><g class="cls-12"><path class="cls-13" d="M597.38,786.87H617.2V690.45H597.38Z" transform="translate(0 0)"/></g></g></g></g><g id="figure_1-3" data-name="figure 1-3"><g id="patch_1-3" data-name="patch 1-3"><path class="cls-2" d="M.5,1335h720V890H.5Z" transform="translate(0 0)"/></g><g id="axes_1-3" data-name="axes 1-3"><g id="patch_2-3" data-name="patch 2-3"><path class="cls-2" d="M90.5,1286h558V943.41H90.5Z" transform="translate(0 0)"/></g><g id="patch_3-3" data-name="patch 3-3"><g class="cls-15"><path class="cls-1" d="M115.86,1286h31.7v-.49h-31.7Z" transform="translate(0 0)"/></g></g><g id="patch_4-3" data-name="patch 4-3"><g class="cls-15"><path class="cls-1" d="M155.49,1286h31.7v-.49h-31.7Z" transform="translate(0 0)"/></g></g><g id="patch_5-3" data-name="patch 5-3"><g class="cls-15"><path class="cls-1" d="M195.12,1286h31.7v-.49h-31.7Z" transform="translate(0 0)"/></g></g><g id="patch_6-3" data-name="patch 6-3"><g class="cls-15"><path class="cls-1" d="M234.76,1286h31.7v-.49h-31.7Z" transform="translate(0 0)"/></g></g><g id="patch_7-3" data-name="patch 7-3"><g class="cls-15"><path class="cls-1" d="M274.39,1286h31.7v-.49h-31.7Z" transform="translate(0 0)"/></g></g><g id="patch_8-3" data-name="patch 8-3"><g class="cls-15"><path class="cls-1" d="M314,1286h31.7v-.49H314Z" transform="translate(0 0)"/></g></g><g id="patch_9-3" data-name="patch 9-3"><g class="cls-15"><path class="cls-1" d="M353.65,1286h31.7v-.49h-31.7Z" transform="translate(0 0)"/></g></g><g id="patch_10-3" data-name="patch 10-3"><g class="cls-15"><path class="cls-1" d="M393.28,1286H425v-.49h-31.7Z" transform="translate(0 0)"/></g></g><g id="patch_11-3" data-name="patch 11-3"><g class="cls-15"><path class="cls-1" d="M432.91,1286h31.7v-.49h-31.7Z" transform="translate(0 0)"/></g></g><g id="patch_12-3" data-name="patch 12-3"><g class="cls-15"><path class="cls-1" d="M472.54,1286h31.7v-.49h-31.7Z" transform="translate(0 0)"/></g></g><g id="patch_13-3" data-name="patch 13-3"><g class="cls-15"><path class="cls-1" d="M512.17,1286h31.7v-.49h-31.7Z" transform="translate(0 0)"/></g></g><g id="patch_14-3" data-name="patch 14-3"><g class="cls-15"><path class="cls-1" d="M551.8,1286h31.7v-.49H551.8Z" transform="translate(0 0)"/></g></g><g id="patch_15-3" data-name="patch 15-3"><g class="cls-15"><path class="cls-1" d="M591.43,1286h31.7v-.49h-31.7Z" transform="translate(0 0)"/></g></g><g id="patch_16-3" data-name="patch 16-3"><g class="cls-15"><path class="cls-4" d="M121.81,1286h19.82V1079H121.81Z" transform="translate(0 0)"/></g></g><g id="patch_17-3" data-name="patch 17-3"><g class="cls-15"><path class="cls-5" d="M121.81,1078.9h19.82v-3H121.81Z" transform="translate(0 0)"/></g></g><g id="patch_18-3" data-name="patch 18-3"><g class="cls-15"><path class="cls-4" d="M121.81,1075.84h19.82v-5.69H121.81Z" transform="translate(0 0)"/></g></g><g id="patch_19-3" data-name="patch 19-3"><g class="cls-15"><path class="cls-5" d="M121.81,1070.1h19.82V959.73H121.81Z" transform="translate(0 0)"/></g></g><g id="patch_20-3" data-name="patch 20-3"><g class="cls-15"><path class="cls-6" d="M161.44,1286h19.82v-13.91H161.44Z" transform="translate(0 0)"/></g></g><g id="patch_21-3" data-name="patch 21-3"><g class="cls-15"><path class="cls-7" d="M161.44,1272h19.82V1227.3H161.44Z" transform="translate(0 0)"/></g></g><g id="patch_22-3" data-name="patch 22-3"><g class="cls-15"><path class="cls-8" d="M161.44,1227.25h19.82v-132.5H161.44Z" transform="translate(0 0)"/></g></g><g id="patch_23-3" data-name="patch 23-3"><g class="cls-15"><path class="cls-7" d="M201.07,1286h19.82V1159.33H201.07Z" transform="translate(0 0)"/></g></g><g id="patch_24-3" data-name="patch 24-3"><g class="cls-15"><path class="cls-6" d="M201.07,1159.28h19.82V1033.59H201.07Z" transform="translate(0 0)"/></g></g><g id="patch_25-3" data-name="patch 25-3"><g class="cls-15"><path class="cls-16" d="M240.7,1286h19.82v-50H240.7v50Z" transform="translate(0 0)"/></g></g><g id="patch_26-3" data-name="patch 26-3"><g class="cls-15"><path class="cls-10" d="M240.7,1235.9h19.82V1094.6H240.7v141.3Z" transform="translate(0 0)"/></g></g><g id="patch_27-3" data-name="patch 27-3"><g class="cls-15"><path class="cls-16" d="M280.33,1286h19.82V1157.48H280.33Z" transform="translate(0 0)"/></g></g><g id="patch_28-3" data-name="patch 28-3"><g class="cls-15"><path class="cls-10" d="M280.33,1157.43h19.82v-34.86H280.33Z" transform="translate(0 0)"/></g></g><g id="patch_29-3" data-name="patch 29-3"><g class="cls-15"><path class="cls-17" d="M280.33,1122.52h19.82V992.89H280.33Z" transform="translate(0 0)"/></g></g><g id="patch_30-3" data-name="patch 30-3"><g class="cls-15"><path class="cls-4" d="M320,1286h19.82V1059.26H320Z" transform="translate(0 0)"/></g></g><g id="patch_31-3" data-name="patch 31-3"><g class="cls-15"><path class="cls-5" d="M359.59,1286h19.82V1145.33H359.59Z" transform="translate(0 0)"/></g></g><g id="patch_32-3" data-name="patch 32-3"><g class="cls-15"><path class="cls-7" d="M399.22,1286H419V1096.41H399.22Z" transform="translate(0 0)"/></g></g><g id="patch_33-3" data-name="patch 33-3"><g class="cls-15"><path class="cls-8" d="M438.85,1286h19.82V1128.31H438.85Z" transform="translate(0 0)"/></g></g><g id="patch_34-3" data-name="patch 34-3"><g class="cls-15"><path class="cls-6" d="M478.48,1286H498.3V1129.23H478.48Z" transform="translate(0 0)"/></g></g><g id="patch_35-3" data-name="patch 35-3"><g class="cls-15"><path class="cls-10" d="M557.88,1286H577.7V1094.85H557.88Z" transform="translate(0 0)"/></g></g><g id="patch_36-3" data-name="patch 36-3"><g class="cls-15"><path class="cls-16" d="M519.22,1286H539V1094.26H519.22Z" transform="translate(0 0)"/></g></g><g id="patch_37-3" data-name="patch 37-3"><g class="cls-15"><path class="cls-17" d="M597.38,1286H617.2V1135.46H597.38Z" transform="translate(0 0)"/></g></g></g></g><g class="cls-18"><text class="cls-19" transform="translate(179.73 880.24)">AKI mapped to</text></g><g class="cls-18"><text class="cls-20" transform="translate(345.16 880.24)">Arabidopsis suecica</text></g><g class="cls-18"><text class="cls-19" transform="translate(187.75 1321.72)">tAKI mapped to</text></g><g class="cls-18"><text class="cls-20" transform="translate(359.85 1321.72)">Arabidopsis suecica</text></g><g class="cls-18"><text class="cls-19" transform="translate(179.7 430.69)">ACBK mapped to</text></g><g class="cls-18"><text class="cls-20" transform="translate(371.81 430.69)">Arabidopsis suecica</text></g></svg>