<svg id="_图层_1" data-name=" 图层 1" xmlns="http://www.w3.org/2000/svg" xmlns:xlink="http://www.w3.org/1999/xlink" viewBox="0 0 720.5 1334.98"><defs><style>.cls-1{fill:none;}.cls-2{fill:#fff;}.cls-3{clip-path:url(#clip-path);}.cls-4{fill:#eee950;}.cls-5{fill:#d8473d;}.cls-6{fill:#3d55a0;}.cls-7{fill:#c765a3;}.cls-8{fill:#e2974f;}.cls-9{fill:#834127;}.cls-10{fill:#fcbcd7;}.cls-11{fill:#4aa45b;}.cls-12{clip-path:url(#clip-path-21);}.cls-13{fill:#b8b4a1;}.cls-14{fill:#437579;}.cls-15{clip-path:url(#clip-path-39);}.cls-16{fill:#9ac9db;}.cls-17{fill:#f0768b;}.cls-18,.cls-19,.cls-20{isolation:isolate;}.cls-19,.cls-20{font-size:24px;}.cls-19{font-family:ArialMT, Arial;}.cls-20{font-family:Arial-ItalicMT, Arial;font-style:italic;}</style><clipPath id="clip-path" transform="translate(0 0)"><rect class="cls-1" x="90" y="53.4" width="558" height="342.62"/></clipPath><clipPath id="clip-path-21" transform="translate(0 0)"><rect class="cls-1" x="90.5" y="498.42" width="558" height="342.62"/></clipPath><clipPath id="clip-path-39" transform="translate(0 0)"><rect class="cls-1" x="90" y="943.42" width="558" height="342.62"/></clipPath></defs><title>Capsella_rubella.karyotype</title><g id="figure_1" data-name="figure 1"><g id="patch_1" data-name="patch 1"><path class="cls-2" d="M0,445H720V0H0Z" transform="translate(0 0)"/></g><g id="axes_1" data-name="axes 1"><g id="patch_2" data-name="patch 2"><path class="cls-2" d="M90,396H648V53.4H90V396h0Z" transform="translate(0 0)"/></g><g id="patch_3" data-name="patch 3"><g class="cls-3"><path class="cls-1" d="M115.36,396h52v-.75h-52Z" transform="translate(0 0)"/></g></g><g id="patch_4" data-name="patch 4"><g class="cls-3"><path class="cls-1" d="M180.4,396h52v-.75h-52Z" transform="translate(0 0)"/></g></g><g id="patch_5" data-name="patch 5"><g class="cls-3"><path class="cls-1" d="M245.43,396h52v-.75h-52Z" transform="translate(0 0)"/></g></g><g id="patch_6" data-name="patch 6"><g class="cls-3"><path class="cls-1" d="M310.47,396h52v-.75h-52Z" transform="translate(0 0)"/></g></g><g id="patch_7" data-name="patch 7"><g class="cls-3"><path class="cls-1" d="M375.5,396h52v-.75h-52Z" transform="translate(0 0)"/></g></g><g id="patch_8" data-name="patch 8"><g class="cls-3"><path class="cls-1" d="M440.54,396h52v-.75h-52Z" transform="translate(0 0)"/></g></g><g id="patch_9" data-name="patch 9"><g class="cls-3"><path class="cls-1" d="M505.57,396h52v-.75h-52V396Z" transform="translate(0 0)"/></g></g><g id="patch_10" data-name="patch 10"><g class="cls-3"><path class="cls-1" d="M570.61,396h52v-.75h-52Z" transform="translate(0 0)"/></g></g><g id="patch_11" data-name="patch 11"><g class="cls-3"><path class="cls-4" d="M125.12,395.94h32.52V69.71H125.12Z" transform="translate(0 0)"/></g></g><g id="patch_12" data-name="patch 12"><g class="cls-3"><path class="cls-5" d="M190.15,395.94h32.52V192.3H190.15Z" transform="translate(0 0)"/></g></g><g id="patch_13" data-name="patch 13"><g class="cls-3"><path class="cls-6" d="M255.19,395.94h32.52V135.56H255.19V395.94Z" transform="translate(0 0)"/></g></g><g id="patch_14" data-name="patch 14"><g class="cls-3"><path class="cls-7" d="M320.22,395.94h32.52V169.88H320.22Z" transform="translate(0 0)"/></g></g><g id="patch_15" data-name="patch 15"><g class="cls-3"><path class="cls-8" d="M385.26,395.94h32.52V175.22H385.26Z" transform="translate(0 0)"/></g></g><g id="patch_16" data-name="patch 16"><g class="cls-3"><path class="cls-9" d="M450.29,395.94h32.52V244.6H450.29Z" transform="translate(0 0)"/></g></g><g id="patch_17" data-name="patch 17"><g class="cls-3"><path class="cls-10" d="M450.29,244.53h32.52V204.27H450.29Z" transform="translate(0 0)"/></g></g><g id="patch_18" data-name="patch 18"><g class="cls-3"><path class="cls-9" d="M450.29,204.19h32.52V124.72H450.29Z" transform="translate(0 0)"/></g></g><g id="patch_19" data-name="patch 19"><g class="cls-3"><path class="cls-11" d="M515.33,395.94h32.52V119.08H515.33Z" transform="translate(0 0)"/></g></g><g id="patch_20" data-name="patch 20"><g class="cls-3"><path class="cls-10" d="M580.36,395.94h32.52V325.88H580.36Z" transform="translate(0 0)"/></g></g><g id="patch_21" data-name="patch 21"><g class="cls-3"><path class="cls-9" d="M580.36,325.8h32.52V238.28H580.36Z" transform="translate(0 0)"/></g></g><g id="patch_22" data-name="patch 22"><g class="cls-3"><path class="cls-10" d="M580.36,238.21h32.52V186.28H580.36v51.93Z" transform="translate(0 0)"/></g></g></g></g><g id="figure_1-2" data-name="figure 1-2"><g id="patch_1-2" data-name="patch 1-2"><path class="cls-2" d="M.5,890h720V445H.5Z" transform="translate(0 0)"/></g><g id="axes_1-2" data-name="axes 1-2"><g id="patch_2-2" data-name="patch 2-2"><path class="cls-2" d="M90.5,841h558V498.41H90.5Z" transform="translate(0 0)"/></g><g id="patch_3-2" data-name="patch 3-2"><g class="cls-12"><path class="cls-1" d="M115.86,841h52v-.75h-52Z" transform="translate(0 0)"/></g></g><g id="patch_4-2" data-name="patch 4-2"><g class="cls-12"><path class="cls-1" d="M180.9,841h52v-.75h-52Z" transform="translate(0 0)"/></g></g><g id="patch_5-2" data-name="patch 5-2"><g class="cls-12"><path class="cls-1" d="M245.93,841h52v-.75h-52Z" transform="translate(0 0)"/></g></g><g id="patch_6-2" data-name="patch 6-2"><g class="cls-12"><path class="cls-1" d="M311,841h52v-.75H311Z" transform="translate(0 0)"/></g></g><g id="patch_7-2" data-name="patch 7-2"><g class="cls-12"><path class="cls-1" d="M376,841h52v-.75H376Z" transform="translate(0 0)"/></g></g><g id="patch_8-2" data-name="patch 8-2"><g class="cls-12"><path class="cls-1" d="M441,841h52v-.75H441Z" transform="translate(0 0)"/></g></g><g id="patch_9-2" data-name="patch 9-2"><g class="cls-12"><path class="cls-1" d="M506.07,841h52v-.75h-52V841Z" transform="translate(0 0)"/></g></g><g id="patch_10-2" data-name="patch 10-2"><g class="cls-12"><path class="cls-1" d="M571.11,841h52v-.75h-52Z" transform="translate(0 0)"/></g></g><g id="patch_11-2" data-name="patch 11-2"><g class="cls-12"><path class="cls-4" d="M125.62,841h32.52V514.73H125.62V841Z" transform="translate(0 0)"/></g></g><g id="patch_12-2" data-name="patch 12-2"><g class="cls-12"><path class="cls-5" d="M190.65,841h32.52V637.32H190.65Z" transform="translate(0 0)"/></g></g><g id="patch_13-2" data-name="patch 13-2"><g class="cls-12"><path class="cls-6" d="M255.69,841h32.52V580.58H255.69V841Z" transform="translate(0 0)"/></g></g><g id="patch_14-2" data-name="patch 14-2"><g class="cls-12"><path class="cls-7" d="M320.72,841h32.52V614.9H320.72Z" transform="translate(0 0)"/></g></g><g id="patch_15-2" data-name="patch 15-2"><g class="cls-12"><path class="cls-8" d="M385.76,841h32.52V620.24H385.76V841Z" transform="translate(0 0)"/></g></g><g id="patch_16-2" data-name="patch 16-2"><g class="cls-12"><path class="cls-13" d="M450.79,841h32.52V650H450.79Z" transform="translate(0 0)"/></g></g><g id="patch_17-2" data-name="patch 17-2"><g class="cls-12"><path class="cls-14" d="M450.79,650h32.52V569.74H450.79V650Z" transform="translate(0 0)"/></g></g><g id="patch_18-2" data-name="patch 18-2"><g class="cls-12"><path class="cls-11" d="M515.83,841h32.52V564.1H515.83Z" transform="translate(0 0)"/></g></g><g id="patch_19-2" data-name="patch 19-2"><g class="cls-12"><path class="cls-13" d="M580.86,841h32.52V770.9H580.86Z" transform="translate(0 0)"/></g></g><g id="patch_20-2" data-name="patch 20-2"><g class="cls-12"><path class="cls-14" d="M580.86,770.82h32.52V631.3H580.86Z" transform="translate(0 0)"/></g></g></g></g><g id="figure_1-3" data-name="figure 1-3"><g id="patch_1-3" data-name="patch 1-3"><path class="cls-2" d="M0,1335H720V890H0Z" transform="translate(0 0)"/></g><g id="axes_1-3" data-name="axes 1-3"><g id="patch_2-3" data-name="patch 2-3"><path class="cls-2" d="M90,1286H648V943.41H90Z" transform="translate(0 0)"/></g><g id="patch_3-3" data-name="patch 3-3"><g class="cls-15"><path class="cls-1" d="M115.36,1286h52v-.75h-52Z" transform="translate(0 0)"/></g></g><g id="patch_4-3" data-name="patch 4-3"><g class="cls-15"><path class="cls-1" d="M180.4,1286h52v-.75h-52Z" transform="translate(0 0)"/></g></g><g id="patch_5-3" data-name="patch 5-3"><g class="cls-15"><path class="cls-1" d="M245.43,1286h52v-.75h-52Z" transform="translate(0 0)"/></g></g><g id="patch_6-3" data-name="patch 6-3"><g class="cls-15"><path class="cls-1" d="M310.47,1286h52v-.75h-52Z" transform="translate(0 0)"/></g></g><g id="patch_7-3" data-name="patch 7-3"><g class="cls-15"><path class="cls-1" d="M375.5,1286h52v-.75h-52Z" transform="translate(0 0)"/></g></g><g id="patch_8-3" data-name="patch 8-3"><g class="cls-15"><path class="cls-1" d="M440.54,1286h52v-.75h-52Z" transform="translate(0 0)"/></g></g><g id="patch_9-3" data-name="patch 9-3"><g class="cls-15"><path class="cls-1" d="M505.57,1286h52v-.75h-52v.75Z" transform="translate(0 0)"/></g></g><g id="patch_10-3" data-name="patch 10-3"><g class="cls-15"><path class="cls-1" d="M570.61,1286h52v-.75h-52Z" transform="translate(0 0)"/></g></g><g id="patch_11-3" data-name="patch 11-3"><g class="cls-15"><path class="cls-4" d="M125.12,1286h32.52V959.73H125.12Z" transform="translate(0 0)"/></g></g><g id="patch_12-3" data-name="patch 12-3"><g class="cls-15"><path class="cls-5" d="M190.15,1286h32.52V1082.32H190.15Z" transform="translate(0 0)"/></g></g><g id="patch_13-3" data-name="patch 13-3"><g class="cls-15"><path class="cls-6" d="M255.19,1286h32.52V1025.58H255.19V1286Z" transform="translate(0 0)"/></g></g><g id="patch_14-3" data-name="patch 14-3"><g class="cls-15"><path class="cls-7" d="M320.22,1286h32.52V1059.9H320.22Z" transform="translate(0 0)"/></g></g><g id="patch_15-3" data-name="patch 15-3"><g class="cls-15"><path class="cls-8" d="M385.26,1286h32.52V1065.24H385.26Z" transform="translate(0 0)"/></g></g><g id="patch_16-3" data-name="patch 16-3"><g class="cls-15"><path class="cls-11" d="M514.71,1290h32.52V1013.1H514.71Z" transform="translate(0 0)"/></g></g><g id="patch_17-3" data-name="patch 17-3"><g class="cls-15"><path class="cls-16" d="M452.33,1286h32.52V1014.82H452.33Z" transform="translate(0 0)"/></g></g><g id="patch_18-3" data-name="patch 18-3"><g class="cls-15"><path class="cls-17" d="M580.36,1286h32.52V1076.3H580.36Z" transform="translate(0 0)"/></g></g></g></g><g class="cls-18"><text class="cls-19" transform="translate(193.16 870.45)">AKI mapped to</text></g><g class="cls-18"><text class="cls-20" transform="translate(358.59 870.45)">Capsella rubella</text></g><g class="cls-18"><text class="cls-19" transform="translate(201.18 1311.93)">tAKI mapped to</text></g><g class="cls-18"><text class="cls-20" transform="translate(373.28 1311.93)">Capsella rubella</text></g><g class="cls-18"><text class="cls-19" transform="translate(193.13 420.9)">ACBK mapped to</text></g><g class="cls-18"><text class="cls-20" transform="translate(385.24 420.9)">Capsella rubella</text></g></svg>