<?xml version="1.0" encoding="utf-8" standalone="no"?>
<!DOCTYPE svg PUBLIC "-//W3C//DTD SVG 1.1//EN"
  "http://www.w3.org/Graphics/SVG/1.1/DTD/svg11.dtd">
<svg xmlns:xlink="http://www.w3.org/1999/xlink" width="720pt" height="444.96pt" viewBox="0 0 720 444.96" xmlns="http://www.w3.org/2000/svg" version="1.1">
 <metadata>
  <rdf:RDF xmlns:dc="http://purl.org/dc/elements/1.1/" xmlns:cc="http://creativecommons.org/ns#" xmlns:rdf="http://www.w3.org/1999/02/22-rdf-syntax-ns#">
   <cc:Work>
    <dc:type rdf:resource="http://purl.org/dc/dcmitype/StillImage"/>
    <dc:date>2024-12-27T22:09:38.632071</dc:date>
    <dc:format>image/svg+xml</dc:format>
    <dc:creator>
     <cc:Agent>
      <dc:title>Matplotlib v3.8.3, https://matplotlib.org/</dc:title>
     </cc:Agent>
    </dc:creator>
   </cc:Work>
  </rdf:RDF>
 </metadata>
 <defs>
  <style type="text/css">*{stroke-linejoin: round; stroke-linecap: butt}</style>
 </defs>
 <g id="figure_1">
  <g id="patch_1">
   <path d="M 0 444.96 
L 720 444.96 
L 720 0 
L 0 0 
z
" style="fill: #ffffff"/>
  </g>
  <g id="axes_1">
   <g id="patch_2">
    <path d="M 90 396.0144 
L 648 396.0144 
L 648 53.3952 
L 90 53.3952 
z
" style="fill: #ffffff"/>
   </g>
   <g id="patch_3">
    <path d="M 115.363636 396.0144 
L 167.391608 396.0144 
L 167.391608 395.310096 
L 115.363636 395.310096 
L 115.363636 396.0144 
z
" clip-path="url(#p383bb9c4a0)" style="fill: none; opacity: 0"/>
   </g>
   <g id="patch_4">
    <path d="M 180.398601 396.0144 
L 232.426573 396.0144 
L 232.426573 395.310096 
L 180.398601 395.310096 
L 180.398601 396.0144 
z
" clip-path="url(#p383bb9c4a0)" style="fill: none; opacity: 0"/>
   </g>
   <g id="patch_5">
    <path d="M 245.433566 396.0144 
L 297.461538 396.0144 
L 297.461538 395.310096 
L 245.433566 395.310096 
L 245.433566 396.0144 
z
" clip-path="url(#p383bb9c4a0)" style="fill: none; opacity: 0"/>
   </g>
   <g id="patch_6">
    <path d="M 310.468531 396.0144 
L 362.496503 396.0144 
L 362.496503 395.310096 
L 310.468531 395.310096 
L 310.468531 396.0144 
z
" clip-path="url(#p383bb9c4a0)" style="fill: none; opacity: 0"/>
   </g>
   <g id="patch_7">
    <path d="M 375.503497 396.0144 
L 427.531469 396.0144 
L 427.531469 395.310096 
L 375.503497 395.310096 
L 375.503497 396.0144 
z
" clip-path="url(#p383bb9c4a0)" style="fill: none; opacity: 0"/>
   </g>
   <g id="patch_8">
    <path d="M 440.538462 396.0144 
L 492.566434 396.0144 
L 492.566434 395.310096 
L 440.538462 395.310096 
L 440.538462 396.0144 
z
" clip-path="url(#p383bb9c4a0)" style="fill: none; opacity: 0"/>
   </g>
   <g id="patch_9">
    <path d="M 505.573427 396.0144 
L 557.601399 396.0144 
L 557.601399 395.310096 
L 505.573427 395.310096 
L 505.573427 396.0144 
z
" clip-path="url(#p383bb9c4a0)" style="fill: none; opacity: 0"/>
   </g>
   <g id="patch_10">
    <path d="M 570.608392 396.0144 
L 622.636364 396.0144 
L 622.636364 395.310096 
L 570.608392 395.310096 
L 570.608392 396.0144 
z
" clip-path="url(#p383bb9c4a0)" style="fill: none; opacity: 0"/>
   </g>
   <g id="patch_11">
    <path d="M 125.118881 395.94397 
L 157.636364 395.94397 
L 157.636364 69.7104 
L 125.118881 69.7104 
z
" clip-path="url(#p383bb9c4a0)" style="fill: #eee950"/>
   </g>
   <g id="patch_12">
    <path d="M 190.153846 395.94397 
L 222.671329 395.94397 
L 222.671329 117.321344 
L 190.153846 117.321344 
z
" clip-path="url(#p383bb9c4a0)" style="fill: #4aa45b"/>
   </g>
   <g id="patch_13">
    <path d="M 255.188811 395.94397 
L 287.706294 395.94397 
L 287.706294 139.718208 
L 255.188811 139.718208 
z
" clip-path="url(#p383bb9c4a0)" style="fill: #3d55a0"/>
   </g>
   <g id="patch_14">
    <path d="M 320.223776 395.94397 
L 352.741259 395.94397 
L 352.741259 166.622618 
L 320.223776 166.622618 
z
" clip-path="url(#p383bb9c4a0)" style="fill: #c765a3"/>
   </g>
   <g id="patch_15">
    <path d="M 385.258741 395.94397 
L 417.776224 395.94397 
L 417.776224 179.793101 
L 385.258741 179.793101 
z
" clip-path="url(#p383bb9c4a0)" style="fill: #e2974f"/>
   </g>
   <g id="patch_16">
    <path d="M 450.293706 395.94397 
L 482.811189 395.94397 
L 482.811189 195.85123 
L 450.293706 195.85123 
z
" clip-path="url(#p383bb9c4a0)" style="fill: #d8473d"/>
   </g>
   <g id="patch_17">
    <path d="M 515.328671 395.94397 
L 547.846154 395.94397 
L 547.846154 131.900435 
L 515.328671 131.900435 
z
" clip-path="url(#p383bb9c4a0)" style="fill: #b8b4a1"/>
   </g>
   <g id="patch_18">
    <path d="M 580.363636 395.94397 
L 612.881119 395.94397 
L 612.881119 171.271023 
L 580.363636 171.271023 
z
" clip-path="url(#p383bb9c4a0)" style="fill: #437579"/>
   </g>
   <g id="matplotlib.axis_1"/>
   <g id="matplotlib.axis_2"/>
  </g>
 </g>
 <defs>
  <clipPath id="p383bb9c4a0">
   <rect x="90" y="53.3952" width="558" height="342.6192"/>
  </clipPath>
 </defs>
</svg>
