<svg id="_图层_1" data-name=" 图层 1" xmlns="http://www.w3.org/2000/svg" xmlns:xlink="http://www.w3.org/1999/xlink" viewBox="0 0 721.73 1333.44"><defs><style>.cls-1{fill:none;}.cls-2{fill:#fff;}.cls-3{clip-path:url(#clip-path);}.cls-4{fill:#3d55a0;}.cls-5{fill:#9ac9db;}.cls-6{fill:#f0768b;}.cls-7{fill:#4aa45b;}.cls-8{fill:#eee950;}.cls-9{fill:#e2974f;}.cls-10{fill:#c765a3;}.cls-11{fill:#d8473d;}.cls-12{clip-path:url(#clip-path-66);}.cls-13{fill:#834127;}.cls-14{fill:#fcbcd7;}.cls-15{clip-path:url(#clip-path-141);}.cls-16{fill:#437579;}.cls-17{fill:#b8b4a1;}.cls-18,.cls-19,.cls-20{isolation:isolate;}.cls-19,.cls-20{font-size:24px;}.cls-19{font-family:ArialMT, Arial;}.cls-20{font-family:Arial-ItalicMT, Arial;font-style:italic;}</style><clipPath id="clip-path" transform="translate(-0.25 -0.02)"><rect id="SVGID" class="cls-1" x="90.25" y="941.9" width="558" height="342.62"/></clipPath><clipPath id="clip-path-66" transform="translate(-0.25 -0.02)"><rect id="SVGID-66" data-name="SVGID" class="cls-1" x="91.98" y="53.42" width="558" height="342.62"/></clipPath><clipPath id="clip-path-141" transform="translate(-0.25 -0.02)"><rect id="SVGID-141" data-name="SVGID" class="cls-1" x="90.5" y="502.42" width="558" height="342.62"/></clipPath></defs><title>Camelina_sativa.karyotype</title><g id="figure_1" data-name="figure 1"><g id="patch_1" data-name="patch 1"><path class="cls-2" d="M.25,1333.46h720v-445H.25Z" transform="translate(-0.25 -0.02)"/></g><g id="axes_1" data-name="axes 1"><g id="patch_2" data-name="patch 2"><path class="cls-2" d="M90.25,1284.52h558V941.9h-558Z" transform="translate(-0.25 -0.02)"/></g><g id="patch_3" data-name="patch 3"><g class="cls-3"><path class="cls-1" d="M115.61,1284.52h20.5V1284h-20.5Z" transform="translate(-0.25 -0.02)"/></g></g><g id="patch_4" data-name="patch 4"><g class="cls-3"><path class="cls-1" d="M141.23,1284.52h20.5V1284h-20.5Z" transform="translate(-0.25 -0.02)"/></g></g><g id="patch_5" data-name="patch 5"><g class="cls-3"><path class="cls-1" d="M166.85,1284.52h20.5V1284h-20.5Z" transform="translate(-0.25 -0.02)"/></g></g><g id="patch_6" data-name="patch 6"><g class="cls-3"><path class="cls-1" d="M192.47,1284.52H213V1284h-20.5Z" transform="translate(-0.25 -0.02)"/></g></g><g id="patch_7" data-name="patch 7"><g class="cls-3"><path class="cls-1" d="M218.09,1284.52h20.5V1284h-20.5Z" transform="translate(-0.25 -0.02)"/></g></g><g id="patch_8" data-name="patch 8"><g class="cls-3"><path class="cls-1" d="M243.71,1284.52h20.5V1284h-20.5Z" transform="translate(-0.25 -0.02)"/></g></g><g id="patch_9" data-name="patch 9"><g class="cls-3"><path class="cls-1" d="M269.33,1284.52h20.5V1284h-20.5Z" transform="translate(-0.25 -0.02)"/></g></g><g id="patch_10" data-name="patch 10"><g class="cls-3"><path class="cls-1" d="M295,1284.52h20.5V1284H295Z" transform="translate(-0.25 -0.02)"/></g></g><g id="patch_11" data-name="patch 11"><g class="cls-3"><path class="cls-1" d="M320.57,1284.52h20.5V1284h-20.5Z" transform="translate(-0.25 -0.02)"/></g></g><g id="patch_12" data-name="patch 12"><g class="cls-3"><path class="cls-1" d="M346.19,1284.52h20.5V1284h-20.5Z" transform="translate(-0.25 -0.02)"/></g></g><g id="patch_13" data-name="patch 13"><g class="cls-3"><path class="cls-1" d="M371.81,1284.52h20.5V1284h-20.5Z" transform="translate(-0.25 -0.02)"/></g></g><g id="patch_14" data-name="patch 14"><g class="cls-3"><path class="cls-1" d="M397.43,1284.52h20.5V1284h-20.5Z" transform="translate(-0.25 -0.02)"/></g></g><g id="patch_15" data-name="patch 15"><g class="cls-3"><path class="cls-1" d="M423.05,1284.52h20.5V1284h-20.5Z" transform="translate(-0.25 -0.02)"/></g></g><g id="patch_16" data-name="patch 16"><g class="cls-3"><path class="cls-1" d="M448.67,1284.52h20.5V1284h-20.5Z" transform="translate(-0.25 -0.02)"/></g></g><g id="patch_17" data-name="patch 17"><g class="cls-3"><path class="cls-1" d="M474.29,1284.52h20.5V1284h-20.5Z" transform="translate(-0.25 -0.02)"/></g></g><g id="patch_18" data-name="patch 18"><g class="cls-3"><path class="cls-1" d="M499.91,1284.52h20.5V1284h-20.5Z" transform="translate(-0.25 -0.02)"/></g></g><g id="patch_19" data-name="patch 19"><g class="cls-3"><path class="cls-1" d="M525.53,1284.52H546V1284h-20.5Z" transform="translate(-0.25 -0.02)"/></g></g><g id="patch_20" data-name="patch 20"><g class="cls-3"><path class="cls-1" d="M551.15,1284.52h20.5V1284h-20.5Z" transform="translate(-0.25 -0.02)"/></g></g><g id="patch_21" data-name="patch 21"><g class="cls-3"><path class="cls-1" d="M576.77,1284.52h20.5V1284h-20.5Z" transform="translate(-0.25 -0.02)"/></g></g><g id="patch_22" data-name="patch 22"><g class="cls-3"><path class="cls-1" d="M602.39,1284.52h20.5V1284h-20.5Z" transform="translate(-0.25 -0.02)"/></g></g><g id="patch_23" data-name="patch 23"><g class="cls-3"><path class="cls-4" d="M119.46,1284.47h12.81V1118.81H119.46Z" transform="translate(-0.25 -0.02)"/></g></g><g id="patch_24" data-name="patch 24"><g class="cls-3"><path class="cls-5" d="M145.08,1284.47h12.81v-56.41H145.08Z" transform="translate(-0.25 -0.02)"/></g></g><g id="patch_25" data-name="patch 25"><g class="cls-3"><path class="cls-6" d="M145.08,1228h12.81v-37.87H145.08Z" transform="translate(-0.25 -0.02)"/></g></g><g id="patch_26" data-name="patch 26"><g class="cls-3"><path class="cls-7" d="M145.08,1190.09h12.81v-11.77H145.08Z" transform="translate(-0.25 -0.02)"/></g></g><g id="patch_27" data-name="patch 27"><g class="cls-3"><path class="cls-6" d="M145.08,1178.27h12.81v-70.18H145.08Z" transform="translate(-0.25 -0.02)"/></g></g><g id="patch_28" data-name="patch 28"><g class="cls-3"><path class="cls-8" d="M170.7,1284.47h12.81V1072.12H170.7Z" transform="translate(-0.25 -0.02)"/></g></g><g id="patch_29" data-name="patch 29"><g class="cls-3"><path class="cls-9" d="M196.32,1284.47h12.81v-121H196.32Z" transform="translate(-0.25 -0.02)"/></g></g><g id="patch_30" data-name="patch 30"><g class="cls-3"><path class="cls-10" d="M196.32,1163.44h12.81V1088.1H196.32Z" transform="translate(-0.25 -0.02)"/></g></g><g id="patch_31" data-name="patch 31"><g class="cls-3"><path class="cls-10" d="M221.94,1284.47h12.81V1155.93H221.94Z" transform="translate(-0.25 -0.02)"/></g></g><g id="patch_32" data-name="patch 32"><g class="cls-3"><path class="cls-11" d="M221.94,1155.88h12.81v-53.4H221.94Z" transform="translate(-0.25 -0.02)"/></g></g><g id="patch_33" data-name="patch 33"><g class="cls-3"><path class="cls-9" d="M221.94,1102.43h12.81v-25.65H221.94Z" transform="translate(-0.25 -0.02)"/></g></g><g id="patch_34" data-name="patch 34"><g class="cls-3"><path class="cls-9" d="M247.56,1284.47h12.81v-116H247.56Z" transform="translate(-0.25 -0.02)"/></g></g><g id="patch_35" data-name="patch 35"><g class="cls-3"><path class="cls-10" d="M247.56,1168.4h12.81v-75.34H247.56Z" transform="translate(-0.25 -0.02)"/></g></g><g id="patch_36" data-name="patch 36"><g class="cls-3"><path class="cls-9" d="M273.18,1284.47H286v-23H273.18Z" transform="translate(-0.25 -0.02)"/></g></g><g id="patch_37" data-name="patch 37"><g class="cls-3"><path class="cls-10" d="M273.18,1261.47H286v-36.31H273.18Z" transform="translate(-0.25 -0.02)"/></g></g><g id="patch_38" data-name="patch 38"><g class="cls-3"><path class="cls-11" d="M273.18,1225.11H286v-89.42H273.18Z" transform="translate(-0.25 -0.02)"/></g></g><g id="patch_39" data-name="patch 39"><g class="cls-3"><path class="cls-10" d="M273.18,1135.64H286v-25.9H273.18Z" transform="translate(-0.25 -0.02)"/></g></g><g id="patch_40" data-name="patch 40"><g class="cls-3"><path class="cls-11" d="M273.18,1109.69H286V1097H273.18Z" transform="translate(-0.25 -0.02)"/></g></g><g id="patch_41" data-name="patch 41"><g class="cls-3"><path class="cls-10" d="M273.18,1097H286v-6.26H273.18Z" transform="translate(-0.25 -0.02)"/></g></g><g id="patch_42" data-name="patch 42"><g class="cls-3"><path class="cls-11" d="M273.18,1090.66H286V1068H273.18Z" transform="translate(-0.25 -0.02)"/></g></g><g id="patch_43" data-name="patch 43"><g class="cls-3"><path class="cls-5" d="M298.8,1284.47h12.81v-186.7H298.8Z" transform="translate(-0.25 -0.02)"/></g></g><g id="patch_44" data-name="patch 44"><g class="cls-3"><path class="cls-9" d="M324.42,1284.47h12.81v-133.8H324.42Z" transform="translate(-0.25 -0.02)"/></g></g><g id="patch_45" data-name="patch 45"><g class="cls-3"><path class="cls-11" d="M324.42,1150.62h12.81v-44.08H324.42Z" transform="translate(-0.25 -0.02)"/></g></g><g id="patch_46" data-name="patch 46"><g class="cls-3"><path class="cls-10" d="M324.42,1106.49h12.81v-28H324.42Z" transform="translate(-0.25 -0.02)"/></g></g><g id="patch_47" data-name="patch 47"><g class="cls-3"><path class="cls-11" d="M324.42,1078.43h12.81v-35H324.42Z" transform="translate(-0.25 -0.02)"/></g></g><g id="patch_48" data-name="patch 48"><g class="cls-3"><path class="cls-7" d="M350,1284.47h12.81V1104.83H350Z" transform="translate(-0.25 -0.02)"/></g></g><g id="patch_49" data-name="patch 49"><g class="cls-3"><path class="cls-7" d="M375.65,1284.47h12.81v-188H375.65Z" transform="translate(-0.25 -0.02)"/></g></g><g id="patch_50" data-name="patch 50"><g class="cls-3"><path class="cls-6" d="M375.65,1096.47h12.81V958.21H375.65Z" transform="translate(-0.25 -0.02)"/></g></g><g id="patch_51" data-name="patch 51"><g class="cls-3"><path class="cls-7" d="M401.27,1284.47h12.81V1092.56H401.27Z" transform="translate(-0.25 -0.02)"/></g></g><g id="patch_52" data-name="patch 52"><g class="cls-3"><path class="cls-5" d="M426.89,1284.47H439.7V1107.64H426.89Z" transform="translate(-0.25 -0.02)"/></g></g><g id="patch_53" data-name="patch 53"><g class="cls-3"><path class="cls-8" d="M452.51,1284.47h12.81V1065.86H452.51Z" transform="translate(-0.25 -0.02)"/></g></g><g id="patch_54" data-name="patch 54"><g class="cls-3"><path class="cls-4" d="M478.13,1284.47h12.81V1093.56H478.13Z" transform="translate(-0.25 -0.02)"/></g></g><g id="patch_55" data-name="patch 55"><g class="cls-3"><path class="cls-9" d="M503.75,1284.47h12.81v-23.2H503.75Z" transform="translate(-0.25 -0.02)"/></g></g><g id="patch_56" data-name="patch 56"><g class="cls-3"><path class="cls-10" d="M503.75,1261.22h12.81v-33.91H503.75Z" transform="translate(-0.25 -0.02)"/></g></g><g id="patch_57" data-name="patch 57"><g class="cls-3"><path class="cls-11" d="M503.75,1227.26h12.81V1143.2H503.75Z" transform="translate(-0.25 -0.02)"/></g></g><g id="patch_58" data-name="patch 58"><g class="cls-3"><path class="cls-10" d="M503.75,1143.15h12.81v-25.44H503.75Z" transform="translate(-0.25 -0.02)"/></g></g><g id="patch_59" data-name="patch 59"><g class="cls-3"><path class="cls-11" d="M503.75,1117.66h12.81v-13H503.75Z" transform="translate(-0.25 -0.02)"/></g></g><g id="patch_60" data-name="patch 60"><g class="cls-3"><path class="cls-10" d="M503.75,1104.58h12.81v-6.71H503.75Z" transform="translate(-0.25 -0.02)"/></g></g><g id="patch_61" data-name="patch 61"><g class="cls-3"><path class="cls-11" d="M503.75,1097.82h12.81v-21.09H503.75Z" transform="translate(-0.25 -0.02)"/></g></g><g id="patch_62" data-name="patch 62"><g class="cls-3"><path class="cls-8" d="M529.37,1284.47h12.81v-231H529.37Z" transform="translate(-0.25 -0.02)"/></g></g><g id="patch_63" data-name="patch 63"><g class="cls-3"><path class="cls-11" d="M529.37,1053.44h12.81v-5.31H529.37Z" transform="translate(-0.25 -0.02)"/></g></g><g id="patch_64" data-name="patch 64"><g class="cls-3"><path class="cls-6" d="M555,1284.47H567.8V1144.66H555Z" transform="translate(-0.25 -0.02)"/></g></g><g id="patch_65" data-name="patch 65"><g class="cls-3"><path class="cls-4" d="M580.61,1284.47h12.81V1106.89H580.61Z" transform="translate(-0.25 -0.02)"/></g></g><g id="patch_66" data-name="patch 66"><g class="cls-3"><path class="cls-5" d="M606.23,1284.47H619V1136.09H606.23Z" transform="translate(-0.25 -0.02)"/></g></g><g id="patch_67" data-name="patch 67"><g class="cls-3"><path class="cls-6" d="M606.23,1136H619v-36.92H606.23Z" transform="translate(-0.25 -0.02)"/></g></g></g></g><g id="figure_1-2" data-name="figure 1"><g id="patch_1-2" data-name="patch 1"><path class="cls-2" d="M2,445H722V0H2Z" transform="translate(-0.25 -0.02)"/></g><g id="axes_1-2" data-name="axes 1"><g id="patch_2-2" data-name="patch 2"><path class="cls-2" d="M92,396H650V53.42H92Z" transform="translate(-0.25 -0.02)"/></g><g id="patch_3-2" data-name="patch 3"><g class="cls-12"><path class="cls-1" d="M117.34,396h20.49v-.51H117.34Z" transform="translate(-0.25 -0.02)"/></g></g><g id="patch_4-2" data-name="patch 4"><g class="cls-12"><path class="cls-1" d="M143,396h20.49v-.51H143Z" transform="translate(-0.25 -0.02)"/></g></g><g id="patch_5-2" data-name="patch 5"><g class="cls-12"><path class="cls-1" d="M168.58,396h20.49v-.51H168.58Z" transform="translate(-0.25 -0.02)"/></g></g><g id="patch_6-2" data-name="patch 6"><g class="cls-12"><path class="cls-1" d="M194.2,396h20.49v-.51H194.2Z" transform="translate(-0.25 -0.02)"/></g></g><g id="patch_7-2" data-name="patch 7"><g class="cls-12"><path class="cls-1" d="M219.82,396h20.49v-.51H219.82Z" transform="translate(-0.25 -0.02)"/></g></g><g id="patch_8-2" data-name="patch 8"><g class="cls-12"><path class="cls-1" d="M245.44,396h20.49v-.51H245.44Z" transform="translate(-0.25 -0.02)"/></g></g><g id="patch_9-2" data-name="patch 9"><g class="cls-12"><path class="cls-1" d="M271.06,396h20.49v-.51H271.06Z" transform="translate(-0.25 -0.02)"/></g></g><g id="patch_10-2" data-name="patch 10"><g class="cls-12"><path class="cls-1" d="M296.68,396h20.49v-.51H296.68Z" transform="translate(-0.25 -0.02)"/></g></g><g id="patch_11-2" data-name="patch 11"><g class="cls-12"><path class="cls-1" d="M322.3,396h20.49v-.51H322.3Z" transform="translate(-0.25 -0.02)"/></g></g><g id="patch_12-2" data-name="patch 12"><g class="cls-12"><path class="cls-1" d="M347.92,396h20.49v-.51H347.92Z" transform="translate(-0.25 -0.02)"/></g></g><g id="patch_13-2" data-name="patch 13"><g class="cls-12"><path class="cls-1" d="M373.54,396H394v-.51H373.54Z" transform="translate(-0.25 -0.02)"/></g></g><g id="patch_14-2" data-name="patch 14"><g class="cls-12"><path class="cls-1" d="M399.16,396h20.49v-.51H399.16Z" transform="translate(-0.25 -0.02)"/></g></g><g id="patch_15-2" data-name="patch 15"><g class="cls-12"><path class="cls-1" d="M424.78,396h20.49v-.51H424.78Z" transform="translate(-0.25 -0.02)"/></g></g><g id="patch_16-2" data-name="patch 16"><g class="cls-12"><path class="cls-1" d="M450.4,396h20.49v-.51H450.4Z" transform="translate(-0.25 -0.02)"/></g></g><g id="patch_17-2" data-name="patch 17"><g class="cls-12"><path class="cls-1" d="M476,396h20.49v-.51H476Z" transform="translate(-0.25 -0.02)"/></g></g><g id="patch_18-2" data-name="patch 18"><g class="cls-12"><path class="cls-1" d="M501.64,396h20.49v-.51H501.64Z" transform="translate(-0.25 -0.02)"/></g></g><g id="patch_19-2" data-name="patch 19"><g class="cls-12"><path class="cls-1" d="M527.26,396h20.49v-.51H527.26Z" transform="translate(-0.25 -0.02)"/></g></g><g id="patch_20-2" data-name="patch 20"><g class="cls-12"><path class="cls-1" d="M552.88,396h20.49v-.51H552.88Z" transform="translate(-0.25 -0.02)"/></g></g><g id="patch_21-2" data-name="patch 21"><g class="cls-12"><path class="cls-1" d="M578.5,396H599v-.51H578.5Z" transform="translate(-0.25 -0.02)"/></g></g><g id="patch_22-2" data-name="patch 22"><g class="cls-12"><path class="cls-1" d="M604.12,396h20.49v-.51H604.12Z" transform="translate(-0.25 -0.02)"/></g></g><g id="patch_23-2" data-name="patch 23"><g class="cls-12"><path class="cls-4" d="M121.18,396H134V230.33H121.18Z" transform="translate(-0.25 -0.02)"/></g></g><g id="patch_24-2" data-name="patch 24"><g class="cls-12"><path class="cls-13" d="M146.8,396h12.81V339.88H146.8Z" transform="translate(-0.25 -0.02)"/></g></g><g id="patch_25-2" data-name="patch 25"><g class="cls-12"><path class="cls-14" d="M146.8,339.83h12.81v-8.46H146.8Z" transform="translate(-0.25 -0.02)"/></g></g><g id="patch_26-2" data-name="patch 26"><g class="cls-12"><path class="cls-13" d="M146.8,331.32h12.81V301.66H146.8Z" transform="translate(-0.25 -0.02)"/></g></g><g id="patch_27-2" data-name="patch 27"><g class="cls-12"><path class="cls-7" d="M146.8,301.61h12.81V289.84H146.8Z" transform="translate(-0.25 -0.02)"/></g></g><g id="patch_28-2" data-name="patch 28"><g class="cls-12"><path class="cls-13" d="M146.8,289.79h12.81V257.58H146.8Z" transform="translate(-0.25 -0.02)"/></g></g><g id="patch_29-2" data-name="patch 29"><g class="cls-12"><path class="cls-14" d="M146.8,257.53h12.81V219.61H146.8Z" transform="translate(-0.25 -0.02)"/></g></g><g id="patch_30-2" data-name="patch 30"><g class="cls-12"><path class="cls-8" d="M172.42,396h12.81V183.64H172.42Z" transform="translate(-0.25 -0.02)"/></g></g><g id="patch_31-2" data-name="patch 31"><g class="cls-12"><path class="cls-9" d="M198,396h12.81V275H198Z" transform="translate(-0.25 -0.02)"/></g></g><g id="patch_32-2" data-name="patch 32"><g class="cls-12"><path class="cls-10" d="M198,275h12.81V199.62H198Z" transform="translate(-0.25 -0.02)"/></g></g><g id="patch_33-2" data-name="patch 33"><g class="cls-12"><path class="cls-10" d="M223.66,396h12.81V267.45H223.66Z" transform="translate(-0.25 -0.02)"/></g></g><g id="patch_34-2" data-name="patch 34"><g class="cls-12"><path class="cls-11" d="M223.66,267.4h12.81V214H223.66Z" transform="translate(-0.25 -0.02)"/></g></g><g id="patch_35-2" data-name="patch 35"><g class="cls-12"><path class="cls-9" d="M223.66,214h12.81V188.3H223.66Z" transform="translate(-0.25 -0.02)"/></g></g><g id="patch_36-2" data-name="patch 36"><g class="cls-12"><path class="cls-9" d="M249.28,396h12.81V280H249.28Z" transform="translate(-0.25 -0.02)"/></g></g><g id="patch_37-2" data-name="patch 37"><g class="cls-12"><path class="cls-10" d="M249.28,279.92h12.81V204.58H249.28Z" transform="translate(-0.25 -0.02)"/></g></g><g id="patch_38-2" data-name="patch 38"><g class="cls-12"><path class="cls-9" d="M274.9,396h12.81V373H274.9Z" transform="translate(-0.25 -0.02)"/></g></g><g id="patch_39-2" data-name="patch 39"><g class="cls-12"><path class="cls-10" d="M274.9,373h12.81V336.68H274.9Z" transform="translate(-0.25 -0.02)"/></g></g><g id="patch_40-2" data-name="patch 40"><g class="cls-12"><path class="cls-11" d="M274.9,336.63h12.81V247.21H274.9Z" transform="translate(-0.25 -0.02)"/></g></g><g id="patch_41-2" data-name="patch 41"><g class="cls-12"><path class="cls-10" d="M274.9,247.16h12.81v-25.9H274.9Z" transform="translate(-0.25 -0.02)"/></g></g><g id="patch_42-2" data-name="patch 42"><g class="cls-12"><path class="cls-11" d="M274.9,221.21h12.81V208.54H274.9Z" transform="translate(-0.25 -0.02)"/></g></g><g id="patch_43-2" data-name="patch 43"><g class="cls-12"><path class="cls-10" d="M274.9,208.49h12.81v-6.26H274.9Z" transform="translate(-0.25 -0.02)"/></g></g><g id="patch_44-2" data-name="patch 44"><g class="cls-12"><path class="cls-11" d="M274.9,202.18h12.81v-22.7H274.9Z" transform="translate(-0.25 -0.02)"/></g></g><g id="patch_45-2" data-name="patch 45"><g class="cls-12"><path class="cls-13" d="M300.52,396h12.81V332.17H300.52Z" transform="translate(-0.25 -0.02)"/></g></g><g id="patch_46-2" data-name="patch 46"><g class="cls-12"><path class="cls-14" d="M300.52,332.12h12.81V303.71H300.52Z" transform="translate(-0.25 -0.02)"/></g></g><g id="patch_47-2" data-name="patch 47"><g class="cls-12"><path class="cls-13" d="M300.52,303.66h12.81V209.29H300.52Z" transform="translate(-0.25 -0.02)"/></g></g><g id="patch_48-2" data-name="patch 48"><g class="cls-12"><path class="cls-9" d="M326.14,396H339V262.19H326.14Z" transform="translate(-0.25 -0.02)"/></g></g><g id="patch_49-2" data-name="patch 49"><g class="cls-12"><path class="cls-11" d="M326.14,262.14H339V218.06H326.14Z" transform="translate(-0.25 -0.02)"/></g></g><g id="patch_50-2" data-name="patch 50"><g class="cls-12"><path class="cls-10" d="M326.14,218H339V190H326.14Z" transform="translate(-0.25 -0.02)"/></g></g><g id="patch_51-2" data-name="patch 51"><g class="cls-12"><path class="cls-11" d="M326.14,190H339v-35H326.14Z" transform="translate(-0.25 -0.02)"/></g></g><g id="patch_52-2" data-name="patch 52"><g class="cls-12"><path class="cls-7" d="M351.76,396h12.81V216.35H351.76Z" transform="translate(-0.25 -0.02)"/></g></g><g id="patch_53-2" data-name="patch 53"><g class="cls-12"><path class="cls-7" d="M377.38,396h12.81V208H377.38Z" transform="translate(-0.25 -0.02)"/></g></g><g id="patch_54-2" data-name="patch 54"><g class="cls-12"><path class="cls-14" d="M377.38,208h12.81V165.41H377.38Z" transform="translate(-0.25 -0.02)"/></g></g><g id="patch_55-2" data-name="patch 55"><g class="cls-12"><path class="cls-13" d="M377.38,165.36h12.81V105.55H377.38Z" transform="translate(-0.25 -0.02)"/></g></g><g id="patch_56-2" data-name="patch 56"><g class="cls-12"><path class="cls-14" d="M377.38,105.5h12.81V69.73H377.38Z" transform="translate(-0.25 -0.02)"/></g></g><g id="patch_57-2" data-name="patch 57"><g class="cls-12"><path class="cls-7" d="M403,396h12.81V204.08H403Z" transform="translate(-0.25 -0.02)"/></g></g><g id="patch_58-2" data-name="patch 58"><g class="cls-12"><path class="cls-13" d="M428.62,396h12.81V292.24H428.62Z" transform="translate(-0.25 -0.02)"/></g></g><g id="patch_59-2" data-name="patch 59"><g class="cls-12"><path class="cls-14" d="M428.62,292.19h12.81V266.7H428.62Z" transform="translate(-0.25 -0.02)"/></g></g><g id="patch_60-2" data-name="patch 60"><g class="cls-12"><path class="cls-13" d="M428.62,266.65h12.81V219.16H428.62Z" transform="translate(-0.25 -0.02)"/></g></g><g id="patch_61-2" data-name="patch 61"><g class="cls-12"><path class="cls-8" d="M454.24,396h12.81V177.38H454.24Z" transform="translate(-0.25 -0.02)"/></g></g><g id="patch_62-2" data-name="patch 62"><g class="cls-12"><path class="cls-4" d="M479.86,396h12.81V205.08H479.86Z" transform="translate(-0.25 -0.02)"/></g></g><g id="patch_63-2" data-name="patch 63"><g class="cls-12"><path class="cls-9" d="M505.48,396h12.81V372.74H505.48Z" transform="translate(-0.25 -0.02)"/></g></g><g id="patch_64-2" data-name="patch 64"><g class="cls-12"><path class="cls-10" d="M505.48,372.69h12.81V338.83H505.48Z" transform="translate(-0.25 -0.02)"/></g></g><g id="patch_65-2" data-name="patch 65"><g class="cls-12"><path class="cls-11" d="M505.48,338.78h12.81V254.62H505.48Z" transform="translate(-0.25 -0.02)"/></g></g><g id="patch_66-2" data-name="patch 66"><g class="cls-12"><path class="cls-10" d="M505.48,254.57h12.81V229.23H505.48Z" transform="translate(-0.25 -0.02)"/></g></g><g id="patch_67-2" data-name="patch 67"><g class="cls-12"><path class="cls-11" d="M505.48,229.18h12.81v-13H505.48Z" transform="translate(-0.25 -0.02)"/></g></g><g id="patch_68" data-name="patch 68"><g class="cls-12"><path class="cls-10" d="M505.48,216.1h12.81v-6.76H505.48Z" transform="translate(-0.25 -0.02)"/></g></g><g id="patch_69" data-name="patch 69"><g class="cls-12"><path class="cls-11" d="M505.48,209.29h12.81v-21H505.48Z" transform="translate(-0.25 -0.02)"/></g></g><g id="patch_70" data-name="patch 70"><g class="cls-12"><path class="cls-8" d="M531.1,396h12.81V165H531.1Z" transform="translate(-0.25 -0.02)"/></g></g><g id="patch_71" data-name="patch 71"><g class="cls-12"><path class="cls-11" d="M531.1,165h12.81v-5.31H531.1Z" transform="translate(-0.25 -0.02)"/></g></g><g id="patch_72" data-name="patch 72"><g class="cls-12"><path class="cls-14" d="M556.72,396h12.81V352.56H556.72Z" transform="translate(-0.25 -0.02)"/></g></g><g id="patch_73" data-name="patch 73"><g class="cls-12"><path class="cls-13" d="M556.72,352.51h12.81V290.94H556.72Z" transform="translate(-0.25 -0.02)"/></g></g><g id="patch_74" data-name="patch 74"><g class="cls-12"><path class="cls-14" d="M556.72,290.89h12.81V256.18H556.72Z" transform="translate(-0.25 -0.02)"/></g></g><g id="patch_75" data-name="patch 75"><g class="cls-12"><path class="cls-4" d="M582.34,396h12.81V218.41H582.34Z" transform="translate(-0.25 -0.02)"/></g></g><g id="patch_76" data-name="patch 76"><g class="cls-12"><path class="cls-13" d="M608,396h12.81V281.32H608Z" transform="translate(-0.25 -0.02)"/></g></g><g id="patch_77" data-name="patch 77"><g class="cls-12"><path class="cls-14" d="M608,281.27h12.81V210.64H608Z" transform="translate(-0.25 -0.02)"/></g></g></g></g><g id="figure_1-3" data-name="figure 1"><g id="patch_1-3" data-name="patch 1"><path class="cls-2" d="M.5,894h720V449H.5Z" transform="translate(-0.25 -0.02)"/></g><g id="axes_1-3" data-name="axes 1"><g id="patch_2-3" data-name="patch 2"><path class="cls-2" d="M90.5,845h558V502.42H90.5Z" transform="translate(-0.25 -0.02)"/></g><g id="patch_3-3" data-name="patch 3"><g class="cls-15"><path class="cls-1" d="M115.86,845h20.5v-.51h-20.5Z" transform="translate(-0.25 -0.02)"/></g></g><g id="patch_4-3" data-name="patch 4"><g class="cls-15"><path class="cls-1" d="M141.48,845H162v-.51h-20.5Z" transform="translate(-0.25 -0.02)"/></g></g><g id="patch_5-3" data-name="patch 5"><g class="cls-15"><path class="cls-1" d="M167.1,845h20.5v-.51H167.1Z" transform="translate(-0.25 -0.02)"/></g></g><g id="patch_6-3" data-name="patch 6"><g class="cls-15"><path class="cls-1" d="M192.72,845h20.5v-.51h-20.5Z" transform="translate(-0.25 -0.02)"/></g></g><g id="patch_7-3" data-name="patch 7"><g class="cls-15"><path class="cls-1" d="M218.34,845h20.5v-.51h-20.5Z" transform="translate(-0.25 -0.02)"/></g></g><g id="patch_8-3" data-name="patch 8"><g class="cls-15"><path class="cls-1" d="M244,845h20.5v-.51H244Z" transform="translate(-0.25 -0.02)"/></g></g><g id="patch_9-3" data-name="patch 9"><g class="cls-15"><path class="cls-1" d="M269.58,845h20.5v-.51h-20.5Z" transform="translate(-0.25 -0.02)"/></g></g><g id="patch_10-3" data-name="patch 10"><g class="cls-15"><path class="cls-1" d="M295.2,845h20.5v-.51H295.2Z" transform="translate(-0.25 -0.02)"/></g></g><g id="patch_11-3" data-name="patch 11"><g class="cls-15"><path class="cls-1" d="M320.82,845h20.5v-.51h-20.5Z" transform="translate(-0.25 -0.02)"/></g></g><g id="patch_12-3" data-name="patch 12"><g class="cls-15"><path class="cls-1" d="M346.44,845h20.5v-.51h-20.5Z" transform="translate(-0.25 -0.02)"/></g></g><g id="patch_13-3" data-name="patch 13"><g class="cls-15"><path class="cls-1" d="M372.06,845h20.5v-.51h-20.5Z" transform="translate(-0.25 -0.02)"/></g></g><g id="patch_14-3" data-name="patch 14"><g class="cls-15"><path class="cls-1" d="M397.68,845h20.5v-.51h-20.5Z" transform="translate(-0.25 -0.02)"/></g></g><g id="patch_15-3" data-name="patch 15"><g class="cls-15"><path class="cls-1" d="M423.3,845h20.5v-.51H423.3Z" transform="translate(-0.25 -0.02)"/></g></g><g id="patch_16-3" data-name="patch 16"><g class="cls-15"><path class="cls-1" d="M448.92,845h20.5v-.51h-20.5Z" transform="translate(-0.25 -0.02)"/></g></g><g id="patch_17-3" data-name="patch 17"><g class="cls-15"><path class="cls-1" d="M474.54,845H495v-.51h-20.5Z" transform="translate(-0.25 -0.02)"/></g></g><g id="patch_18-3" data-name="patch 18"><g class="cls-15"><path class="cls-1" d="M500.16,845h20.5v-.51h-20.5Z" transform="translate(-0.25 -0.02)"/></g></g><g id="patch_19-3" data-name="patch 19"><g class="cls-15"><path class="cls-1" d="M525.78,845h20.5v-.51h-20.5Z" transform="translate(-0.25 -0.02)"/></g></g><g id="patch_20-3" data-name="patch 20"><g class="cls-15"><path class="cls-1" d="M551.4,845h20.5v-.51H551.4Z" transform="translate(-0.25 -0.02)"/></g></g><g id="patch_21-3" data-name="patch 21"><g class="cls-15"><path class="cls-1" d="M577,845h20.5v-.51H577Z" transform="translate(-0.25 -0.02)"/></g></g><g id="patch_22-3" data-name="patch 22"><g class="cls-15"><path class="cls-1" d="M602.64,845h20.5v-.51h-20.5Z" transform="translate(-0.25 -0.02)"/></g></g><g id="patch_23-3" data-name="patch 23"><g class="cls-15"><path class="cls-4" d="M119.71,845h12.81V679.33H119.71Z" transform="translate(-0.25 -0.02)"/></g></g><g id="patch_24-3" data-name="patch 24"><g class="cls-15"><path class="cls-16" d="M145.33,845h12.81V788.88H145.33Z" transform="translate(-0.25 -0.02)"/></g></g><g id="patch_25-3" data-name="patch 25"><g class="cls-15"><path class="cls-17" d="M145.33,788.83h12.81V780H145.33Z" transform="translate(-0.25 -0.02)"/></g></g><g id="patch_26-3" data-name="patch 26"><g class="cls-15"><path class="cls-16" d="M145.33,780h12.81V750.66H145.33Z" transform="translate(-0.25 -0.02)"/></g></g><g id="patch_27-3" data-name="patch 27"><g class="cls-15"><path class="cls-7" d="M145.33,750.61h12.81V738.84H145.33Z" transform="translate(-0.25 -0.02)"/></g></g><g id="patch_28-3" data-name="patch 28"><g class="cls-15"><path class="cls-16" d="M145.33,738.79h12.81V668.61H145.33Z" transform="translate(-0.25 -0.02)"/></g></g><g id="patch_29-3" data-name="patch 29"><g class="cls-15"><path class="cls-8" d="M171,845h12.81V632.64H171Z" transform="translate(-0.25 -0.02)"/></g></g><g id="patch_30-3" data-name="patch 30"><g class="cls-15"><path class="cls-9" d="M196.57,845h12.81V724H196.57Z" transform="translate(-0.25 -0.02)"/></g></g><g id="patch_31-3" data-name="patch 31"><g class="cls-15"><path class="cls-10" d="M196.57,724h12.81V648.62H196.57Z" transform="translate(-0.25 -0.02)"/></g></g><g id="patch_32-3" data-name="patch 32"><g class="cls-15"><path class="cls-10" d="M222.19,845H235V716.45H222.19Z" transform="translate(-0.25 -0.02)"/></g></g><g id="patch_33-3" data-name="patch 33"><g class="cls-15"><path class="cls-11" d="M222.19,716.4H235V663H222.19Z" transform="translate(-0.25 -0.02)"/></g></g><g id="patch_34-3" data-name="patch 34"><g class="cls-15"><path class="cls-9" d="M222.19,663H235V637.3H222.19Z" transform="translate(-0.25 -0.02)"/></g></g><g id="patch_35-3" data-name="patch 35"><g class="cls-15"><path class="cls-9" d="M247.81,845h12.81V729H247.81Z" transform="translate(-0.25 -0.02)"/></g></g><g id="patch_36-3" data-name="patch 36"><g class="cls-15"><path class="cls-10" d="M247.81,728.92h12.81V653.58H247.81Z" transform="translate(-0.25 -0.02)"/></g></g><g id="patch_37-3" data-name="patch 37"><g class="cls-15"><path class="cls-9" d="M273.43,845h12.81V822H273.43Z" transform="translate(-0.25 -0.02)"/></g></g><g id="patch_38-3" data-name="patch 38"><g class="cls-15"><path class="cls-10" d="M273.43,822h12.81V785.68H273.43Z" transform="translate(-0.25 -0.02)"/></g></g><g id="patch_39-3" data-name="patch 39"><g class="cls-15"><path class="cls-11" d="M273.43,785.63h12.81V696.21H273.43Z" transform="translate(-0.25 -0.02)"/></g></g><g id="patch_40-3" data-name="patch 40"><g class="cls-15"><path class="cls-10" d="M273.43,696.16h12.81v-25.9H273.43Z" transform="translate(-0.25 -0.02)"/></g></g><g id="patch_41-3" data-name="patch 41"><g class="cls-15"><path class="cls-11" d="M273.43,670.21h12.81V657.54H273.43Z" transform="translate(-0.25 -0.02)"/></g></g><g id="patch_42-3" data-name="patch 42"><g class="cls-15"><path class="cls-10" d="M273.43,657.49h12.81v-6.26H273.43Z" transform="translate(-0.25 -0.02)"/></g></g><g id="patch_43-3" data-name="patch 43"><g class="cls-15"><path class="cls-11" d="M273.43,651.18h12.81v-22.7H273.43Z" transform="translate(-0.25 -0.02)"/></g></g><g id="patch_44-3" data-name="patch 44"><g class="cls-15"><path class="cls-16" d="M299.05,845h12.81v-4.41H299.05Z" transform="translate(-0.25 -0.02)"/></g></g><g id="patch_45-3" data-name="patch 45"><g class="cls-15"><path class="cls-17" d="M299.05,840.53h12.81V752.71H299.05Z" transform="translate(-0.25 -0.02)"/></g></g><g id="patch_46-3" data-name="patch 46"><g class="cls-15"><path class="cls-16" d="M299.05,752.66h12.81V706.38H299.05Z" transform="translate(-0.25 -0.02)"/></g></g><g id="patch_47-3" data-name="patch 47"><g class="cls-15"><path class="cls-17" d="M299.05,706.33h12.81v-48H299.05Z" transform="translate(-0.25 -0.02)"/></g></g><g id="patch_48-3" data-name="patch 48"><g class="cls-15"><path class="cls-9" d="M324.67,845h12.81V711.19H324.67Z" transform="translate(-0.25 -0.02)"/></g></g><g id="patch_49-3" data-name="patch 49"><g class="cls-15"><path class="cls-11" d="M324.67,711.14h12.81V667.06H324.67Z" transform="translate(-0.25 -0.02)"/></g></g><g id="patch_50-3" data-name="patch 50"><g class="cls-15"><path class="cls-10" d="M324.67,667h12.81V639H324.67Z" transform="translate(-0.25 -0.02)"/></g></g><g id="patch_51-3" data-name="patch 51"><g class="cls-15"><path class="cls-11" d="M324.67,639h12.81v-35H324.67Z" transform="translate(-0.25 -0.02)"/></g></g><g id="patch_52-3" data-name="patch 52"><g class="cls-15"><path class="cls-7" d="M350.29,845H363.1V665.35H350.29Z" transform="translate(-0.25 -0.02)"/></g></g><g id="patch_53-3" data-name="patch 53"><g class="cls-15"><path class="cls-7" d="M375.9,845h12.81V657.39H375.9Z" transform="translate(-0.25 -0.02)"/></g></g><g id="patch_54-3" data-name="patch 54"><g class="cls-15"><path class="cls-17" d="M375.9,657.34h12.81V614.41H375.9Z" transform="translate(-0.25 -0.02)"/></g></g><g id="patch_55-3" data-name="patch 55"><g class="cls-15"><path class="cls-16" d="M375.9,614.36h12.81V518.73H375.9Z" transform="translate(-0.25 -0.02)"/></g></g><g id="patch_56-3" data-name="patch 56"><g class="cls-15"><path class="cls-7" d="M401.52,845h12.81V653.08H401.52Z" transform="translate(-0.25 -0.02)"/></g></g><g id="patch_57-3" data-name="patch 57"><g class="cls-15"><path class="cls-17" d="M427.14,845H440V715.7H427.14Z" transform="translate(-0.25 -0.02)"/></g></g><g id="patch_58-3" data-name="patch 58"><g class="cls-15"><path class="cls-16" d="M427.14,715.65H440V668.16H427.14Z" transform="translate(-0.25 -0.02)"/></g></g><g id="patch_59-3" data-name="patch 59"><g class="cls-15"><path class="cls-8" d="M452.76,845h12.81V626.38H452.76Z" transform="translate(-0.25 -0.02)"/></g></g><g id="patch_60-3" data-name="patch 60"><g class="cls-15"><path class="cls-4" d="M478.38,845h12.81V654.08H478.38Z" transform="translate(-0.25 -0.02)"/></g></g><g id="patch_61-3" data-name="patch 61"><g class="cls-15"><path class="cls-9" d="M504,845h12.81v-23.2H504Z" transform="translate(-0.25 -0.02)"/></g></g><g id="patch_62-3" data-name="patch 62"><g class="cls-15"><path class="cls-10" d="M504,821.74h12.81V787.83H504Z" transform="translate(-0.25 -0.02)"/></g></g><g id="patch_63-3" data-name="patch 63"><g class="cls-15"><path class="cls-11" d="M504,787.78h12.81V703.62H504Z" transform="translate(-0.25 -0.02)"/></g></g><g id="patch_64-3" data-name="patch 64"><g class="cls-15"><path class="cls-10" d="M504,703.57h12.81V678.23H504Z" transform="translate(-0.25 -0.02)"/></g></g><g id="patch_65-3" data-name="patch 65"><g class="cls-15"><path class="cls-11" d="M504,678.18h12.81v-13H504Z" transform="translate(-0.25 -0.02)"/></g></g><g id="patch_66-3" data-name="patch 66"><g class="cls-15"><path class="cls-10" d="M504,665.1h12.81v-6.76H504Z" transform="translate(-0.25 -0.02)"/></g></g><g id="patch_67-3" data-name="patch 67"><g class="cls-15"><path class="cls-11" d="M504,658.29h12.81v-21H504Z" transform="translate(-0.25 -0.02)"/></g></g><g id="patch_68-2" data-name="patch 68"><g class="cls-15"><path class="cls-8" d="M529.62,845h12.81V614H529.62Z" transform="translate(-0.25 -0.02)"/></g></g><g id="patch_69-2" data-name="patch 69"><g class="cls-15"><path class="cls-11" d="M529.62,614h12.81v-5.31H529.62Z" transform="translate(-0.25 -0.02)"/></g></g><g id="patch_70-2" data-name="patch 70"><g class="cls-15"><path class="cls-17" d="M555.24,845h12.81V801.56H555.24Z" transform="translate(-0.25 -0.02)"/></g></g><g id="patch_71-2" data-name="patch 71"><g class="cls-15"><path class="cls-16" d="M555.24,801.51h12.81V705.18H555.24Z" transform="translate(-0.25 -0.02)"/></g></g><g id="patch_72-2" data-name="patch 72"><g class="cls-15"><path class="cls-4" d="M580.86,845h12.81V667.41H580.86Z" transform="translate(-0.25 -0.02)"/></g></g><g id="patch_73-2" data-name="patch 73"><g class="cls-15"><path class="cls-17" d="M606.48,845h12.81V659.64H606.48Z" transform="translate(-0.25 -0.02)"/></g></g></g></g><g class="cls-18"><text class="cls-19" transform="translate(185.15 870.36)">AKI mapped to</text></g><g class="cls-18"><text class="cls-20" transform="translate(350.58 870.36)">Camelina sativa</text></g><g class="cls-18"><text class="cls-19" transform="translate(198.73 1311.84)">tAKI mapped to</text></g><g class="cls-18"><text class="cls-20" transform="translate(370.83 1311.84)">Camelina sativa</text></g><g class="cls-18"><text class="cls-19" transform="translate(177.14 420.81)">ACBK mapped to</text></g><g class="cls-18"><text class="cls-20" transform="translate(369.25 420.81)">Camelina sativa</text></g></svg>