<?xml version="1.0" encoding="UTF-8"?>
<svg id="_图层_1" data-name="图层 1" xmlns="http://www.w3.org/2000/svg" xmlns:xlink="http://www.w3.org/1999/xlink" viewBox="0 0 720 890.98">
  <defs>
    <style>
      .cls-1 {
        font-family: ArialMT, Arial;
      }

      .cls-1, .cls-2, .cls-3 {
        isolation: isolate;
      }

      .cls-1, .cls-3 {
        font-size: 24px;
      }

      .cls-4 {
        clip-path: url(#clippath-20);
      }

      .cls-5 {
        clip-path: url(#clippath-11);
      }

      .cls-6 {
        clip-path: url(#clippath-16);
      }

      .cls-7 {
        fill: #fff;
      }

      .cls-8 {
        clip-path: url(#clippath-33);
      }

      .cls-9 {
        clip-path: url(#clippath-32);
      }

      .cls-10 {
        fill: #437579;
      }

      .cls-11 {
        fill: #fcbcd7;
      }

      .cls-12 {
        clip-path: url(#clippath-2);
      }

      .cls-13 {
        clip-path: url(#clippath-13);
      }

      .cls-14 {
        clip-path: url(#clippath-25);
      }

      .cls-15 {
        fill: #c765a3;
      }

      .cls-16 {
        clip-path: url(#clippath-15);
      }

      .cls-17 {
        clip-path: url(#clippath-6);
      }

      .cls-18 {
        clip-path: url(#clippath-26);
      }

      .cls-19 {
        clip-path: url(#clippath-7);
      }

      .cls-20 {
        clip-path: url(#clippath-21);
      }

      .cls-21 {
        clip-path: url(#clippath-1);
      }

      .cls-22 {
        clip-path: url(#clippath-4);
      }

      .cls-23 {
        clip-path: url(#clippath-27);
      }

      .cls-24 {
        clip-path: url(#clippath-12);
      }

      .cls-25 {
        clip-path: url(#clippath-24);
      }

      .cls-26 {
        fill: #eee950;
      }

      .cls-27 {
        clip-path: url(#clippath-30);
      }

      .cls-28 {
        clip-path: url(#clippath-22);
      }

      .cls-29 {
        fill: #4aa45b;
      }

      .cls-30 {
        fill: #834127;
      }

      .cls-31 {
        clip-path: url(#clippath-9);
      }

      .cls-32 {
        clip-path: url(#clippath);
      }

      .cls-3 {
        font-family: Arial-ItalicMT, Arial;
        font-style: italic;
      }

      .cls-33 {
        fill: none;
      }

      .cls-34 {
        clip-path: url(#clippath-19);
      }

      .cls-35 {
        clip-path: url(#clippath-31);
      }

      .cls-36 {
        clip-path: url(#clippath-3);
      }

      .cls-37 {
        clip-path: url(#clippath-8);
      }

      .cls-38 {
        fill: #d8473d;
      }

      .cls-39 {
        fill: #3d55a0;
      }

      .cls-40 {
        clip-path: url(#clippath-29);
      }

      .cls-41 {
        clip-path: url(#clippath-18);
      }

      .cls-42 {
        clip-path: url(#clippath-14);
      }

      .cls-43 {
        clip-path: url(#clippath-17);
      }

      .cls-44 {
        clip-path: url(#clippath-5);
      }

      .cls-45 {
        fill: #b8b4a1;
      }

      .cls-46 {
        fill: #e2974f;
      }

      .cls-47 {
        clip-path: url(#clippath-10);
      }

      .cls-48 {
        clip-path: url(#clippath-23);
      }

      .cls-49 {
        clip-path: url(#clippath-28);
      }
    </style>
    <clipPath id="clippath">
      <rect class="cls-33" x="90" y="53.4" width="558" height="342.62"/>
    </clipPath>
    <clipPath id="clippath-1">
      <rect class="cls-33" x="90" y="53.4" width="558" height="342.62"/>
    </clipPath>
    <clipPath id="clippath-2">
      <rect class="cls-33" x="90" y="53.4" width="558" height="342.62"/>
    </clipPath>
    <clipPath id="clippath-3">
      <rect class="cls-33" x="90" y="53.4" width="558" height="342.62"/>
    </clipPath>
    <clipPath id="clippath-4">
      <rect class="cls-33" x="90" y="53.4" width="558" height="342.62"/>
    </clipPath>
    <clipPath id="clippath-5">
      <rect class="cls-33" x="90" y="53.4" width="558" height="342.62"/>
    </clipPath>
    <clipPath id="clippath-6">
      <rect class="cls-33" x="90" y="53.4" width="558" height="342.62"/>
    </clipPath>
    <clipPath id="clippath-7">
      <rect class="cls-33" x="90" y="53.4" width="558" height="342.62"/>
    </clipPath>
    <clipPath id="clippath-8">
      <rect class="cls-33" x="90" y="53.4" width="558" height="342.62"/>
    </clipPath>
    <clipPath id="clippath-9">
      <rect class="cls-33" x="90" y="53.4" width="558" height="342.62"/>
    </clipPath>
    <clipPath id="clippath-10">
      <rect class="cls-33" x="90" y="53.4" width="558" height="342.62"/>
    </clipPath>
    <clipPath id="clippath-11">
      <rect class="cls-33" x="90" y="53.4" width="558" height="342.62"/>
    </clipPath>
    <clipPath id="clippath-12">
      <rect class="cls-33" x="90" y="53.4" width="558" height="342.62"/>
    </clipPath>
    <clipPath id="clippath-13">
      <rect class="cls-33" x="90" y="53.4" width="558" height="342.62"/>
    </clipPath>
    <clipPath id="clippath-14">
      <rect class="cls-33" x="90" y="53.4" width="558" height="342.62"/>
    </clipPath>
    <clipPath id="clippath-15">
      <rect class="cls-33" x="90" y="53.4" width="558" height="342.62"/>
    </clipPath>
    <clipPath id="clippath-16">
      <rect class="cls-33" x="90" y="53.4" width="558" height="342.62"/>
    </clipPath>
    <clipPath id="clippath-17">
      <rect class="cls-33" x="90" y="53.4" width="558" height="342.62"/>
    </clipPath>
    <clipPath id="clippath-18">
      <rect class="cls-33" x="90" y="499.42" width="558" height="342.62"/>
    </clipPath>
    <clipPath id="clippath-19">
      <rect class="cls-33" x="90" y="499.42" width="558" height="342.62"/>
    </clipPath>
    <clipPath id="clippath-20">
      <rect class="cls-33" x="90" y="499.42" width="558" height="342.62"/>
    </clipPath>
    <clipPath id="clippath-21">
      <rect class="cls-33" x="90" y="499.42" width="558" height="342.62"/>
    </clipPath>
    <clipPath id="clippath-22">
      <rect class="cls-33" x="90" y="499.42" width="558" height="342.62"/>
    </clipPath>
    <clipPath id="clippath-23">
      <rect class="cls-33" x="90" y="499.42" width="558" height="342.62"/>
    </clipPath>
    <clipPath id="clippath-24">
      <rect class="cls-33" x="90" y="499.42" width="558" height="342.62"/>
    </clipPath>
    <clipPath id="clippath-25">
      <rect class="cls-33" x="90" y="499.42" width="558" height="342.62"/>
    </clipPath>
    <clipPath id="clippath-26">
      <rect class="cls-33" x="90" y="499.42" width="558" height="342.62"/>
    </clipPath>
    <clipPath id="clippath-27">
      <rect class="cls-33" x="90" y="499.42" width="558" height="342.62"/>
    </clipPath>
    <clipPath id="clippath-28">
      <rect class="cls-33" x="90" y="499.42" width="558" height="342.62"/>
    </clipPath>
    <clipPath id="clippath-29">
      <rect class="cls-33" x="90" y="499.42" width="558" height="342.62"/>
    </clipPath>
    <clipPath id="clippath-30">
      <rect class="cls-33" x="90" y="499.42" width="558" height="342.62"/>
    </clipPath>
    <clipPath id="clippath-31">
      <rect class="cls-33" x="90" y="499.42" width="558" height="342.62"/>
    </clipPath>
    <clipPath id="clippath-32">
      <rect class="cls-33" x="90" y="499.42" width="558" height="342.62"/>
    </clipPath>
    <clipPath id="clippath-33">
      <rect class="cls-33" x="90" y="499.42" width="558" height="342.62"/>
    </clipPath>
  </defs>
  <g id="figure_1" data-name="figure 1">
    <g id="patch_1" data-name="patch 1">
      <path class="cls-7" d="m0,444.96h720V0H0v444.96Z"/>
    </g>
    <g id="axes_1" data-name="axes 1">
      <g id="patch_2" data-name="patch 2">
        <path class="cls-7" d="m90,396.01h558V53.4H90v342.62Z"/>
      </g>
      <g id="patch_3" data-name="patch 3">
        <g class="cls-32">
          <path class="cls-33" d="m115.36,396.01h52.03v-.8h-52.03v.8Z"/>
        </g>
      </g>
      <g id="patch_4" data-name="patch 4">
        <g class="cls-21">
          <path class="cls-33" d="m180.4,396.01h52.03v-.8h-52.03v.8Z"/>
        </g>
      </g>
      <g id="patch_5" data-name="patch 5">
        <g class="cls-12">
          <path class="cls-33" d="m245.43,396.01h52.03v-.8h-52.03v.8Z"/>
        </g>
      </g>
      <g id="patch_6" data-name="patch 6">
        <g class="cls-36">
          <path class="cls-33" d="m310.47,396.01h52.03v-.8h-52.03v.8Z"/>
        </g>
      </g>
      <g id="patch_7" data-name="patch 7">
        <g class="cls-22">
          <path class="cls-33" d="m375.5,396.01h52.03v-.8h-52.03v.8Z"/>
        </g>
      </g>
      <g id="patch_8" data-name="patch 8">
        <g class="cls-44">
          <path class="cls-33" d="m440.54,396.01h52.03v-.8h-52.03v.8Z"/>
        </g>
      </g>
      <g id="patch_9" data-name="patch 9">
        <g class="cls-17">
          <path class="cls-33" d="m505.57,396.01h52.03v-.8h-52.03v.8Z"/>
        </g>
      </g>
      <g id="patch_10" data-name="patch 10">
        <g class="cls-19">
          <path class="cls-33" d="m570.61,396.01h52.03v-.8h-52.03v.8Z"/>
        </g>
      </g>
      <g id="patch_11" data-name="patch 11">
        <g class="cls-37">
          <path class="cls-26" d="m125.12,395.93h32.52V69.71h-32.52v326.22Z"/>
        </g>
      </g>
      <g id="patch_12" data-name="patch 12">
        <g class="cls-31">
          <path class="cls-29" d="m190.15,395.93h32.52V118.44h-32.52v277.5Z"/>
        </g>
      </g>
      <g id="patch_13" data-name="patch 13">
        <g class="cls-47">
          <path class="cls-30" d="m255.19,395.93h32.52v-155.97h-32.52v155.97Z"/>
        </g>
      </g>
      <g id="patch_14" data-name="patch 14">
        <g class="cls-5">
          <path class="cls-11" d="m255.19,239.89h32.52v-110.86h-32.52v110.86Z"/>
        </g>
      </g>
      <g id="patch_15" data-name="patch 15">
        <g class="cls-24">
          <path class="cls-15" d="m320.22,395.93h32.52v-231.98h-32.52v231.98Z"/>
        </g>
      </g>
      <g id="patch_16" data-name="patch 16">
        <g class="cls-13">
          <path class="cls-46" d="m385.26,395.93h32.52v-214.33h-32.52v214.33Z"/>
        </g>
      </g>
      <g id="patch_17" data-name="patch 17">
        <g class="cls-42">
          <path class="cls-39" d="m450.29,395.93h32.52V138.18h-32.52v257.75Z"/>
        </g>
      </g>
      <g id="patch_18" data-name="patch 18">
        <g class="cls-16">
          <path class="cls-38" d="m515.33,395.93h32.52v-199.88h-32.52v199.88Z"/>
        </g>
      </g>
      <g id="patch_19" data-name="patch 19">
        <g class="cls-6">
          <path class="cls-11" d="m580.36,395.93h32.52v-51.78h-32.52v51.78Z"/>
        </g>
      </g>
      <g id="patch_20" data-name="patch 20">
        <g class="cls-43">
          <path class="cls-30" d="m580.36,344.08h32.52v-173.55h-32.52v173.55Z"/>
        </g>
      </g>
    </g>
  </g>
  <g id="figure_1-2" data-name="figure 1">
    <g id="patch_1-2" data-name="patch 1">
      <path class="cls-7" d="m0,890.98h720v-444.96H0v444.96Z"/>
    </g>
    <g id="axes_1-2" data-name="axes 1">
      <g id="patch_2-2" data-name="patch 2">
        <path class="cls-7" d="m90,842.03h558v-342.62H90v342.62Z"/>
      </g>
      <g id="patch_3-2" data-name="patch 3">
        <g class="cls-41">
          <path class="cls-33" d="m115.36,842.03h52.03v-.8h-52.03v.8Z"/>
        </g>
      </g>
      <g id="patch_4-2" data-name="patch 4">
        <g class="cls-34">
          <path class="cls-33" d="m180.4,842.03h52.03v-.8h-52.03v.8Z"/>
        </g>
      </g>
      <g id="patch_5-2" data-name="patch 5">
        <g class="cls-4">
          <path class="cls-33" d="m245.43,842.03h52.03v-.8h-52.03v.8Z"/>
        </g>
      </g>
      <g id="patch_6-2" data-name="patch 6">
        <g class="cls-20">
          <path class="cls-33" d="m310.47,842.03h52.03v-.8h-52.03v.8Z"/>
        </g>
      </g>
      <g id="patch_7-2" data-name="patch 7">
        <g class="cls-28">
          <path class="cls-33" d="m375.5,842.03h52.03v-.8h-52.03v.8Z"/>
        </g>
      </g>
      <g id="patch_8-2" data-name="patch 8">
        <g class="cls-48">
          <path class="cls-33" d="m440.54,842.03h52.03v-.8h-52.03v.8Z"/>
        </g>
      </g>
      <g id="patch_9-2" data-name="patch 9">
        <g class="cls-25">
          <path class="cls-33" d="m505.57,842.03h52.03v-.8h-52.03v.8Z"/>
        </g>
      </g>
      <g id="patch_10-2" data-name="patch 10">
        <g class="cls-14">
          <path class="cls-33" d="m570.61,842.03h52.03v-.8h-52.03v.8Z"/>
        </g>
      </g>
      <g id="patch_11-2" data-name="patch 11">
        <g class="cls-18">
          <path class="cls-26" d="m125.12,841.95h32.52v-326.22h-32.52v326.22Z"/>
        </g>
      </g>
      <g id="patch_12-2" data-name="patch 12">
        <g class="cls-23">
          <path class="cls-29" d="m190.15,841.95h32.52v-277.5h-32.52v277.5Z"/>
        </g>
      </g>
      <g id="patch_13-2" data-name="patch 13">
        <g class="cls-49">
          <path class="cls-45" d="m255.19,841.95h32.52v-266.9h-32.52v266.9Z"/>
        </g>
      </g>
      <g id="patch_14-2" data-name="patch 14">
        <g class="cls-40">
          <path class="cls-15" d="m320.22,841.95h32.52v-231.98h-32.52v231.98Z"/>
        </g>
      </g>
      <g id="patch_15-2" data-name="patch 15">
        <g class="cls-27">
          <path class="cls-46" d="m385.26,841.95h32.52v-214.33h-32.52v214.33Z"/>
        </g>
      </g>
      <g id="patch_16-2" data-name="patch 16">
        <g class="cls-35">
          <path class="cls-39" d="m450.29,841.95h32.52v-257.75h-32.52v257.75Z"/>
        </g>
      </g>
      <g id="patch_17-2" data-name="patch 17">
        <g class="cls-9">
          <path class="cls-38" d="m515.33,841.95h32.52v-199.88h-32.52v199.88Z"/>
        </g>
      </g>
      <g id="patch_18-2" data-name="patch 18">
        <g class="cls-8">
          <path class="cls-10" d="m580.36,841.95h32.52v-225.4h-32.52v225.4Z"/>
        </g>
      </g>
    </g>
  </g>
  <g class="cls-2">
    <text class="cls-1" transform="translate(208.15 872.71)"><tspan x="0" y="0">AKI mapped to </tspan></text>
    <text class="cls-3" transform="translate(373.58 872.71)"><tspan x="0" y="0">Cardamine flexuosa</tspan></text>
  </g>
  <g>
    <g class="cls-2">
      <text class="cls-1" transform="translate(193.43 423.16)"><tspan x="0" y="0">ACBK mapped to</tspan></text>
    </g>
    <g class="cls-2">
      <text class="cls-3" transform="translate(385.54 423.16)"><tspan x="0" y="0">Cardamine flexuosa</tspan></text>
    </g>
  </g>
</svg>