<svg id="_图层_1" data-name=" 图层 1" xmlns="http://www.w3.org/2000/svg" xmlns:xlink="http://www.w3.org/1999/xlink" viewBox="0 0 720.25 1337"><defs><style>.cls-1{fill:none;}.cls-2{fill:#fff;}.cls-3{clip-path:url(#clip-path);}.cls-4{fill:#eee950;}.cls-5{fill:#e2974f;}.cls-6{fill:#d8473d;}.cls-7{fill:#c765a3;}.cls-8{fill:#834127;}.cls-9{fill:#3d55a0;}.cls-10{fill:#4aa45b;}.cls-11{fill:#fcbcd7;}.cls-12{clip-path:url(#clip-path-25);}.cls-13{fill:#b8b4a1;}.cls-14{fill:#437579;}.cls-15{clip-path:url(#clip-path-47);}.cls-16{fill:#9ac9db;}.cls-17{fill:#f0768b;}.cls-18,.cls-19{isolation:isolate;font-size:24px;}.cls-18{font-family:ArialMT, Arial;}.cls-19{font-family:Arial-ItalicMT, Arial;font-style:italic;}</style><clipPath id="clip-path" transform="translate(-0.25)"><rect id="SVGID" class="cls-1" x="90.25" y="53.4" width="558" height="342.62"/></clipPath><clipPath id="clip-path-25" transform="translate(-0.25)"><rect class="cls-1" x="90.5" y="499.42" width="558" height="342.62"/></clipPath><clipPath id="clip-path-47" transform="translate(-0.25)"><rect class="cls-1" x="90.5" y="945.44" width="558" height="342.62"/></clipPath></defs><title>Camelina_hispida.karyotype</title><g id="figure_1" data-name="figure 1"><g id="patch_1" data-name="patch 1"><path class="cls-2" d="M.25,445h720V0H.25Z" transform="translate(-0.25)"/></g><g id="axes_1" data-name="axes 1"><g id="patch_2" data-name="patch 2"><path class="cls-2" d="M90.25,396h558V53.4h-558Z" transform="translate(-0.25)"/></g><g id="patch_3" data-name="patch 3"><g class="cls-3"><path class="cls-1" d="M115.61,396h59.68v-.52H115.61Z" transform="translate(-0.25)"/></g></g><g id="patch_4" data-name="patch 4"><g class="cls-3"><path class="cls-1" d="M190.21,396h59.68v-.52H190.21Z" transform="translate(-0.25)"/></g></g><g id="patch_5" data-name="patch 5"><g class="cls-3"><path class="cls-1" d="M264.81,396h59.68v-.52H264.81Z" transform="translate(-0.25)"/></g></g><g id="patch_6" data-name="patch 6"><g class="cls-3"><path class="cls-1" d="M339.41,396h59.68v-.52H339.41Z" transform="translate(-0.25)"/></g></g><g id="patch_7" data-name="patch 7"><g class="cls-3"><path class="cls-1" d="M414,396h59.68v-.52H414Z" transform="translate(-0.25)"/></g></g><g id="patch_8" data-name="patch 8"><g class="cls-3"><path class="cls-1" d="M488.61,396h59.68v-.52H488.61Z" transform="translate(-0.25)"/></g></g><g id="patch_9" data-name="patch 9"><g class="cls-3"><path class="cls-1" d="M563.21,396h59.68v-.52H563.21Z" transform="translate(-0.25)"/></g></g><g id="patch_10" data-name="patch 10"><g class="cls-3"><path class="cls-4" d="M126.8,396h37.3V92.74H126.8Z" transform="translate(-0.25)"/></g></g><g id="patch_11" data-name="patch 11"><g class="cls-3"><path class="cls-5" d="M201.4,396h37.3V190.27H201.4Z" transform="translate(-0.25)"/></g></g><g id="patch_12" data-name="patch 12"><g class="cls-3"><path class="cls-6" d="M201.4,190.22h37.3V138.85H201.4Z" transform="translate(-0.25)"/></g></g><g id="patch_13" data-name="patch 13"><g class="cls-3"><path class="cls-7" d="M201.4,138.8h37.3V108H201.4Z" transform="translate(-0.25)"/></g></g><g id="patch_14" data-name="patch 14"><g class="cls-3"><path class="cls-6" d="M201.4,107.94h37.3V69.71H201.4Z" transform="translate(-0.25)"/></g></g><g id="patch_15" data-name="patch 15"><g class="cls-3"><path class="cls-8" d="M276,396h37.3v-1.68H276Z" transform="translate(-0.25)"/></g></g><g id="patch_16" data-name="patch 16"><g class="cls-3"><path class="cls-9" d="M276,394.23h37.3V137.17H276Z" transform="translate(-0.25)"/></g></g><g id="patch_17" data-name="patch 17"><g class="cls-3"><path class="cls-7" d="M350.6,396h37.3V229.34H350.6Z" transform="translate(-0.25)"/></g></g><g id="patch_18" data-name="patch 18"><g class="cls-3"><path class="cls-6" d="M350.6,229.29h37.3V141.9H350.6Z" transform="translate(-0.25)"/></g></g><g id="patch_19" data-name="patch 19"><g class="cls-3"><path class="cls-5" d="M350.6,141.85h37.3V105.41H350.6Z" transform="translate(-0.25)"/></g></g><g id="patch_20" data-name="patch 20"><g class="cls-3"><path class="cls-10" d="M425.2,396h37.3V107.25H425.2Z" transform="translate(-0.25)"/></g></g><g id="patch_21" data-name="patch 21"><g class="cls-3"><path class="cls-8" d="M499.8,396h37.3V312.1H499.8Z" transform="translate(-0.25)"/></g></g><g id="patch_22" data-name="patch 22"><g class="cls-3"><path class="cls-11" d="M499.8,312.05h37.3V293.38H499.8Z" transform="translate(-0.25)"/></g></g><g id="patch_23" data-name="patch 23"><g class="cls-3"><path class="cls-8" d="M499.8,293.33h37.3V198.9H499.8Z" transform="translate(-0.25)"/></g></g><g id="patch_24" data-name="patch 24"><g class="cls-3"><path class="cls-11" d="M499.8,198.84h37.3V155.36H499.8Z" transform="translate(-0.25)"/></g></g><g id="patch_25" data-name="patch 25"><g class="cls-3"><path class="cls-8" d="M574.4,396h37.3V256.37H574.4Z" transform="translate(-0.25)"/></g></g><g id="patch_26" data-name="patch 26"><g class="cls-3"><path class="cls-11" d="M574.4,256.31h37.3V146.69H574.4Z" transform="translate(-0.25)"/></g></g></g></g><g id="figure_1-2" data-name="figure 1-2"><g id="patch_1-2" data-name="patch 1-2"><path class="cls-2" d="M.5,891h720V446H.5Z" transform="translate(-0.25)"/></g><g id="axes_1-2" data-name="axes 1-2"><g id="patch_2-2" data-name="patch 2-2"><path class="cls-2" d="M90.5,842h558V499.41H90.5Z" transform="translate(-0.25)"/></g><g id="patch_3-2" data-name="patch 3-2"><g class="cls-12"><path class="cls-1" d="M115.86,842h59.68v-.53H115.86Z" transform="translate(-0.25)"/></g></g><g id="patch_4-2" data-name="patch 4-2"><g class="cls-12"><path class="cls-1" d="M190.46,842h59.68v-.53H190.46Z" transform="translate(-0.25)"/></g></g><g id="patch_5-2" data-name="patch 5-2"><g class="cls-12"><path class="cls-1" d="M265.06,842h59.68v-.53H265.06Z" transform="translate(-0.25)"/></g></g><g id="patch_6-2" data-name="patch 6-2"><g class="cls-12"><path class="cls-1" d="M339.66,842h59.68v-.53H339.66Z" transform="translate(-0.25)"/></g></g><g id="patch_7-2" data-name="patch 7-2"><g class="cls-12"><path class="cls-1" d="M414.26,842h59.68v-.53H414.26Z" transform="translate(-0.25)"/></g></g><g id="patch_8-2" data-name="patch 8-2"><g class="cls-12"><path class="cls-1" d="M488.86,842h59.68v-.53H488.86Z" transform="translate(-0.25)"/></g></g><g id="patch_9-2" data-name="patch 9-2"><g class="cls-12"><path class="cls-1" d="M563.46,842h59.68v-.53H563.46Z" transform="translate(-0.25)"/></g></g><g id="patch_10-2" data-name="patch 10-2"><g class="cls-12"><path class="cls-4" d="M127.05,842h37.3V538.76h-37.3Z" transform="translate(-0.25)"/></g></g><g id="patch_11-2" data-name="patch 11-2"><g class="cls-12"><path class="cls-5" d="M201.65,842H239V636.29H201.7Z" transform="translate(-0.25)"/></g></g><g id="patch_12-2" data-name="patch 12-2"><g class="cls-12"><path class="cls-6" d="M201.65,636.24H239V584.87H201.7Z" transform="translate(-0.25)"/></g></g><g id="patch_13-2" data-name="patch 13-2"><g class="cls-12"><path class="cls-7" d="M201.65,584.82H239V554H201.7Z" transform="translate(-0.25)"/></g></g><g id="patch_14-2" data-name="patch 14-2"><g class="cls-12"><path class="cls-6" d="M201.65,554H239V515.74H201.7V554Z" transform="translate(-0.25)"/></g></g><g id="patch_15-2" data-name="patch 15-2"><g class="cls-12"><path class="cls-13" d="M276.25,842h37.3v-1.7h-37.3Z" transform="translate(-0.25)"/></g></g><g id="patch_16-2" data-name="patch 16-2"><g class="cls-12"><path class="cls-9" d="M276.25,840.25h37.3V583.19h-37.3Z" transform="translate(-0.25)"/></g></g><g id="patch_17-2" data-name="patch 17-2"><g class="cls-12"><path class="cls-7" d="M350.85,842h37.3V675.36h-37.3Z" transform="translate(-0.25)"/></g></g><g id="patch_18-2" data-name="patch 18-2"><g class="cls-12"><path class="cls-6" d="M350.85,675.31h37.3V587.92h-37.3Z" transform="translate(-0.25)"/></g></g><g id="patch_19-2" data-name="patch 19-2"><g class="cls-12"><path class="cls-5" d="M350.85,587.87h37.3V551.43h-37.3Z" transform="translate(-0.25)"/></g></g><g id="patch_20-2" data-name="patch 20-2"><g class="cls-12"><path class="cls-10" d="M425.45,842h37.3V553.27h-37.3Z" transform="translate(-0.25)"/></g></g><g id="patch_21-2" data-name="patch 21-2"><g class="cls-12"><path class="cls-14" d="M500.05,842h37.3V758.12h-37.3Z" transform="translate(-0.25)"/></g></g><g id="patch_22-2" data-name="patch 22-2"><g class="cls-12"><path class="cls-13" d="M500.05,758.07h37.3V739.4h-37.3Z" transform="translate(-0.25)"/></g></g><g id="patch_23-2" data-name="patch 23-2"><g class="cls-12"><path class="cls-14" d="M500.05,739.35h37.3v-138h-37.3Z" transform="translate(-0.25)"/></g></g><g id="patch_24-2" data-name="patch 24-2"><g class="cls-12"><path class="cls-13" d="M574.65,842H612V592.7H574.7Z" transform="translate(-0.25)"/></g></g></g></g><g id="figure_1-3" data-name="figure 1-3"><g id="patch_1-3" data-name="patch 1-3"><path class="cls-2" d="M.5,1337h720V892H.5Z" transform="translate(-0.25)"/></g><g id="axes_1-3" data-name="axes 1-3"><g id="patch_2-3" data-name="patch 2-3"><path class="cls-2" d="M90.5,1288.05h558V945.43H90.5Z" transform="translate(-0.25)"/></g><g id="patch_3-3" data-name="patch 3-3"><g class="cls-15"><path class="cls-1" d="M115.86,1288.05h59.68v-.53H115.86Z" transform="translate(-0.25)"/></g></g><g id="patch_4-3" data-name="patch 4-3"><g class="cls-15"><path class="cls-1" d="M190.46,1288.05h59.68v-.53H190.46Z" transform="translate(-0.25)"/></g></g><g id="patch_5-3" data-name="patch 5-3"><g class="cls-15"><path class="cls-1" d="M265.06,1288.05h59.68v-.53H265.06Z" transform="translate(-0.25)"/></g></g><g id="patch_6-3" data-name="patch 6-3"><g class="cls-15"><path class="cls-1" d="M339.66,1288.05h59.68v-.53H339.66Z" transform="translate(-0.25)"/></g></g><g id="patch_7-3" data-name="patch 7-3"><g class="cls-15"><path class="cls-1" d="M414.26,1288.05h59.68v-.53H414.26Z" transform="translate(-0.25)"/></g></g><g id="patch_8-3" data-name="patch 8-3"><g class="cls-15"><path class="cls-1" d="M488.86,1288.05h59.68v-.53H488.86Z" transform="translate(-0.25)"/></g></g><g id="patch_9-3" data-name="patch 9-3"><g class="cls-15"><path class="cls-1" d="M563.46,1288.05h59.68v-.53H563.46Z" transform="translate(-0.25)"/></g></g><g id="patch_10-3" data-name="patch 10-3"><g class="cls-15"><path class="cls-4" d="M127.05,1288h37.3V984.78h-37.3Z" transform="translate(-0.25)"/></g></g><g id="patch_11-3" data-name="patch 11-3"><g class="cls-15"><path class="cls-5" d="M201.65,1288H239V1082.31H201.7Z" transform="translate(-0.25)"/></g></g><g id="patch_12-3" data-name="patch 12-3"><g class="cls-15"><path class="cls-6" d="M201.65,1082.26H239v-51.37H201.7Z" transform="translate(-0.25)"/></g></g><g id="patch_13-3" data-name="patch 13-3"><g class="cls-15"><path class="cls-7" d="M201.65,1030.84H239V1000H201.7Z" transform="translate(-0.25)"/></g></g><g id="patch_14-3" data-name="patch 14-3"><g class="cls-15"><path class="cls-6" d="M201.65,1000H239V961.76H201.7Z" transform="translate(-0.25)"/></g></g><g id="patch_15-3" data-name="patch 15-3"><g class="cls-15"><path class="cls-9" d="M276.25,1288h37.3V1029.21h-37.3Z" transform="translate(-0.25)"/></g></g><g id="patch_16-3" data-name="patch 16-3"><g class="cls-15"><path class="cls-7" d="M350.85,1288h37.3V1121.38h-37.3Z" transform="translate(-0.25)"/></g></g><g id="patch_17-3" data-name="patch 17-3"><g class="cls-15"><path class="cls-6" d="M350.85,1121.33h37.3v-87.39h-37.3Z" transform="translate(-0.25)"/></g></g><g id="patch_18-3" data-name="patch 18-3"><g class="cls-15"><path class="cls-5" d="M350.85,1033.89h37.3V997.45h-37.3Z" transform="translate(-0.25)"/></g></g><g id="patch_19-3" data-name="patch 19-3"><g class="cls-15"><path class="cls-10" d="M425.45,1288h37.3V999.29h-37.3Z" transform="translate(-0.25)"/></g></g><g id="patch_20-3" data-name="patch 20-3"><g class="cls-15"><path class="cls-16" d="M500.05,1288h37.3v-84.55h-37.3Z" transform="translate(-0.25)"/></g></g><g id="patch_21-3" data-name="patch 21-3"><g class="cls-15"><path class="cls-17" d="M500.05,1203.4h37.3v-156h-37.3Z" transform="translate(-0.25)"/></g></g><g id="patch_22-3" data-name="patch 22-3"><g class="cls-15"><path class="cls-16" d="M574.65,1288H612V1100.08H574.7Z" transform="translate(-0.25)"/></g></g><g id="patch_23-3" data-name="patch 23-3"><g class="cls-15"><path class="cls-17" d="M574.65,1100H612v-61.31H574.7Z" transform="translate(-0.25)"/></g></g></g></g><text class="cls-18" transform="translate(183.75 874)">AKI mapped to</text><text class="cls-19" transform="translate(349.18 874)">Camelina hispida</text><text class="cls-18" transform="translate(191.77 1315.48)">tAKI mapped to</text><text class="cls-19" transform="translate(363.87 1315.48)">Camelina hispida</text><text class="cls-18" transform="translate(183.72 424.45)">ACBK mapped to</text><text class="cls-19" transform="translate(375.83 424.45)">Camelina hispida</text></svg>