<?xml version="1.0" encoding="UTF-8"?>
<svg id="_图层_1" data-name=" 图层 1" xmlns="http://www.w3.org/2000/svg" xmlns:xlink="http://www.w3.org/1999/xlink" viewBox="0 0 720 889.9">
  <defs>
    <style>
      .cls-1 {
        font-family: ArialMT, Arial;
      }

      .cls-1, .cls-2 {
        font-size: 24px;
        isolation: isolate;
      }

      .cls-3 {
        clip-path: url(#clippath-20);
      }

      .cls-4 {
        clip-path: url(#clippath-11);
      }

      .cls-5 {
        clip-path: url(#clippath-16);
      }

      .cls-6 {
        fill: #fff;
      }

      .cls-7 {
        clip-path: url(#clippath-33);
      }

      .cls-8 {
        clip-path: url(#clippath-41);
      }

      .cls-9 {
        clip-path: url(#clippath-32);
      }

      .cls-10 {
        fill: #437579;
      }

      .cls-11 {
        fill: #fcbcd7;
      }

      .cls-12 {
        clip-path: url(#clippath-2);
      }

      .cls-13 {
        clip-path: url(#clippath-13);
      }

      .cls-14 {
        clip-path: url(#clippath-37);
      }

      .cls-15 {
        clip-path: url(#clippath-25);
      }

      .cls-16 {
        fill: #c765a3;
      }

      .cls-17 {
        clip-path: url(#clippath-15);
      }

      .cls-18 {
        clip-path: url(#clippath-6);
      }

      .cls-19 {
        clip-path: url(#clippath-40);
      }

      .cls-20 {
        clip-path: url(#clippath-26);
      }

      .cls-21 {
        clip-path: url(#clippath-7);
      }

      .cls-22 {
        clip-path: url(#clippath-21);
      }

      .cls-23 {
        clip-path: url(#clippath-34);
      }

      .cls-24 {
        clip-path: url(#clippath-1);
      }

      .cls-25 {
        clip-path: url(#clippath-4);
      }

      .cls-26 {
        clip-path: url(#clippath-38);
      }

      .cls-27 {
        clip-path: url(#clippath-36);
      }

      .cls-28 {
        clip-path: url(#clippath-27);
      }

      .cls-29 {
        clip-path: url(#clippath-12);
      }

      .cls-30 {
        clip-path: url(#clippath-24);
      }

      .cls-31 {
        fill: #eee950;
      }

      .cls-32 {
        clip-path: url(#clippath-30);
      }

      .cls-33 {
        clip-path: url(#clippath-22);
      }

      .cls-34 {
        fill: #4aa45b;
      }

      .cls-35 {
        fill: #834127;
      }

      .cls-36 {
        clip-path: url(#clippath-9);
      }

      .cls-37 {
        clip-path: url(#clippath);
      }

      .cls-2 {
        font-family: Arial-ItalicMT, Arial;
        font-style: italic;
      }

      .cls-38 {
        clip-path: url(#clippath-39);
      }

      .cls-39 {
        fill: none;
      }

      .cls-40 {
        clip-path: url(#clippath-19);
      }

      .cls-41 {
        clip-path: url(#clippath-31);
      }

      .cls-42 {
        clip-path: url(#clippath-3);
      }

      .cls-43 {
        clip-path: url(#clippath-8);
      }

      .cls-44 {
        fill: #d8473d;
      }

      .cls-45 {
        fill: #3d55a0;
      }

      .cls-46 {
        clip-path: url(#clippath-29);
      }

      .cls-47 {
        clip-path: url(#clippath-18);
      }

      .cls-48 {
        clip-path: url(#clippath-14);
      }

      .cls-49 {
        clip-path: url(#clippath-17);
      }

      .cls-50 {
        clip-path: url(#clippath-5);
      }

      .cls-51 {
        fill: #b8b4a1;
      }

      .cls-52 {
        fill: #e2974f;
      }

      .cls-53 {
        clip-path: url(#clippath-10);
      }

      .cls-54 {
        clip-path: url(#clippath-23);
      }

      .cls-55 {
        clip-path: url(#clippath-28);
      }

      .cls-56 {
        clip-path: url(#clippath-35);
      }
    </style>
    <clipPath id="clippath">
      <rect class="cls-39" x="90" y="498.4" width="558" height="342.6"/>
    </clipPath>
    <clipPath id="clippath-1">
      <rect class="cls-39" x="90" y="498.4" width="558" height="342.6"/>
    </clipPath>
    <clipPath id="clippath-2">
      <rect class="cls-39" x="90" y="498.4" width="558" height="342.6"/>
    </clipPath>
    <clipPath id="clippath-3">
      <rect class="cls-39" x="90" y="498.4" width="558" height="342.6"/>
    </clipPath>
    <clipPath id="clippath-4">
      <rect class="cls-39" x="90" y="498.4" width="558" height="342.6"/>
    </clipPath>
    <clipPath id="clippath-5">
      <rect class="cls-39" x="90" y="498.4" width="558" height="342.6"/>
    </clipPath>
    <clipPath id="clippath-6">
      <rect class="cls-39" x="90" y="498.4" width="558" height="342.6"/>
    </clipPath>
    <clipPath id="clippath-7">
      <rect class="cls-39" x="90" y="498.4" width="558" height="342.6"/>
    </clipPath>
    <clipPath id="clippath-8">
      <rect class="cls-39" x="90" y="498.4" width="558" height="342.6"/>
    </clipPath>
    <clipPath id="clippath-9">
      <rect class="cls-39" x="90" y="498.4" width="558" height="342.6"/>
    </clipPath>
    <clipPath id="clippath-10">
      <rect class="cls-39" x="90" y="498.4" width="558" height="342.6"/>
    </clipPath>
    <clipPath id="clippath-11">
      <rect class="cls-39" x="90" y="498.4" width="558" height="342.6"/>
    </clipPath>
    <clipPath id="clippath-12">
      <rect class="cls-39" x="90" y="498.4" width="558" height="342.6"/>
    </clipPath>
    <clipPath id="clippath-13">
      <rect class="cls-39" x="90" y="498.4" width="558" height="342.6"/>
    </clipPath>
    <clipPath id="clippath-14">
      <rect class="cls-39" x="90" y="498.4" width="558" height="342.6"/>
    </clipPath>
    <clipPath id="clippath-15">
      <rect class="cls-39" x="90" y="498.4" width="558" height="342.6"/>
    </clipPath>
    <clipPath id="clippath-16">
      <rect class="cls-39" x="90" y="498.4" width="558" height="342.6"/>
    </clipPath>
    <clipPath id="clippath-17">
      <rect class="cls-39" x="90" y="498.4" width="558" height="342.6"/>
    </clipPath>
    <clipPath id="clippath-18">
      <rect class="cls-39" x="90" y="498.4" width="558" height="342.6"/>
    </clipPath>
    <clipPath id="clippath-19">
      <rect class="cls-39" x="90" y="498.4" width="558" height="342.6"/>
    </clipPath>
    <clipPath id="clippath-20">
      <rect class="cls-39" x="90" y="53.4" width="558" height="342.6"/>
    </clipPath>
    <clipPath id="clippath-21">
      <rect class="cls-39" x="90" y="53.4" width="558" height="342.6"/>
    </clipPath>
    <clipPath id="clippath-22">
      <rect class="cls-39" x="90" y="53.4" width="558" height="342.6"/>
    </clipPath>
    <clipPath id="clippath-23">
      <rect class="cls-39" x="90" y="53.4" width="558" height="342.6"/>
    </clipPath>
    <clipPath id="clippath-24">
      <rect class="cls-39" x="90" y="53.4" width="558" height="342.6"/>
    </clipPath>
    <clipPath id="clippath-25">
      <rect class="cls-39" x="90" y="53.4" width="558" height="342.6"/>
    </clipPath>
    <clipPath id="clippath-26">
      <rect class="cls-39" x="90" y="53.4" width="558" height="342.6"/>
    </clipPath>
    <clipPath id="clippath-27">
      <rect class="cls-39" x="90" y="53.4" width="558" height="342.6"/>
    </clipPath>
    <clipPath id="clippath-28">
      <rect class="cls-39" x="90" y="53.4" width="558" height="342.6"/>
    </clipPath>
    <clipPath id="clippath-29">
      <rect class="cls-39" x="90" y="53.4" width="558" height="342.6"/>
    </clipPath>
    <clipPath id="clippath-30">
      <rect class="cls-39" x="90" y="53.4" width="558" height="342.6"/>
    </clipPath>
    <clipPath id="clippath-31">
      <rect class="cls-39" x="90" y="53.4" width="558" height="342.6"/>
    </clipPath>
    <clipPath id="clippath-32">
      <rect class="cls-39" x="90" y="53.4" width="558" height="342.6"/>
    </clipPath>
    <clipPath id="clippath-33">
      <rect class="cls-39" x="90" y="53.4" width="558" height="342.6"/>
    </clipPath>
    <clipPath id="clippath-34">
      <rect class="cls-39" x="90" y="53.4" width="558" height="342.6"/>
    </clipPath>
    <clipPath id="clippath-35">
      <rect class="cls-39" x="90" y="53.4" width="558" height="342.6"/>
    </clipPath>
    <clipPath id="clippath-36">
      <rect class="cls-39" x="90" y="53.4" width="558" height="342.6"/>
    </clipPath>
    <clipPath id="clippath-37">
      <rect class="cls-39" x="90" y="53.4" width="558" height="342.6"/>
    </clipPath>
    <clipPath id="clippath-38">
      <rect class="cls-39" x="90" y="53.4" width="558" height="342.6"/>
    </clipPath>
    <clipPath id="clippath-39">
      <rect class="cls-39" x="90" y="53.4" width="558" height="342.6"/>
    </clipPath>
    <clipPath id="clippath-40">
      <rect class="cls-39" x="90" y="53.4" width="558" height="342.6"/>
    </clipPath>
    <clipPath id="clippath-41">
      <rect class="cls-39" x="90" y="53.4" width="558" height="342.6"/>
    </clipPath>
  </defs>
  <g id="figure_1" data-name="figure 1">
    <g id="patch_1" data-name="patch 1">
      <path class="cls-6" d="m0,889.9h720v-444.9H0v444.9Z"/>
    </g>
    <g id="axes_1" data-name="axes 1">
      <g id="patch_2" data-name="patch 2">
        <path class="cls-6" d="m90,841h558v-342.6H90v342.6Z"/>
      </g>
      <g id="patch_3" data-name="patch 3">
        <g class="cls-37">
          <path class="cls-39" d="m115.4,841h52v-.8h-52s0,.8,0,.8Z"/>
        </g>
      </g>
      <g id="patch_4" data-name="patch 4">
        <g class="cls-24">
          <path class="cls-39" d="m180.4,841h52v-.8h-52v.8Z"/>
        </g>
      </g>
      <g id="patch_5" data-name="patch 5">
        <g class="cls-12">
          <path class="cls-39" d="m245.4,841h52v-.8h-52v.8Z"/>
        </g>
      </g>
      <g id="patch_6" data-name="patch 6">
        <g class="cls-42">
          <path class="cls-39" d="m310.5,841h52v-.8h-52v.8Z"/>
        </g>
      </g>
      <g id="patch_7" data-name="patch 7">
        <g class="cls-25">
          <path class="cls-39" d="m375.5,841h52v-.8h-52v.8Z"/>
        </g>
      </g>
      <g id="patch_8" data-name="patch 8">
        <g class="cls-50">
          <path class="cls-39" d="m440.5,841h52v-.8h-52v.8Z"/>
        </g>
      </g>
      <g id="patch_9" data-name="patch 9">
        <g class="cls-18">
          <path class="cls-39" d="m505.6,841h52v-.8h-52v.8h0Z"/>
        </g>
      </g>
      <g id="patch_10" data-name="patch 10">
        <g class="cls-21">
          <path class="cls-39" d="m570.6,841h52v-.8h-52v.8Z"/>
        </g>
      </g>
      <g id="patch_11" data-name="patch 11">
        <g class="cls-43">
          <path class="cls-31" d="m125.1,840.9h32.5v-326.2h-32.5s0,326.2,0,326.2Z"/>
        </g>
      </g>
      <g id="patch_12" data-name="patch 12">
        <g class="cls-36">
          <path class="cls-44" d="m190.2,840.9h32.5v-204.8h-32.5v204.8Z"/>
        </g>
      </g>
      <g id="patch_13" data-name="patch 13">
        <g class="cls-53">
          <path class="cls-45" d="m255.2,840.9h32.5v-206.1h-32.5v206.1h0Z"/>
        </g>
      </g>
      <g id="patch_14" data-name="patch 14">
        <g class="cls-4">
          <path class="cls-52" d="m255.2,634.7h32.5v-2.8h-32.5v2.8h0Z"/>
        </g>
      </g>
      <g id="patch_15" data-name="patch 15">
        <g class="cls-29">
          <path class="cls-45" d="m255.2,631.9h32.5v-51.4h-32.5v51.4h0Z"/>
        </g>
      </g>
      <g id="patch_16" data-name="patch 16">
        <g class="cls-13">
          <path class="cls-16" d="m320.2,840.9h32.5v-228.4h-32.5v228.4Z"/>
        </g>
      </g>
      <g id="patch_17" data-name="patch 17">
        <g class="cls-48">
          <path class="cls-52" d="m385.3,840.9h32.5v-215.6h-32.5v215.6Z"/>
        </g>
      </g>
      <g id="patch_18" data-name="patch 18">
        <g class="cls-17">
          <path class="cls-51" d="m450.3,840.9h32.5v-276.7h-32.5v276.7Z"/>
        </g>
      </g>
      <g id="patch_19" data-name="patch 19">
        <g class="cls-5">
          <path class="cls-34" d="m515.3,840.9h32.5v-252.4h-32.5v252.4Z"/>
        </g>
      </g>
      <g id="patch_20" data-name="patch 20">
        <g class="cls-49">
          <path class="cls-10" d="m580.4,840.9h32.5v-96.8h-32.5v96.8Z"/>
        </g>
      </g>
      <g id="patch_21" data-name="patch 21">
        <g class="cls-47">
          <path class="cls-34" d="m580.4,744h32.5v-20.9h-32.5v20.9Z"/>
        </g>
      </g>
      <g id="patch_22" data-name="patch 22">
        <g class="cls-40">
          <path class="cls-10" d="m580.4,723h32.5v-124.9h-32.5v124.9Z"/>
        </g>
      </g>
    </g>
  </g>
  <g id="figure_1-2" data-name="figure 1">
    <g id="patch_1-2" data-name="patch 1">
      <path class="cls-6" d="m0,445h720V0H0v445Z"/>
    </g>
    <g id="axes_1-2" data-name="axes 1">
      <g id="patch_2-2" data-name="patch 2">
        <path class="cls-6" d="m90,396h558V53.4H90v342.6Z"/>
      </g>
      <g id="patch_3-2" data-name="patch 3">
        <g class="cls-3">
          <path class="cls-39" d="m115.4,396h52v-.8h-52s0,.8,0,.8Z"/>
        </g>
      </g>
      <g id="patch_4-2" data-name="patch 4">
        <g class="cls-22">
          <path class="cls-39" d="m180.4,396h52v-.8h-52v.8Z"/>
        </g>
      </g>
      <g id="patch_5-2" data-name="patch 5">
        <g class="cls-33">
          <path class="cls-39" d="m245.4,396h52v-.8h-52v.8Z"/>
        </g>
      </g>
      <g id="patch_6-2" data-name="patch 6">
        <g class="cls-54">
          <path class="cls-39" d="m310.5,396h52v-.8h-52v.8Z"/>
        </g>
      </g>
      <g id="patch_7-2" data-name="patch 7">
        <g class="cls-30">
          <path class="cls-39" d="m375.5,396h52v-.8h-52v.8Z"/>
        </g>
      </g>
      <g id="patch_8-2" data-name="patch 8">
        <g class="cls-15">
          <path class="cls-39" d="m440.5,396h52v-.8h-52v.8Z"/>
        </g>
      </g>
      <g id="patch_9-2" data-name="patch 9">
        <g class="cls-20">
          <path class="cls-39" d="m505.6,396h52v-.8h-52v.8h0Z"/>
        </g>
      </g>
      <g id="patch_10-2" data-name="patch 10">
        <g class="cls-28">
          <path class="cls-39" d="m570.6,396h52v-.8h-52v.8Z"/>
        </g>
      </g>
      <g id="patch_11-2" data-name="patch 11">
        <g class="cls-55">
          <path class="cls-31" d="m125.1,395.9h32.5V69.7h-32.5s0,326.2,0,326.2Z"/>
        </g>
      </g>
      <g id="patch_12-2" data-name="patch 12">
        <g class="cls-46">
          <path class="cls-44" d="m190.2,395.9h32.5v-204.8h-32.5v204.8Z"/>
        </g>
      </g>
      <g id="patch_13-2" data-name="patch 13">
        <g class="cls-32">
          <path class="cls-45" d="m255.2,395.9h32.5v-206.1h-32.5v206.1h0Z"/>
        </g>
      </g>
      <g id="patch_14-2" data-name="patch 14">
        <g class="cls-41">
          <path class="cls-52" d="m255.2,189.7h32.5v-2.7h-32.5v2.7h0Z"/>
        </g>
      </g>
      <g id="patch_15-2" data-name="patch 15">
        <g class="cls-9">
          <path class="cls-45" d="m255.2,186.9h32.5v-51.4h-32.5v51.4h0Z"/>
        </g>
      </g>
      <g id="patch_16-2" data-name="patch 16">
        <g class="cls-7">
          <path class="cls-16" d="m320.2,395.9h32.5v-228.4h-32.5v228.4Z"/>
        </g>
      </g>
      <g id="patch_17-2" data-name="patch 17">
        <g class="cls-23">
          <path class="cls-52" d="m385.3,395.9h32.5v-215.6h-32.5v215.6Z"/>
        </g>
      </g>
      <g id="patch_18-2" data-name="patch 18">
        <g class="cls-56">
          <path class="cls-11" d="m450.3,395.9h32.5v-125h-32.5v125Z"/>
        </g>
      </g>
      <g id="patch_19-2" data-name="patch 19">
        <g class="cls-27">
          <path class="cls-35" d="m450.3,270.8h32.5V119.3h-32.5v151.5Z"/>
        </g>
      </g>
      <g id="patch_20-2" data-name="patch 20">
        <g class="cls-14">
          <path class="cls-34" d="m515.3,395.9h32.5v-252.3h-32.5v252.3Z"/>
        </g>
      </g>
      <g id="patch_21-2" data-name="patch 21">
        <g class="cls-26">
          <path class="cls-35" d="m580.4,395.9h32.5v-96.8h-32.5v96.8Z"/>
        </g>
      </g>
      <g id="patch_22-2" data-name="patch 22">
        <g class="cls-38">
          <path class="cls-34" d="m580.4,299h32.5v-20.9h-32.5v20.9Z"/>
        </g>
      </g>
      <g id="patch_23" data-name="patch 23">
        <g class="cls-19">
          <path class="cls-35" d="m580.4,278h32.5v-74.5h-32.5v74.5Z"/>
        </g>
      </g>
      <g id="patch_24" data-name="patch 24">
        <g class="cls-8">
          <path class="cls-11" d="m580.4,203.4h32.5v-50.3h-32.5v50.3Z"/>
        </g>
      </g>
    </g>
  </g>
  <g>
    <text class="cls-1" transform="translate(189.21 869.73)"><tspan x="0" y="0">AKI mapped to</tspan></text>
    <text class="cls-2" transform="translate(354.64 869.73)"><tspan x="0" y="0">Cardamine hirsuta</tspan></text>
  </g>
  <g>
    <text class="cls-1" transform="translate(189.18 420.18)"><tspan x="0" y="0">ACBK mapped to</tspan></text>
    <text class="cls-2" transform="translate(381.29 420.18)"><tspan x="0" y="0">Cardamine hirsuta</tspan></text>
  </g>
</svg>