<svg id="_图层_1" data-name=" 图层 1" xmlns="http://www.w3.org/2000/svg" xmlns:xlink="http://www.w3.org/1999/xlink" viewBox="0 0 720.5 1337"><defs><style>.cls-1{fill:none;}.cls-2{fill:#fff;}.cls-3{clip-path:url(#clip-path);}.cls-4{fill:#eee950;}.cls-5{fill:#e2974f;}.cls-6{fill:#c765a3;}.cls-7{fill:#d8473d;}.cls-8{fill:#3d55a0;}.cls-9{fill:#834127;}.cls-10{fill:#fcbcd7;}.cls-11{fill:#4aa45b;}.cls-12{clip-path:url(#clip-path-25);}.cls-13{fill:#b8b4a1;}.cls-14{fill:#437579;}.cls-15{clip-path:url(#clip-path-47);}.cls-16{fill:#9ac9db;}.cls-17{fill:#f0768b;}.cls-18,.cls-19,.cls-20{isolation:isolate;}.cls-19,.cls-20{font-size:24px;}.cls-19{font-family:ArialMT, Arial;}.cls-20{font-family:Arial-ItalicMT, Arial;font-style:italic;}</style><clipPath id="clip-path" transform="translate(0 2)"><rect class="cls-1" x="90.5" y="51.4" width="558" height="342.6"/></clipPath><clipPath id="clip-path-25" transform="translate(0 2)"><rect class="cls-1" x="90.5" y="498.4" width="558" height="342.6"/></clipPath><clipPath id="clip-path-47" transform="translate(0 2)"><rect class="cls-1" x="90" y="943.4" width="558" height="342.6"/></clipPath></defs><title>Camelina_neglecta.karyotype</title><g id="figure_1" data-name="figure 1"><g id="patch_1" data-name="patch 1"><path class="cls-2" d="M.5,443h720V-2H.5Z" transform="translate(0 2)"/></g><g id="axes_1" data-name="axes 1"><g id="patch_2" data-name="patch 2"><path class="cls-2" d="M90.5,394h558V51.4H90.5Z" transform="translate(0 2)"/></g><g id="patch_3" data-name="patch 3"><g class="cls-3"><path class="cls-1" d="M115.9,394h70v-.4h-70Z" transform="translate(0 2)"/></g></g><g id="patch_4" data-name="patch 4"><g class="cls-3"><path class="cls-1" d="M203.3,394h70v-.4h-70v.4Z" transform="translate(0 2)"/></g></g><g id="patch_5" data-name="patch 5"><g class="cls-3"><path class="cls-1" d="M290.8,394h70v-.4h-70Z" transform="translate(0 2)"/></g></g><g id="patch_6" data-name="patch 6"><g class="cls-3"><path class="cls-1" d="M378.2,394h70v-.4h-70Z" transform="translate(0 2)"/></g></g><g id="patch_7" data-name="patch 7"><g class="cls-3"><path class="cls-1" d="M465.7,394h70v-.4h-70Z" transform="translate(0 2)"/></g></g><g id="patch_8" data-name="patch 8"><g class="cls-3"><path class="cls-1" d="M553.2,394h70v-.4h-70Z" transform="translate(0 2)"/></g></g><g id="patch_9" data-name="patch 9"><g class="cls-3"><path class="cls-4" d="M129,394h43.7V182.2H129Z" transform="translate(0 2)"/></g></g><g id="patch_10" data-name="patch 10"><g class="cls-3"><path class="cls-5" d="M216.4,394h43.7V371.8H216.4V394Z" transform="translate(0 2)"/></g></g><g id="patch_11" data-name="patch 11"><g class="cls-3"><path class="cls-6" d="M216.4,371.7h43.7V334.1H216.4v37.6Z" transform="translate(0 2)"/></g></g><g id="patch_12" data-name="patch 12"><g class="cls-3"><path class="cls-7" d="M216.4,334.1h43.7V234.3H216.4v99.8Z" transform="translate(0 2)"/></g></g><g id="patch_13" data-name="patch 13"><g class="cls-3"><path class="cls-6" d="M216.4,234.2h43.7V210.8H216.4v23.4Z" transform="translate(0 2)"/></g></g><g id="patch_14" data-name="patch 14"><g class="cls-3"><path class="cls-7" d="M216.4,210.8h43.7V199.9H216.4v10.9Z" transform="translate(0 2)"/></g></g><g id="patch_15" data-name="patch 15"><g class="cls-3"><path class="cls-6" d="M216.4,199.8h43.7v-5.5H216.4v5.5Z" transform="translate(0 2)"/></g></g><g id="patch_16" data-name="patch 16"><g class="cls-3"><path class="cls-7" d="M216.4,194.3h43.7V173.1H216.4v21.2Z" transform="translate(0 2)"/></g></g><g id="patch_17" data-name="patch 17"><g class="cls-3"><path class="cls-8" d="M303.9,394h43.7V212.6H303.9Z" transform="translate(0 2)"/></g></g><g id="patch_18" data-name="patch 18"><g class="cls-3"><path class="cls-5" d="M391.4,394h43.7V264.5H391.4Z" transform="translate(0 2)"/></g></g><g id="patch_19" data-name="patch 19"><g class="cls-3"><path class="cls-6" d="M391.4,264.5h43.7V197.3H391.4Z" transform="translate(0 2)"/></g></g><g id="patch_20" data-name="patch 20"><g class="cls-3"><path class="cls-9" d="M478.8,394h43.7V296.7H478.8Z" transform="translate(0 2)"/></g></g><g id="patch_21" data-name="patch 21"><g class="cls-3"><path class="cls-10" d="M478.8,296.6h43.7V267.8H478.8Z" transform="translate(0 2)"/></g></g><g id="patch_22" data-name="patch 22"><g class="cls-3"><path class="cls-9" d="M478.8,267.7h43.7V212H478.8Z" transform="translate(0 2)"/></g></g><g id="patch_23" data-name="patch 23"><g class="cls-3"><path class="cls-11" d="M566.3,394H610V206.4H566.3Z" transform="translate(0 2)"/></g></g><g id="patch_24" data-name="patch 24"><g class="cls-3"><path class="cls-10" d="M566.3,206.4H610v-49H566.3Z" transform="translate(0 2)"/></g></g><g id="patch_25" data-name="patch 25"><g class="cls-3"><path class="cls-9" d="M566.3,157.4H610V98.7H566.3Z" transform="translate(0 2)"/></g></g><g id="patch_26" data-name="patch 26"><g class="cls-3"><path class="cls-10" d="M566.3,98.6H610V67.7H566.3Z" transform="translate(0 2)"/></g></g></g></g><g id="figure_1-2" data-name="figure 1-2"><g id="patch_1-2" data-name="patch 1-2"><path class="cls-2" d="M.5,889.9h720V445H.5Z" transform="translate(0 2)"/></g><g id="axes_1-2" data-name="axes 1-2"><g id="patch_2-2" data-name="patch 2-2"><path class="cls-2" d="M90.5,841h558V498.3H90.5Z" transform="translate(0 2)"/></g><g id="patch_3-2" data-name="patch 3-2"><g class="cls-12"><path class="cls-1" d="M115.9,841h70v-.4h-70Z" transform="translate(0 2)"/></g></g><g id="patch_4-2" data-name="patch 4-2"><g class="cls-12"><path class="cls-1" d="M203.3,841h70v-.4h-70v.4Z" transform="translate(0 2)"/></g></g><g id="patch_5-2" data-name="patch 5-2"><g class="cls-12"><path class="cls-1" d="M290.8,841h70v-.4h-70Z" transform="translate(0 2)"/></g></g><g id="patch_6-2" data-name="patch 6-2"><g class="cls-12"><path class="cls-1" d="M378.3,841h70v-.4h-70Z" transform="translate(0 2)"/></g></g><g id="patch_7-2" data-name="patch 7-2"><g class="cls-12"><path class="cls-1" d="M465.7,841h70v-.4h-70Z" transform="translate(0 2)"/></g></g><g id="patch_8-2" data-name="patch 8-2"><g class="cls-12"><path class="cls-1" d="M553.2,841h70v-.4h-70v.4Z" transform="translate(0 2)"/></g></g><g id="patch_9-2" data-name="patch 9-2"><g class="cls-12"><path class="cls-4" d="M129,840.9h43.7V629.1H129Z" transform="translate(0 2)"/></g></g><g id="patch_10-2" data-name="patch 10-2"><g class="cls-12"><path class="cls-5" d="M216.4,840.9h43.7V818.7H216.4v22.2Z" transform="translate(0 2)"/></g></g><g id="patch_11-2" data-name="patch 11-2"><g class="cls-12"><path class="cls-6" d="M216.4,818.7h43.7V781H216.4v37.7Z" transform="translate(0 2)"/></g></g><g id="patch_12-2" data-name="patch 12-2"><g class="cls-12"><path class="cls-7" d="M216.4,781h43.7V681.2H216.4V781Z" transform="translate(0 2)"/></g></g><g id="patch_13-2" data-name="patch 13-2"><g class="cls-12"><path class="cls-6" d="M216.4,681.2h43.7V657.9H216.4v23.3Z" transform="translate(0 2)"/></g></g><g id="patch_14-2" data-name="patch 14-2"><g class="cls-12"><path class="cls-7" d="M216.4,657.8h43.7V646.9H216.4v10.9Z" transform="translate(0 2)"/></g></g><g id="patch_15-2" data-name="patch 15-2"><g class="cls-12"><path class="cls-6" d="M216.4,646.8h43.7v-5.5H216.4v5.5Z" transform="translate(0 2)"/></g></g><g id="patch_16-2" data-name="patch 16-2"><g class="cls-12"><path class="cls-7" d="M216.4,641.3h43.7V620.1H216.4v21.2Z" transform="translate(0 2)"/></g></g><g id="patch_17-2" data-name="patch 17-2"><g class="cls-12"><path class="cls-8" d="M303.9,840.9h43.7V659.5H303.9V840.9Z" transform="translate(0 2)"/></g></g><g id="patch_18-2" data-name="patch 18-2"><g class="cls-12"><path class="cls-5" d="M391.4,840.9h43.7V711.6H391.4Z" transform="translate(0 2)"/></g></g><g id="patch_19-2" data-name="patch 19-2"><g class="cls-12"><path class="cls-6" d="M391.4,711.6h43.7V644.3H391.4Z" transform="translate(0 2)"/></g></g><g id="patch_20-2" data-name="patch 20-2"><g class="cls-12"><path class="cls-13" d="M478.8,840.9h43.7V714.7H478.8Z" transform="translate(0 2)"/></g></g><g id="patch_21-2" data-name="patch 21-2"><g class="cls-12"><path class="cls-14" d="M478.8,714.6h43.7V659H478.8Z" transform="translate(0 2)"/></g></g><g id="patch_22-2" data-name="patch 22-2"><g class="cls-12"><path class="cls-11" d="M566.3,840.9H610V653.2H566.3V840.9Z" transform="translate(0 2)"/></g></g><g id="patch_23-2" data-name="patch 23-2"><g class="cls-12"><path class="cls-13" d="M566.3,653.1H610V604.4H566.3Z" transform="translate(0 2)"/></g></g><g id="patch_24-2" data-name="patch 24-2"><g class="cls-12"><path class="cls-14" d="M566.3,604.3H610V514.6H566.3Z" transform="translate(0 2)"/></g></g></g></g><g id="figure_1-3" data-name="figure 1-3"><g id="patch_1-3" data-name="patch 1-3"><path class="cls-2" d="M0,1335H720V890H0Z" transform="translate(0 2)"/></g><g id="axes_1-3" data-name="axes 1-3"><g id="patch_2-3" data-name="patch 2-3"><path class="cls-2" d="M90,1286H648V943.4H90Z" transform="translate(0 2)"/></g><g id="patch_3-3" data-name="patch 3-3"><g class="cls-15"><path class="cls-1" d="M115.4,1286h70v-.4h-70Z" transform="translate(0 2)"/></g></g><g id="patch_4-3" data-name="patch 4-3"><g class="cls-15"><path class="cls-1" d="M202.8,1286h70v-.4h-70v.4Z" transform="translate(0 2)"/></g></g><g id="patch_5-3" data-name="patch 5-3"><g class="cls-15"><path class="cls-1" d="M290.3,1286h70v-.4h-70Z" transform="translate(0 2)"/></g></g><g id="patch_6-3" data-name="patch 6-3"><g class="cls-15"><path class="cls-1" d="M377.8,1286h70v-.4h-70Z" transform="translate(0 2)"/></g></g><g id="patch_7-3" data-name="patch 7-3"><g class="cls-15"><path class="cls-1" d="M465.2,1286h70v-.4h-70Z" transform="translate(0 2)"/></g></g><g id="patch_8-3" data-name="patch 8-3"><g class="cls-15"><path class="cls-1" d="M552.7,1286h70v-.4h-70v.4Z" transform="translate(0 2)"/></g></g><g id="patch_9-3" data-name="patch 9-3"><g class="cls-15"><path class="cls-4" d="M128.5,1286h43.7V1074.2H128.5Z" transform="translate(0 2)"/></g></g><g id="patch_10-3" data-name="patch 10-3"><g class="cls-15"><path class="cls-5" d="M215.9,1286h43.7v-22.2H215.9V1286Z" transform="translate(0 2)"/></g></g><g id="patch_11-3" data-name="patch 11-3"><g class="cls-15"><path class="cls-6" d="M215.9,1263.8h43.7v-37.7H215.9v37.7Z" transform="translate(0 2)"/></g></g><g id="patch_12-3" data-name="patch 12-3"><g class="cls-15"><path class="cls-7" d="M215.9,1226.1h43.7v-99.8H215.9v99.8Z" transform="translate(0 2)"/></g></g><g id="patch_13-3" data-name="patch 13-3"><g class="cls-15"><path class="cls-6" d="M215.9,1126.2h43.7v-23.3H215.9v23.3Z" transform="translate(0 2)"/></g></g><g id="patch_14-3" data-name="patch 14-3"><g class="cls-15"><path class="cls-7" d="M215.9,1102.8h43.7v-10.9H215.9v10.9Z" transform="translate(0 2)"/></g></g><g id="patch_15-3" data-name="patch 15-3"><g class="cls-15"><path class="cls-6" d="M215.9,1091.8h43.7v-5.5H215.9v5.5Z" transform="translate(0 2)"/></g></g><g id="patch_16-3" data-name="patch 16-3"><g class="cls-15"><path class="cls-7" d="M215.9,1086.3h43.7v-21.2H215.9v21.2Z" transform="translate(0 2)"/></g></g><g id="patch_17-3" data-name="patch 17-3"><g class="cls-15"><path class="cls-8" d="M303.4,1286h43.7V1104.6H303.4Z" transform="translate(0 2)"/></g></g><g id="patch_18-3" data-name="patch 18-3"><g class="cls-15"><path class="cls-5" d="M390.9,1286h43.7V1156.7H390.9Z" transform="translate(0 2)"/></g></g><g id="patch_19-3" data-name="patch 19-3"><g class="cls-15"><path class="cls-6" d="M390.9,1156.6h43.7v-67.3H390.9Z" transform="translate(0 2)"/></g></g><g id="patch_20-3" data-name="patch 20-3"><g class="cls-15"><path class="cls-16" d="M478.3,1286H522V1104.1H478.3Z" transform="translate(0 2)"/></g></g><g id="patch_21-3" data-name="patch 21-3"><g class="cls-15"><path class="cls-11" d="M565.8,1286h43.7V1098.5H565.8Z" transform="translate(0 2)"/></g></g><g id="patch_22-3" data-name="patch 22-3"><g class="cls-15"><path class="cls-17" d="M565.8,1098.4h43.7V959.7H565.8Z" transform="translate(0 2)"/></g></g></g></g><g class="cls-18"><text class="cls-19" transform="translate(194.29 422.76)">ACBK mapped to </text><text class="cls-20" transform="translate(386.39 422.76)">Camelina neglecta</text></g><g class="cls-18"><text class="cls-19" transform="translate(186.91 875.9)">AKI mapped to </text><text class="cls-20" transform="translate(352.31 875.9)">Camelina neglecta</text></g><g class="cls-18"><text class="cls-19" transform="translate(200.24 1314.9)">tAKI mapped to </text><text class="cls-20" transform="translate(372.34 1314.9)">Camelina neglecta</text></g></svg>