<svg id="_图层_1" data-name=" 图层 1" xmlns="http://www.w3.org/2000/svg" xmlns:xlink="http://www.w3.org/1999/xlink" viewBox="0 0 720.5 1335.98"><defs><style>.cls-1{fill:none;}.cls-2{fill:#fff;}.cls-3{clip-path:url(#clip-path);}.cls-4{fill:#eee950;}.cls-5{fill:#d8473d;}.cls-6{fill:#3d55a0;}.cls-7{fill:#c765a3;}.cls-8{fill:#e2974f;}.cls-9{fill:#834127;}.cls-10{fill:#fcbcd7;}.cls-11{fill:#4aa45b;}.cls-12{clip-path:url(#clip-path-22);}.cls-13{fill:#b8b4a1;}.cls-14{fill:#437579;}.cls-15{clip-path:url(#clip-path-41);}.cls-16{fill:#9ac9db;}.cls-17{fill:#f0768b;}.cls-18,.cls-19,.cls-20{isolation:isolate;}.cls-19,.cls-20{font-size:24px;}.cls-19{font-family:ArialMT, Arial;}.cls-20{font-family:Arial-ItalicMT, Arial;font-style:italic;}</style><clipPath id="clip-path" transform="translate(0 0)"><rect class="cls-1" x="90" y="53.4" width="558" height="342.62"/></clipPath><clipPath id="clip-path-22" transform="translate(0 0)"><rect class="cls-1" x="90.5" y="498.42" width="558" height="342.62"/></clipPath><clipPath id="clip-path-41" transform="translate(0 0)"><rect class="cls-1" x="90.5" y="944.42" width="558" height="342.62"/></clipPath></defs><title>Arabidopsis_lyrata.karyotype</title><g id="figure_1" data-name="figure 1"><g id="patch_1" data-name="patch 1"><path class="cls-2" d="M0,445H720V0H0Z" transform="translate(0 0)"/></g><g id="axes_1" data-name="axes 1"><g id="patch_2" data-name="patch 2"><path class="cls-2" d="M90,396H648V53.4H90V396Z" transform="translate(0 0)"/></g><g id="patch_3" data-name="patch 3"><g class="cls-3"><path class="cls-1" d="M115.36,396h52v-.66h-52Z" transform="translate(0 0)"/></g></g><g id="patch_4" data-name="patch 4"><g class="cls-3"><path class="cls-1" d="M180.4,396h52v-.66h-52Z" transform="translate(0 0)"/></g></g><g id="patch_5" data-name="patch 5"><g class="cls-3"><path class="cls-1" d="M245.43,396h52v-.66h-52Z" transform="translate(0 0)"/></g></g><g id="patch_6" data-name="patch 6"><g class="cls-3"><path class="cls-1" d="M310.47,396h52v-.66h-52Z" transform="translate(0 0)"/></g></g><g id="patch_7" data-name="patch 7"><g class="cls-3"><path class="cls-1" d="M375.5,396h52v-.66h-52Z" transform="translate(0 0)"/></g></g><g id="patch_8" data-name="patch 8"><g class="cls-3"><path class="cls-1" d="M440.54,396h52v-.66h-52Z" transform="translate(0 0)"/></g></g><g id="patch_9" data-name="patch 9"><g class="cls-3"><path class="cls-1" d="M505.57,396h52v-.66h-52V396Z" transform="translate(0 0)"/></g></g><g id="patch_10" data-name="patch 10"><g class="cls-3"><path class="cls-1" d="M570.61,396h52v-.66h-52Z" transform="translate(0 0)"/></g></g><g id="patch_11" data-name="patch 11"><g class="cls-3"><path class="cls-4" d="M125.12,396h32.52V84.2H125.12Z" transform="translate(0 0)"/></g></g><g id="patch_12" data-name="patch 12"><g class="cls-3"><path class="cls-5" d="M125.12,84.13h32.52V69.71H125.12Z" transform="translate(0 0)"/></g></g><g id="patch_13" data-name="patch 13"><g class="cls-3"><path class="cls-5" d="M190.15,396h32.52v-172H190.15Z" transform="translate(0 0)"/></g></g><g id="patch_14" data-name="patch 14"><g class="cls-3"><path class="cls-6" d="M255.19,396h32.52V144.06H255.19V396Z" transform="translate(0 0)"/></g></g><g id="patch_15" data-name="patch 15"><g class="cls-3"><path class="cls-7" d="M320.22,396h32.52V183.46H320.22Z" transform="translate(0 0)"/></g></g><g id="patch_16" data-name="patch 16"><g class="cls-3"><path class="cls-8" d="M385.26,396h32.52V190.61H385.26Z" transform="translate(0 0)"/></g></g><g id="patch_17" data-name="patch 17"><g class="cls-3"><path class="cls-9" d="M450.29,396h32.52V251.45H450.29Z" transform="translate(0 0)"/></g></g><g id="patch_18" data-name="patch 18"><g class="cls-3"><path class="cls-10" d="M450.29,251.38h32.52V212.89H450.29Z" transform="translate(0 0)"/></g></g><g id="patch_19" data-name="patch 19"><g class="cls-3"><path class="cls-9" d="M450.29,212.83h32.52V140.91H450.29Z" transform="translate(0 0)"/></g></g><g id="patch_20" data-name="patch 20"><g class="cls-3"><path class="cls-11" d="M515.33,396h32.52V143.67H515.33Z" transform="translate(0 0)"/></g></g><g id="patch_21" data-name="patch 21"><g class="cls-3"><path class="cls-10" d="M580.36,396h32.52V323.37H580.36Z" transform="translate(0 0)"/></g></g><g id="patch_22" data-name="patch 22"><g class="cls-3"><path class="cls-9" d="M580.36,323.31h32.52V239.13H580.36Z" transform="translate(0 0)"/></g></g><g id="patch_23" data-name="patch 23"><g class="cls-3"><path class="cls-10" d="M580.36,239.06h32.52V189.43H580.36Z" transform="translate(0 0)"/></g></g></g></g><g id="figure_1-2" data-name="figure 1-2"><g id="patch_1-2" data-name="patch 1-2"><path class="cls-2" d="M.5,890h720V445H.5Z" transform="translate(0 0)"/></g><g id="axes_1-2" data-name="axes 1-2"><g id="patch_2-2" data-name="patch 2-2"><path class="cls-2" d="M90.5,841h558V498.41H90.5Z" transform="translate(0 0)"/></g><g id="patch_3-2" data-name="patch 3-2"><g class="cls-12"><path class="cls-1" d="M115.86,841h52v-.66h-52Z" transform="translate(0 0)"/></g></g><g id="patch_4-2" data-name="patch 4-2"><g class="cls-12"><path class="cls-1" d="M180.9,841h52v-.66h-52Z" transform="translate(0 0)"/></g></g><g id="patch_5-2" data-name="patch 5-2"><g class="cls-12"><path class="cls-1" d="M245.93,841h52v-.66h-52Z" transform="translate(0 0)"/></g></g><g id="patch_6-2" data-name="patch 6-2"><g class="cls-12"><path class="cls-1" d="M311,841h52v-.66H311Z" transform="translate(0 0)"/></g></g><g id="patch_7-2" data-name="patch 7-2"><g class="cls-12"><path class="cls-1" d="M376,841h52v-.66H376Z" transform="translate(0 0)"/></g></g><g id="patch_8-2" data-name="patch 8-2"><g class="cls-12"><path class="cls-1" d="M441,841h52v-.66H441Z" transform="translate(0 0)"/></g></g><g id="patch_9-2" data-name="patch 9-2"><g class="cls-12"><path class="cls-1" d="M506.07,841h52v-.66h-52V841Z" transform="translate(0 0)"/></g></g><g id="patch_10-2" data-name="patch 10-2"><g class="cls-12"><path class="cls-1" d="M571.11,841h52v-.66h-52Z" transform="translate(0 0)"/></g></g><g id="patch_11-2" data-name="patch 11-2"><g class="cls-12"><path class="cls-4" d="M125.62,841h32.52V529.22H125.62Z" transform="translate(0 0)"/></g></g><g id="patch_12-2" data-name="patch 12-2"><g class="cls-12"><path class="cls-5" d="M125.62,529.15h32.52V514.73H125.62Z" transform="translate(0 0)"/></g></g><g id="patch_13-2" data-name="patch 13-2"><g class="cls-12"><path class="cls-5" d="M190.65,841h32.52v-172H190.65Z" transform="translate(0 0)"/></g></g><g id="patch_14-2" data-name="patch 14-2"><g class="cls-12"><path class="cls-6" d="M255.69,841h32.52V589.08H255.69V841Z" transform="translate(0 0)"/></g></g><g id="patch_15-2" data-name="patch 15-2"><g class="cls-12"><path class="cls-7" d="M320.72,841h32.52V628.48H320.72Z" transform="translate(0 0)"/></g></g><g id="patch_16-2" data-name="patch 16-2"><g class="cls-12"><path class="cls-8" d="M385.76,841h32.52V635.63H385.76Z" transform="translate(0 0)"/></g></g><g id="patch_17-2" data-name="patch 17-2"><g class="cls-12"><path class="cls-13" d="M450.79,841h32.52V658.38H450.79Z" transform="translate(0 0)"/></g></g><g id="patch_18-2" data-name="patch 18-2"><g class="cls-12"><path class="cls-14" d="M450.79,658.31h32.52V585.93H450.79Z" transform="translate(0 0)"/></g></g><g id="patch_19-2" data-name="patch 19-2"><g class="cls-12"><path class="cls-11" d="M515.83,841h32.52V588.69H515.83Z" transform="translate(0 0)"/></g></g><g id="patch_20-2" data-name="patch 20-2"><g class="cls-12"><path class="cls-13" d="M580.86,841h32.52V768.39H580.86Z" transform="translate(0 0)"/></g></g><g id="patch_21-2" data-name="patch 21-2"><g class="cls-12"><path class="cls-14" d="M580.86,768.33h32.52V634.45H580.86Z" transform="translate(0 0)"/></g></g></g></g><g id="figure_1-3" data-name="figure 1-3"><g id="patch_1-3" data-name="patch 1-3"><path class="cls-2" d="M.5,1336h720V891H.5Z" transform="translate(0 0)"/></g><g id="axes_1-3" data-name="axes 1-3"><g id="patch_2-3" data-name="patch 2-3"><path class="cls-2" d="M90.5,1287h558V944.41H90.5Z" transform="translate(0 0)"/></g><g id="patch_3-3" data-name="patch 3-3"><g class="cls-15"><path class="cls-1" d="M115.86,1287h52v-.66h-52Z" transform="translate(0 0)"/></g></g><g id="patch_4-3" data-name="patch 4-3"><g class="cls-15"><path class="cls-1" d="M180.9,1287h52v-.66h-52Z" transform="translate(0 0)"/></g></g><g id="patch_5-3" data-name="patch 5-3"><g class="cls-15"><path class="cls-1" d="M245.93,1287h52v-.66h-52Z" transform="translate(0 0)"/></g></g><g id="patch_6-3" data-name="patch 6-3"><g class="cls-15"><path class="cls-1" d="M311,1287h52v-.66H311Z" transform="translate(0 0)"/></g></g><g id="patch_7-3" data-name="patch 7-3"><g class="cls-15"><path class="cls-1" d="M376,1287h52v-.66H376Z" transform="translate(0 0)"/></g></g><g id="patch_8-3" data-name="patch 8-3"><g class="cls-15"><path class="cls-1" d="M441,1287h52v-.66H441Z" transform="translate(0 0)"/></g></g><g id="patch_9-3" data-name="patch 9-3"><g class="cls-15"><path class="cls-1" d="M506.07,1287h52v-.66h-52v.66Z" transform="translate(0 0)"/></g></g><g id="patch_10-3" data-name="patch 10-3"><g class="cls-15"><path class="cls-1" d="M571.11,1287h52v-.66h-52Z" transform="translate(0 0)"/></g></g><g id="patch_11-3" data-name="patch 11-3"><g class="cls-15"><path class="cls-4" d="M125.62,1287h32.52V975.22H125.62Z" transform="translate(0 0)"/></g></g><g id="patch_12-3" data-name="patch 12-3"><g class="cls-15"><path class="cls-5" d="M125.62,975.15h32.52V960.73H125.62Z" transform="translate(0 0)"/></g></g><g id="patch_13-3" data-name="patch 13-3"><g class="cls-15"><path class="cls-5" d="M190.65,1287h32.52v-172H190.65Z" transform="translate(0 0)"/></g></g><g id="patch_14-3" data-name="patch 14-3"><g class="cls-15"><path class="cls-6" d="M255.69,1287h32.52V1035.08H255.69V1287Z" transform="translate(0 0)"/></g></g><g id="patch_15-3" data-name="patch 15-3"><g class="cls-15"><path class="cls-7" d="M320.72,1287h32.52V1074.48H320.72Z" transform="translate(0 0)"/></g></g><g id="patch_16-3" data-name="patch 16-3"><g class="cls-15"><path class="cls-8" d="M385.76,1287h32.52V1081.63H385.76Z" transform="translate(0 0)"/></g></g><g id="patch_17-3" data-name="patch 17-3"><g class="cls-15"><path class="cls-16" d="M450.79,1287h32.52v-255H450.79Z" transform="translate(0 0)"/></g></g><g id="patch_18-3" data-name="patch 18-3"><g class="cls-15"><path class="cls-11" d="M515.83,1287h32.52V1034.69H515.83Z" transform="translate(0 0)"/></g></g><g id="patch_19-3" data-name="patch 19-3"><g class="cls-15"><path class="cls-17" d="M580.86,1287h32.52V1080.45H580.86Z" transform="translate(0 0)"/></g></g></g></g><g class="cls-18"><text class="cls-19" transform="translate(194.35 877.96)">AKI mapped to </text><text class="cls-20" transform="translate(359.78 877.96)">Arabidopsis lyrata</text></g><g class="cls-18"><text class="cls-19" transform="translate(202.37 1319.44)">tAKI mapped to </text><text class="cls-20" transform="translate(374.47 1319.44)">Arabidopsis lyrata</text></g><g class="cls-18"><text class="cls-19" transform="translate(194.32 428.41)">ACBK mapped to</text></g><g class="cls-18"><text class="cls-20" transform="translate(386.43 428.41)">Arabidopsis lyrata</text></g></svg>