<svg id="_图层_1" data-name=" 图层 1" xmlns="http://www.w3.org/2000/svg" xmlns:xlink="http://www.w3.org/1999/xlink" viewBox="0 0 720.5 1334.98"><defs><style>.cls-1{fill:none;}.cls-2{fill:#fff;}.cls-3{clip-path:url(#clip-path);}.cls-4{fill:#eee950;}.cls-5{fill:#d8473d;}.cls-6{fill:#e2974f;}.cls-7{fill:#3d55a0;}.cls-8{fill:#c765a3;}.cls-9{fill:#834127;}.cls-10{fill:#4aa45b;}.cls-11{fill:#fcbcd7;}.cls-12{clip-path:url(#clip-path-23);}.cls-13{fill:#437579;}.cls-14{fill:#b8b4a1;}.cls-15{clip-path:url(#clip-path-43);}.cls-16{fill:#9ac9db;}.cls-17{fill:#f0768b;}.cls-18,.cls-19,.cls-20{isolation:isolate;}.cls-19,.cls-20{font-size:24px;}.cls-19{font-family:ArialMT, Arial;}.cls-20{font-family:Arial-ItalicMT, Arial;font-style:italic;}</style><clipPath id="clip-path" transform="translate(0 0)"><rect class="cls-1" x="90" y="53.4" width="558" height="342.62"/></clipPath><clipPath id="clip-path-23" transform="translate(0 0)"><rect class="cls-1" x="90.5" y="497.42" width="558" height="342.62"/></clipPath><clipPath id="clip-path-43" transform="translate(0 0)"><rect class="cls-1" x="90.5" y="943.42" width="558" height="342.62"/></clipPath></defs><title>Arabidopsis_thaliana.karyotype</title><g id="figure_1" data-name="figure 1"><g id="patch_1" data-name="patch 1"><path class="cls-2" d="M0,445H720V0H0Z" transform="translate(0 0)"/></g><g id="axes_1" data-name="axes 1"><g id="patch_2" data-name="patch 2"><path class="cls-2" d="M90,396H648V53.4H90V396Z" transform="translate(0 0)"/></g><g id="patch_3" data-name="patch 3"><g class="cls-3"><path class="cls-1" d="M115.36,396h84.55v-.46H115.36Z" transform="translate(0 0)"/></g></g><g id="patch_4" data-name="patch 4"><g class="cls-3"><path class="cls-1" d="M221.05,396H305.6v-.46H221.05Z" transform="translate(0 0)"/></g></g><g id="patch_5" data-name="patch 5"><g class="cls-3"><path class="cls-1" d="M326.73,396h84.55v-.46H326.73V396Z" transform="translate(0 0)"/></g></g><g id="patch_6" data-name="patch 6"><g class="cls-3"><path class="cls-1" d="M432.41,396H517v-.46H432.41V396Z" transform="translate(0 0)"/></g></g><g id="patch_7" data-name="patch 7"><g class="cls-3"><path class="cls-1" d="M538.09,396h84.55v-.46H538.09Z" transform="translate(0 0)"/></g></g><g id="patch_8" data-name="patch 8"><g class="cls-3"><path class="cls-4" d="M131.22,396h52.84V189.16H131.22Z" transform="translate(0 0)"/></g></g><g id="patch_9" data-name="patch 9"><g class="cls-3"><path class="cls-5" d="M131.22,189.12h52.84v-3H131.22Z" transform="translate(0 0)"/></g></g><g id="patch_10" data-name="patch 10"><g class="cls-3"><path class="cls-4" d="M131.22,186.12h52.84v-6H131.22Z" transform="translate(0 0)"/></g></g><g id="patch_11" data-name="patch 11"><g class="cls-3"><path class="cls-5" d="M131.22,180h52.84V69.71H131.22Z" transform="translate(0 0)"/></g></g><g id="patch_12" data-name="patch 12"><g class="cls-3"><path class="cls-6" d="M236.9,396h52.84v-14.3H236.9Z" transform="translate(0 0)"/></g></g><g id="patch_13" data-name="patch 13"><g class="cls-3"><path class="cls-7" d="M236.9,381.62h52.84V331.9H236.9Z" transform="translate(0 0)"/></g></g><g id="patch_14" data-name="patch 14"><g class="cls-3"><path class="cls-8" d="M236.9,331.86h52.84V199.36H236.9Z" transform="translate(0 0)"/></g></g><g id="patch_15" data-name="patch 15"><g class="cls-3"><path class="cls-7" d="M342.58,396h52.84V273.1H342.58Z" transform="translate(0 0)"/></g></g><g id="patch_16" data-name="patch 16"><g class="cls-3"><path class="cls-6" d="M342.58,273.06h52.84V147.15H342.58Z" transform="translate(0 0)"/></g></g><g id="patch_17" data-name="patch 17"><g class="cls-3"><path class="cls-9" d="M448.26,396H501.1V345.42H448.26Z" transform="translate(0 0)"/></g></g><g id="patch_18" data-name="patch 18"><g class="cls-3"><path class="cls-10" d="M448.26,345.37H501.1V205.72H448.26Z" transform="translate(0 0)"/></g></g><g id="patch_19" data-name="patch 19"><g class="cls-3"><path class="cls-9" d="M553.94,396h52.84V296.16H553.94Z" transform="translate(0 0)"/></g></g><g id="patch_20" data-name="patch 20"><g class="cls-3"><path class="cls-11" d="M553.94,296.12h52.84V268.86H553.94Z" transform="translate(0 0)"/></g></g><g id="patch_21" data-name="patch 21"><g class="cls-3"><path class="cls-10" d="M553.94,268.81h52.84V234.17H553.94Z" transform="translate(0 0)"/></g></g><g id="patch_22" data-name="patch 22"><g class="cls-3"><path class="cls-11" d="M553.94,234.13h52.84v-38.7H553.94Z" transform="translate(0 0)"/></g></g><g id="patch_23" data-name="patch 23"><g class="cls-3"><path class="cls-9" d="M553.94,195.39h52.84V140.46H553.94v54.93Z" transform="translate(0 0)"/></g></g><g id="patch_24" data-name="patch 24"><g class="cls-3"><path class="cls-11" d="M553.94,140.41h52.84V107H553.94Z" transform="translate(0 0)"/></g></g></g></g><g id="figure_1-2" data-name="figure 1-2"><g id="patch_1-2" data-name="patch 1-2"><path class="cls-2" d="M.5,889h720V444H.5Z" transform="translate(0 0)"/></g><g id="axes_1-2" data-name="axes 1-2"><g id="patch_2-2" data-name="patch 2-2"><path class="cls-2" d="M90.5,840h558V497.41H90.5Z" transform="translate(0 0)"/></g><g id="patch_3-2" data-name="patch 3-2"><g class="cls-12"><path class="cls-1" d="M115.86,840h84.55v-.46H115.86Z" transform="translate(0 0)"/></g></g><g id="patch_4-2" data-name="patch 4-2"><g class="cls-12"><path class="cls-1" d="M221.55,840H306.1v-.46H221.55Z" transform="translate(0 0)"/></g></g><g id="patch_5-2" data-name="patch 5-2"><g class="cls-12"><path class="cls-1" d="M327.23,840h84.55v-.46H327.23V840Z" transform="translate(0 0)"/></g></g><g id="patch_6-2" data-name="patch 6-2"><g class="cls-12"><path class="cls-1" d="M432.91,840h84.55v-.46H432.91V840Z" transform="translate(0 0)"/></g></g><g id="patch_7-2" data-name="patch 7-2"><g class="cls-12"><path class="cls-1" d="M538.59,840h84.55v-.46H538.59Z" transform="translate(0 0)"/></g></g><g id="patch_8-2" data-name="patch 8-2"><g class="cls-12"><path class="cls-4" d="M131.72,840h52.84V633.18H131.72Z" transform="translate(0 0)"/></g></g><g id="patch_9-2" data-name="patch 9-2"><g class="cls-12"><path class="cls-5" d="M131.72,633.14h52.84v-2.95H131.72Z" transform="translate(0 0)"/></g></g><g id="patch_10-2" data-name="patch 10-2"><g class="cls-12"><path class="cls-4" d="M131.72,630.14h52.84v-6H131.72Z" transform="translate(0 0)"/></g></g><g id="patch_11-2" data-name="patch 11-2"><g class="cls-12"><path class="cls-5" d="M131.72,624.05h52.84V513.73H131.72Z" transform="translate(0 0)"/></g></g><g id="patch_12-2" data-name="patch 12-2"><g class="cls-12"><path class="cls-6" d="M237.4,840h52.84v-14.3H237.4Z" transform="translate(0 0)"/></g></g><g id="patch_13-2" data-name="patch 13-2"><g class="cls-12"><path class="cls-7" d="M237.4,825.64h52.84V775.92H237.4Z" transform="translate(0 0)"/></g></g><g id="patch_14-2" data-name="patch 14-2"><g class="cls-12"><path class="cls-8" d="M237.4,775.88h52.84V643.38H237.4Z" transform="translate(0 0)"/></g></g><g id="patch_15-2" data-name="patch 15-2"><g class="cls-12"><path class="cls-7" d="M343.08,840h52.84V717.12H343.08Z" transform="translate(0 0)"/></g></g><g id="patch_16-2" data-name="patch 16-2"><g class="cls-12"><path class="cls-6" d="M343.08,717.08h52.84V591.17H343.08V717.08Z" transform="translate(0 0)"/></g></g><g id="patch_17-2" data-name="patch 17-2"><g class="cls-12"><path class="cls-13" d="M448.76,840H501.6V789.44H448.76Z" transform="translate(0 0)"/></g></g><g id="patch_18-2" data-name="patch 18-2"><g class="cls-12"><path class="cls-10" d="M448.76,789.39H501.6V649.74H448.76Z" transform="translate(0 0)"/></g></g><g id="patch_19-2" data-name="patch 19-2"><g class="cls-12"><path class="cls-14" d="M554.44,840h52.84V712.88H554.44Z" transform="translate(0 0)"/></g></g><g id="patch_20-2" data-name="patch 20-2"><g class="cls-12"><path class="cls-10" d="M554.44,712.83h52.84V678H554.44Z" transform="translate(0 0)"/></g></g><g id="patch_21-2" data-name="patch 21-2"><g class="cls-12"><path class="cls-14" d="M554.44,677.92h52.84V639.46H554.44Z" transform="translate(0 0)"/></g></g><g id="patch_22-2" data-name="patch 22-2"><g class="cls-12"><path class="cls-13" d="M554.44,639.41h52.84V551H554.44Z" transform="translate(0 0)"/></g></g></g></g><g id="figure_1-3" data-name="figure 1-3"><g id="patch_1-3" data-name="patch 1-3"><path class="cls-2" d="M.5,1335h720V890H.5Z" transform="translate(0 0)"/></g><g id="axes_1-3" data-name="axes 1-3"><g id="patch_2-3" data-name="patch 2-3"><path class="cls-2" d="M90.5,1286h558V943.41H90.5Z" transform="translate(0 0)"/></g><g id="patch_3-3" data-name="patch 3-3"><g class="cls-15"><path class="cls-1" d="M115.86,1286h84.55v-.46H115.86Z" transform="translate(0 0)"/></g></g><g id="patch_4-3" data-name="patch 4-3"><g class="cls-15"><path class="cls-1" d="M221.55,1286H306.1v-.46H221.55Z" transform="translate(0 0)"/></g></g><g id="patch_5-3" data-name="patch 5-3"><g class="cls-15"><path class="cls-1" d="M327.23,1286h84.55v-.46H327.23v.46Z" transform="translate(0 0)"/></g></g><g id="patch_6-3" data-name="patch 6-3"><g class="cls-15"><path class="cls-1" d="M432.91,1286h84.55v-.46H432.91v.46Z" transform="translate(0 0)"/></g></g><g id="patch_7-3" data-name="patch 7-3"><g class="cls-15"><path class="cls-1" d="M538.59,1286h84.55v-.46H538.59Z" transform="translate(0 0)"/></g></g><g id="patch_8-3" data-name="patch 8-3"><g class="cls-15"><path class="cls-4" d="M131.72,1286h52.84V1079.18H131.72Z" transform="translate(0 0)"/></g></g><g id="patch_9-3" data-name="patch 9-3"><g class="cls-15"><path class="cls-5" d="M131.72,1079.14h52.84v-3H131.72Z" transform="translate(0 0)"/></g></g><g id="patch_10-3" data-name="patch 10-3"><g class="cls-15"><path class="cls-4" d="M131.72,1076.09h52.84v-6H131.72Z" transform="translate(0 0)"/></g></g><g id="patch_11-3" data-name="patch 11-3"><g class="cls-15"><path class="cls-5" d="M131.72,1070.05h52.84V959.73H131.72Z" transform="translate(0 0)"/></g></g><g id="patch_12-3" data-name="patch 12-3"><g class="cls-15"><path class="cls-6" d="M237.4,1286h52.84v-14.3H237.4Z" transform="translate(0 0)"/></g></g><g id="patch_13-3" data-name="patch 13-3"><g class="cls-15"><path class="cls-7" d="M237.4,1271.64h52.84v-49.72H237.4Z" transform="translate(0 0)"/></g></g><g id="patch_14-3" data-name="patch 14-3"><g class="cls-15"><path class="cls-8" d="M237.4,1221.88h52.84v-132.5H237.4Z" transform="translate(0 0)"/></g></g><g id="patch_15-3" data-name="patch 15-3"><g class="cls-15"><path class="cls-7" d="M343.08,1286h52.84V1163.12H343.08Z" transform="translate(0 0)"/></g></g><g id="patch_16-3" data-name="patch 16-3"><g class="cls-15"><path class="cls-6" d="M343.08,1163.08h52.84V1037.17H343.08Z" transform="translate(0 0)"/></g></g><g id="patch_17-3" data-name="patch 17-3"><g class="cls-15"><path class="cls-16" d="M448.76,1286H501.6v-50.55H448.76Z" transform="translate(0 0)"/></g></g><g id="patch_18-3" data-name="patch 18-3"><g class="cls-15"><path class="cls-10" d="M448.76,1235.39H501.6V1095.74H448.76Z" transform="translate(0 0)"/></g></g><g id="patch_19-3" data-name="patch 19-3"><g class="cls-15"><path class="cls-16" d="M554.44,1286h52.84V1159.53H554.44Z" transform="translate(0 0)"/></g></g><g id="patch_20-3" data-name="patch 20-3"><g class="cls-15"><path class="cls-10" d="M554.44,1159.48h52.84V1124.2H554.44Z" transform="translate(0 0)"/></g></g><g id="patch_21-3" data-name="patch 21-3"><g class="cls-15"><path class="cls-17" d="M554.44,1124.15h52.84V997H554.44Z" transform="translate(0 0)"/></g></g></g></g><g class="cls-18"><text class="cls-19" transform="translate(197.95 874.55)">AKI mapped to</text></g><g class="cls-18"><text class="cls-20" transform="translate(363.38 874.55)">Arabidopsis thaliana</text></g><g class="cls-18"><text class="cls-19" transform="translate(205.97 1316.03)">tAKI mapped to</text></g><g class="cls-18"><text class="cls-20" transform="translate(378.07 1316.03)">Arabidopsis thaliana</text></g><g class="cls-18"><text class="cls-19" transform="translate(167.89 425)">ACBK mapped to</text></g><g class="cls-18"><text class="cls-20" transform="translate(360 425)">Arabidopsis thaliana</text></g></svg>